<svg width="47" height="57" viewBox="0 0 47 57" fill="none" xmlns="http://www.w3.org/2000/svg">
<path d="M45.2038 19.4954C43.3629 20.6226 41.8379 22.1983 40.7718 24.0753C39.7056 25.9522 39.1331 28.069 39.1078 30.2275C39.1151 32.6568 39.8348 35.0306 41.1779 37.055C42.521 39.0793 44.4284 40.6652 46.6639 41.6162C45.7825 44.4599 44.4781 47.1547 42.7945 49.6101C40.3855 53.078 37.8666 56.5456 34.0339 56.5456C30.2013 56.5456 29.2155 54.3189 24.7987 54.3189C20.4914 54.3189 18.9582 56.6187 15.4539 56.6187C11.9496 56.6187 9.50417 53.4064 6.69331 49.4642C2.98037 43.9416 0.939789 37.4649 0.816406 30.8113C0.816406 19.8605 7.93457 14.0568 14.9428 14.0568C18.6662 14.0568 21.769 16.5022 24.1052 16.5022C26.3319 16.5022 29.7998 13.9105 34.0339 13.9105C36.2109 13.8543 38.3684 14.3343 40.3162 15.3082C42.2641 16.2822 43.9426 17.7201 45.2038 19.4954ZM32.0264 9.27483C33.8929 7.07916 34.9495 4.30953 35.0196 1.4286C35.0228 1.0488 34.9861 0.66973 34.9101 0.297607C31.7039 0.610798 28.7391 2.13891 26.6238 4.5685C24.7393 6.67668 23.643 9.37235 23.521 12.1974C23.5224 12.5409 23.5591 12.8835 23.6306 13.2195C23.8833 13.2673 24.1399 13.2918 24.3972 13.2927C25.8748 13.1751 27.3131 12.7583 28.6246 12.0676C29.9361 11.3769 31.0935 10.4267 32.0264 9.27483Z" fill="#0C0C0C"/>
</svg>
