<?xml version="1.0" encoding="UTF-8" standalone="no"?>
<!-- Created with Inkscape (http://www.inkscape.org/) -->

<svg
   version="1.1"
   id="svg2"
   width="323.51999"
   height="204.16"
   viewBox="0 0 323.51999 204.16"
   sodipodi:docname="billease.png"
   inkscape:version="1.1.2 (0a00cf5339, 2022-02-04)"
   xmlns:inkscape="http://www.inkscape.org/namespaces/inkscape"
   xmlns:sodipodi="http://sodipodi.sourceforge.net/DTD/sodipodi-0.dtd"
   xmlns="http://www.w3.org/2000/svg"
   xmlns:svg="http://www.w3.org/2000/svg">
  <defs
     id="defs6" />
  <sodipodi:namedview
     id="namedview4"
     pagecolor="#ffffff"
     bordercolor="#666666"
     borderopacity="1.0"
     inkscape:pageshadow="2"
     inkscape:pageopacity="0.0"
     inkscape:pagecheckerboard="0"
     showgrid="false"
     inkscape:zoom="2.5790864"
     inkscape:cx="161.87903"
     inkscape:cy="101.97409"
     inkscape:window-width="1920"
     inkscape:window-height="947"
     inkscape:window-x="0"
     inkscape:window-y="0"
     inkscape:window-maximized="1"
     inkscape:current-layer="g8" />
  <g
     inkscape:groupmode="layer"
     inkscape:label="Image"
     id="g8">
    <path
       style="fill:#000000;stroke-width:0.32"
       d="m 42.559999,126.44537 c -5.0112,-1.29688 -8.925155,-5.05881 -10.76961,-10.3513 -0.880737,-2.52719 -0.800175,-9.65395 0.135954,-12.02684 1.686843,-4.275809 4.19571,-7.078952 7.999845,-8.93818 2.436668,-1.190896 2.529062,-1.208759 6.153811,-1.189661 3.29903,0.01738 3.87623,0.1092 5.575513,0.886941 1.042534,0.477155 2.506768,1.368428 3.253856,1.980611 0.747088,0.612182 1.434579,1.113059 1.527763,1.113059 0.09318,0 0.212947,-0.756 0.266144,-1.68 l 0.09672,-1.68 3.634199,-0.0908 c 2.405535,-0.0601 3.784915,0.03428 4.079999,0.279181 0.366423,0.304105 0.445802,2.485635 0.445802,12.251549 0,11.45538 0.02736,11.99058 0.76272,14.92082 0.419494,1.67159 0.815494,3.25525 0.88,3.51925 0.09898,0.40509 -0.543123,0.49393 -4.11457,0.56923 l -4.231846,0.0892 -0.488153,-1.16831 c -0.268484,-0.64257 -0.488151,-1.43022 -0.488151,-1.75035 0,-1.06888 -0.686592,-1.02411 -1.868886,0.12188 -1.48345,1.43789 -3.85953,2.62768 -6.482317,3.24592 -2.545628,0.60005 -3.728505,0.58107 -6.368796,-0.10223 z m 8.250278,-9.18159 c 2.469318,-1.02992 4.557433,-4.22558 4.545065,-6.95578 -0.01178,-2.60222 -1.736707,-5.54144 -3.933881,-6.70323 -1.686563,-0.89179 -5.275328,-0.97214 -6.829344,-0.15289 -2.294723,1.20974 -3.952118,4.15908 -3.952118,7.03282 0,2.83158 2.148755,6.10973 4.495094,6.85773 1.638032,0.52219 4.323856,0.48497 5.675184,-0.0786 z M 108.48,126.5166 c -9.580105,-2.0299 -15.294294,-11.17703 -12.834697,-20.54544 1.410569,-5.37275 5.294217,-9.368488 11.171217,-11.493637 1.09494,-0.395936 2.54692,-0.545417 5.34348,-0.550118 3.26342,-0.0055 4.12828,0.105155 5.76,0.736854 7.1607,2.772183 11.04574,8.245701 11.0362,15.548591 -0.007,5.04667 -1.34866,8.34612 -4.76114,11.70519 -2.53615,2.49645 -5.34703,3.96453 -8.88816,4.64214 -2.93098,0.56086 -4.00667,0.55399 -6.8269,-0.0436 z m 6.11225,-9.12079 c 1.7898,-0.59925 3.06756,-1.76724 3.98521,-3.64286 0.76104,-1.5555 0.84651,-2.03548 0.69854,-3.92266 -0.18413,-2.34851 -0.73458,-3.6816 -2.07268,-5.01969 -1.44881,-1.44882 -2.61564,-1.889 -5.04332,-1.9026 -4.62959,-0.0259 -7.29539,2.73231 -7.27204,7.52423 0.0155,3.19475 1.54084,5.6519 4.23204,6.81759 1.33943,0.58018 3.96614,0.65025 5.47225,0.14599 z m 87.64774,9.26998 c -6.53137,-1.34871 -10.1753,-3.96093 -12.68167,-9.09111 L 188.31999,115.04 v -4.8 -4.8 l 1.33273,-2.72 c 1.76127,-3.594608 3.86454,-5.69559 7.46727,-7.459136 l 2.72,-1.331446 3.84,-0.0047 c 4.52604,-0.0055 6.55651,0.520598 9.44005,2.44615 2.01783,1.347459 3.54091,3.19081 4.98161,6.029142 0.83723,1.6494 0.9016,2.06636 1.02449,6.63571 l 0.13113,4.8757 -10.82435,0.0843 c -12.21588,0.0951 -11.90853,0.0194 -9.84864,2.42592 1.78184,2.08168 3.29432,2.71524 6.53571,2.73771 2.11813,0.0147 3.17279,-0.15051 4.76629,-0.74657 l 2.04628,-0.76542 0.99372,1.10662 c 2.96434,3.30118 3.71371,4.22984 3.71371,4.60227 0,0.77288 -4.27989,2.5276 -7.75181,3.17818 -2.95538,0.55379 -4.45864,0.58349 -6.64819,0.13136 z m 8.32,-20.27854 c 0,-0.86379 -1.21832,-2.91846 -2.24051,-3.77858 -3.13193,-2.635345 -8.77453,-1.4959 -10.52784,2.12596 -0.36941,0.76309 -0.67165,1.55797 -0.67165,1.7664 0,0.27993 1.75624,0.37897 6.72,0.37897 5.83727,0 6.72,-0.0647 6.72,-0.49275 z m 23.68,19.61334 c 0,-0.21968 1.24723,-2.48768 2.77162,-5.04 1.52439,-2.55232 3.88247,-6.51259 5.24019,-8.80059 1.35772,-2.288 3.67449,-6.17277 5.14838,-8.63282 1.4739,-2.46004 2.73936,-4.620044 2.81215,-4.799996 0.0728,-0.179952 1.30588,-2.271184 2.74022,-4.647184 1.43433,-2.376 4.31008,-7.175562 6.39054,-10.66569 3.11923,-5.232736 3.85543,-6.27103 4.19753,-5.92 0.51629,0.529776 11.01937,18.240103 11.01937,18.580909 0,0.540608 -4.37311,3.424531 -5.47523,3.610733 -1.86019,0.314278 -3.28366,-0.479146 -4.6269,-2.57897 -0.63789,-0.997177 -1.26685,-1.690185 -1.39769,-1.540016 -0.27639,0.317236 -6.47489,10.784014 -7.05538,11.913724 -0.43749,0.85141 -0.42034,0.87138 1.71728,1.99966 4.40009,2.32245 8.71055,2.01629 12.97691,-0.92171 1.7754,-1.22262 5.48454,-4.77854 6.34055,-6.07864 0.46148,-0.70088 0.62182,-0.72 6.03726,-0.72 3.92674,0 5.5632,0.10652 5.5632,0.36211 0,0.41547 -4.24928,6.40805 -4.96521,7.00222 -0.26113,0.21672 -0.47479,0.58932 -0.47479,0.828 0,0.23869 2.088,3.95589 4.64,8.26046 2.552,4.30457 4.64,7.91114 4.64,8.01459 0,0.10345 -2.40766,0.14861 -5.35035,0.10036 l -5.35036,-0.0877 -1.69191,-2.72 c -0.93056,-1.496 -1.98674,-3.296 -2.34709,-4 -0.36034,-0.704 -0.9243,-1.6363 -1.25325,-2.07178 l -0.59808,-0.79178 -2.66448,1.34279 c -3.70655,1.86796 -5.85346,2.40154 -9.68696,2.40757 -3.89163,0.006 -6.30079,-0.60176 -10.07126,-2.5412 -1.48156,-0.76208 -2.72193,-1.3856 -2.75639,-1.3856 -0.0345,0 -1.41428,2.23125 -3.06626,4.95835 l -3.00361,4.95834 -5.2,0.002 c -3.94347,0.001 -5.2,-0.0949 -5.2,-0.39776 z M 81.599997,125.62331 c -2.053004,-0.54272 -2.933849,-0.96068 -4.109532,-1.94995 -2.431466,-2.04594 -2.930467,-4.36328 -2.930467,-13.60897 V 102.72 h -1.733827 c -2.818199,0 -2.746173,0.10413 -2.746173,-3.970237 0,-2.359149 0.131075,-3.712838 0.384,-3.965763 0.2112,-0.2112 1.2192,-0.384 2.24,-0.384 h 1.856 v -3.456 c 0,-2.261334 0.132739,-3.588739 0.384,-3.84 0.404019,-0.404019 8.052611,-0.564755 9.029827,-0.189763 0.420483,0.161353 0.506172,0.809984 0.506172,3.831446 v 3.637207 l 4.72,0.08856 c 5.521187,0.103584 5.294659,-0.156137 3.451584,3.957392 -2.039747,4.552478 -1.519225,4.118338 -5.062995,4.222748 l -3.108589,0.0916 v 6.37336 c 0,4.07537 0.13105,6.66098 0.363456,7.17105 0.450957,0.98975 2.36896,1.79242 4.283021,1.79242 h 1.433523 v 4 4 l -3.76,-0.038 c -2.068,-0.0209 -4.408,-0.20932 -5.2,-0.41868 z m 52.701743,0.25177 c -0.12196,-0.12196 -0.22174,-5.82165 -0.22174,-12.66597 0,-12.03585 -0.0225,-12.49353 -0.68506,-13.946665 -1.48681,-3.2608 -1.86967,-4.292096 -1.69708,-4.571354 0.099,-0.160099 2.17712,-0.291091 4.61816,-0.291091 4.95221,0 5.08539,0.05085 5.97829,2.282422 0.27234,0.680669 0.5314,1.237578 0.57567,1.237578 0.0443,0 0.62919,-0.517491 1.29983,-1.149981 0.67063,-0.632489 2.02277,-1.532489 3.00476,-2 1.58654,-0.755334 2.1597,-0.84904 5.14543,-0.841219 2.99704,0.0078 3.53404,0.09972 4.97114,0.850496 0.88612,0.462934 2.23346,1.483846 2.99408,2.268698 l 1.38294,1.426998 1.39779,-1.397789 c 0.76878,-0.768784 2.22945,-1.793657 3.24592,-2.277497 1.67142,-0.795594 2.18468,-0.879268 5.36812,-0.875127 3.18001,0.0041 3.69285,0.08908 5.3095,0.879347 2.38872,1.16769 4.31739,3.146644 5.53184,5.676074 l 0.99866,2.08 0.10128,11.76868 0.10128,11.76867 -4.74128,-0.0887 -4.74128,-0.0887 -0.16,-10.24 c -0.15705,-10.05165 -0.17381,-10.26221 -0.91089,-11.44776 -0.98891,-1.59058 -2.16028,-2.15224 -4.48866,-2.15224 -1.58813,0 -2.0774,0.13973 -2.89337,0.82632 -1.88395,1.58524 -1.93268,1.89668 -2.02383,12.93368 l -0.0832,10.08 h -4.79999 -4.8 l -0.16,-10.4 c -0.15726,-10.22179 -0.17264,-10.41772 -0.8977,-11.43425 -1.16329,-1.63093 -1.92148,-2.00587 -4.05351,-2.00455 -2.27507,0.001 -3.68553,0.71532 -4.55326,2.30465 -0.50938,0.93298 -0.59392,2.23123 -0.73553,11.29415 l -0.16,10.24 -4.49826,0.0884 c -2.47404,0.0486 -4.59804,-0.0114 -4.72,-0.13333 z"
       id="path15067" />
  </g>
</svg>
