<?xml version="1.0" encoding="UTF-8" standalone="no"?>
<!-- Created with Inkscape (http://www.inkscape.org/) -->

<svg
   width="1200"
   height="400"
   viewBox="0 0 317.49998 105.83334"
   version="1.1"
   id="svg5"
   inkscape:version="1.1.2 (0a00cf5339, 2022-02-04)"
   sodipodi:docname="banner-background-1.svg"
   xmlns:inkscape="http://www.inkscape.org/namespaces/inkscape"
   xmlns:sodipodi="http://sodipodi.sourceforge.net/DTD/sodipodi-0.dtd"
   xmlns="http://www.w3.org/2000/svg"
   xmlns:svg="http://www.w3.org/2000/svg">
  <sodipodi:namedview
     id="namedview7"
     pagecolor="#ffffff"
     bordercolor="#666666"
     borderopacity="1.0"
     inkscape:pageshadow="2"
     inkscape:pageopacity="0.0"
     inkscape:pagecheckerboard="true"
     inkscape:document-units="mm"
     showgrid="false"
     units="px"
     width="1200px"
     inkscape:zoom="0.64052328"
     inkscape:cx="554.23434"
     inkscape:cy="245.11209"
     inkscape:window-width="1920"
     inkscape:window-height="947"
     inkscape:window-x="0"
     inkscape:window-y="0"
     inkscape:window-maximized="1"
     inkscape:current-layer="layer1" />
  <defs
     id="defs2" />
  <g
     inkscape:label="Layer 1"
     inkscape:groupmode="layer"
     id="layer1">
    <rect
       style="fill:#111827;fill-opacity:1;stroke:#808080;stroke-width:0;stroke-linejoin:round;paint-order:stroke fill markers"
       id="rect1430"
       width="352.15985"
       height="130.02141"
       x="-17.329926"
       y="-12.094037" />
    <path
       style="opacity:0.8;fill:#222d3a;fill-opacity:1;stroke-width:0.541969"
       d="m -143.38272,376.60042 c 0.18416,-0.96878 0.63271,-2.37115 0.99668,-3.11633 0.36404,-0.74521 0.83264,-2.69021 1.04138,-4.3222 0.20874,-1.63201 0.57394,-3.21725 0.81151,-3.52281 0.23761,-0.30533 0.95684,-2.31134 1.59831,-4.45727 0.64149,-2.14602 1.40695,-4.0505 1.70105,-4.23231 0.29414,-0.18179 0.54302,-0.86478 0.55314,-1.51791 0.0106,-0.65306 0.48963,-2.16299 1.06554,-3.35533 0.57592,-1.19229 1.05543,-2.46056 1.06557,-2.8184 0.0106,-0.35781 0.44315,-0.88823 0.96232,-1.17876 0.51914,-0.29063 0.74977,-0.72238 0.51247,-0.95969 -0.2373,-0.23747 -0.60754,-0.14655 -0.82274,0.20171 -0.25676,0.41544 -0.66589,0.4596 -1.18996,0.12806 -0.6518,-0.41224 -0.59934,-0.51338 0.2853,-0.5518 l 1.08394,-0.0446 -1.08394,-0.51402 c -0.85138,-0.40392 -0.70026,-0.45576 0.70441,-0.24132 1.26624,0.19341 1.67542,0.0903 1.40151,-0.35271 -0.25213,-0.40775 -0.0942,-0.51338 0.45366,-0.30342 0.62207,0.23877 0.77054,0.0575 0.57131,-0.7071 -0.62515,-2.3904 5.74736,-10.43973 9.82942,-12.41577 3.59194,-1.73885 8.61005,-1.53349 12.49751,0.51145 3.7464,1.97069 12.704892,8.63685 14.543652,10.82209 0.73627,0.87496 1.48773,1.44181 1.66993,1.25961 0.18219,-0.18246 0.359358,0.0133 0.3938,0.43658 0.0735,0.9025 0.04415,0.71995 0.948541,5.9165 0.389066,2.23563 1.068809,5.28421 1.510539,6.77461 0.805117,2.71649 1.303712,5.39361 2.321591,12.46535 0.300333,2.08654 0.677741,4.70833 0.838679,5.82614 l 0.292597,2.03236 h -28.446269 -28.44628 z m 50.583224,-28.58893 c 0,-0.29828 -0.426842,-0.53833 -0.948452,-0.53386 -0.81054,0.007 -0.83025,0.0846 -0.13551,0.53386 1.0228,0.661 1.083936,0.661 1.083936,0 z m -0.541982,-1.62589 c 0.44711,-0.28872 0.569061,-0.52555 0.27095,-0.52555 -0.2981,0 -0.9078,0.23621 -1.35493,0.52555 -0.44712,0.28868 -0.56907,0.52552 -0.27096,0.52552 0.29811,0 0.9078,-0.23621 1.35494,-0.52552 z m 498.612048,31.69785 c 0,-0.15285 0.21582,-0.70184 0.4788,-1.21943 0.26375,-0.51788 1.2711,-2.60452 2.23897,-4.63762 1.63277,-3.42989 1.97444,-3.79151 4.73695,-5.01325 3.71913,-1.64471 7.2492,-1.70228 10.4637,-0.17037 3.15011,1.50108 4.53398,2.71131 3.69394,3.2305 -0.40711,0.25159 -0.0255,0.70465 1.06199,1.26855 0.93257,0.48201 2.07187,1.60441 2.53173,2.4936 0.4596,0.88917 1.04513,1.61666 1.30084,1.61666 0.25606,0 0.58125,0.60941 0.72391,1.35497 l 0.25927,1.35494 h -13.74508 c -7.55977,0 -13.74508,-0.12539 -13.74508,-0.27845 z M 152.17073,364.5893 v -7.88286 l 2.57437,-0.0255 c 1.4159,-0.0133 3.2483,-0.0575 4.07202,-0.089 1.91359,-0.08 3.50105,1.36258 4.25006,3.86264 l 0.5897,1.9681 2.38647,-0.5537 c 1.31255,-0.30469 2.38648,-0.72769 2.38648,-0.94047 0,-0.68724 -0.99861,-1.02725 -1.34946,-0.45961 -0.18716,0.30278 -1.05768,0.55116 -1.93434,0.55116 -1.83966,0 -2.12099,-1.17424 -0.75024,-3.13124 0.9654,-1.3783 0.42996,-1.67121 -0.56573,-0.30915 -0.51876,0.70944 -0.7452,0.74832 -1.09194,0.18693 -0.27819,-0.45 -0.22461,-0.57611 0.14704,-0.3463 0.3216,0.19832 0.66924,-0.0686 0.77256,-0.59405 0.12845,-0.65344 -0.41493,-1.2408 -1.72039,-1.85968 -1.59313,-0.75521 -1.70688,-0.91178 -0.68882,-0.94846 0.67069,-0.0255 1.21942,-0.25413 1.21942,-0.51084 0,-0.25667 -0.64595,-0.34309 -1.43545,-0.19273 -0.99542,0.19006 -1.31722,0.0833 -1.04966,-0.34952 0.35489,-0.5742 -1.11375,-3.13831 -2.78122,-4.85584 -0.38242,-0.39366 -0.69532,-1.16048 -0.69532,-1.70343 0,-1.43904 -1.01513,-1.64517 -8.10343,-1.64517 h -6.38887 l -0.70529,-2.51905 c -0.38791,-1.3855 -2.00487,-4.48299 -3.59323,-6.88344 -3.20187,-4.83873 -3.27986,-5.27377 -2.36771,-13.20639 0.70034,-6.0904 1.30648,-8.0687 3.52696,-11.51133 1.04895,-1.6263 2.05385,-3.82128 2.23311,-4.87773 0.87749,-5.17186 1.3695,-6.11577 5.00651,-9.60508 4.39404,-4.21565 13.80573,-11.44935 16.20072,-12.45165 0.95919,-0.40135 2.9916,-0.72986 4.51644,-0.72986 1.52487,0 4.76415,-0.51082 7.1985,-1.13514 7.69704,-1.97394 9.66788,-1.32017 18.62825,6.17916 1.84953,1.54802 4.41034,3.55314 5.69071,4.45589 1.38342,0.97543 3.73247,3.69652 5.78998,6.707 3.72304,5.44752 4.78533,6.18377 13.05611,9.04977 2.07516,0.71906 3.88729,1.92622 6.01926,4.00968 2.03434,1.988 3.96703,3.29996 5.80271,3.93904 2.57296,0.89567 2.82397,1.14928 3.84866,3.88797 1.56939,4.1946 2.41311,9.69838 1.98514,12.94954 -0.20261,1.53948 -1.20689,4.47812 -2.23159,6.53028 -1.0247,2.05204 -1.86309,4.06411 -1.86309,4.47123 0,0.58891 -1.48734,0.74011 -7.27227,0.74011 -7.67521,0 -9.07942,0.212 -8.65917,1.30713 0.14257,0.37125 -0.60247,1.61625 -1.65568,2.7661 -1.05318,1.14979 -2.05526,2.53283 -2.22684,3.07341 -0.17149,0.54088 -0.72234,0.98662 -1.22389,0.99116 -0.70881,0.007 -0.75035,0.11083 -0.18649,0.46795 0.5397,0.34182 0.22747,0.76761 -1.21941,1.66178 -1.06966,0.66115 -1.94431,1.24315 -1.94362,1.29331 5.2e-4,0.0514 0.75807,0.11845 1.68312,0.15186 0.92504,0.032 1.84548,0.32518 2.04546,0.64889 0.23442,0.37895 0.64734,0.40902 1.16221,0.0833 1.34841,-0.8527 3.72296,-0.57799 4.86345,0.56205 0.92451,0.92451 1.08392,1.80655 1.08392,5.99761 v 4.91377 l -1.4904,-0.17148 c -1.46088,-0.16835 -1.49582,-0.25731 -1.76142,-4.50203 -0.22601,-3.61206 -0.43265,-4.36127 -1.24548,-4.51599 -1.91824,-0.36487 -2.54831,0.90052 -2.54831,5.11912 v 3.99839 h -1.6259 -1.62592 v -4.9607 -4.96062 l -1.08395,1.24979 c -0.59614,0.68737 -1.08392,0.93871 -1.08392,0.55881 0,-0.55307 -0.16262,-0.55624 -0.81294,-0.0201 -0.57977,0.48141 -0.81296,1.75383 -0.81296,4.43644 v 3.7618 l -1.76143,-0.16969 c -1.43502,-0.13829 -1.75325,-0.39753 -1.71745,-1.39772 l 0.0441,-1.22787 -1.17655,1.10535 c -1.84516,1.73341 -4.36174,2.24082 -6.85423,1.38209 -1.6649,-0.57354 -2.2761,-0.59274 -2.74945,-0.0858 -0.33482,0.35847 -1.3584,0.58379 -2.27474,0.50185 -1.52672,-0.1376 -1.55275,-0.11391 -0.31117,0.27911 l 1.35492,0.42889 -1.47402,0.29253 c -0.81069,0.1608 -1.36209,0.11128 -1.22538,-0.10948 0.40231,-0.65097 -1.25754,-1.73963 -1.97569,-1.29579 -0.43374,0.26822 -0.55511,0.13878 -0.3563,-0.37895 0.19858,-0.51721 -0.052,-0.78574 -0.73428,-0.78574 -0.6213,0 -0.92877,0.27911 -0.76838,0.69685 0.14708,0.38341 -0.0301,0.71782 -0.39303,0.74349 -3.97024,0.28037 -4.48526,0.18 -5.33859,-1.04614 -0.48644,-0.69884 -0.78488,-1.79631 -0.66331,-2.43887 0.21135,-1.1174 0.19834,-1.12105 -0.29645,-0.0846 -0.28458,0.59597 -0.66393,1.76464 -0.843,2.59654 -0.20619,0.95815 -0.55492,1.37083 -0.95121,1.12592 -0.34412,-0.21247 -2.29003,-0.34183 -4.3243,-0.28743 -3.63521,0.0981 -3.71709,0.0693 -4.7761,-1.66785 -0.59262,-0.97194 -1.07842,-1.47189 -1.07952,-1.11085 -0.007,2.01747 -4.00566,3.58071 -5.96368,2.33092 -0.66507,-0.42438 -0.86224,-0.10235 -1.08393,1.76979 -0.23847,2.01385 -0.44989,2.30917 -1.76141,2.46002 l -1.49041,0.17147 v -7.88284 z m 16.83671,1.28811 c 1.48184,-0.79305 1.33027,-2.14878 -0.24027,-2.14878 -1.44359,0 -2.78416,1.27809 -2.2489,2.14412 0.44201,0.71514 1.1591,0.71656 2.48917,0.006 z m -9.81015,-1.02918 c 0.75758,-1.41556 0.7094,-4.00628 -0.0897,-4.80502 -2.61093,-2.61094 -5.35122,2.12801 -2.99291,5.17583 0.78603,1.01586 2.44705,0.81602 3.08227,-0.37061 z m 35.99584,0.20728 c 0.18515,-0.482 0.0942,-0.69992 -0.21289,-0.51016 -0.29467,0.18176 -0.5358,0.56073 -0.5358,0.84103 0,0.77961 0.38841,0.6075 0.74876,-0.33093 z m 3.85799,-0.78485 c -0.18425,-0.29829 -0.74736,-0.53834 -1.25143,-0.53386 -0.7898,0.007 -0.80412,0.0813 -0.10348,0.53386 1.06136,0.68594 1.77883,0.68594 1.35493,0 z m -72.49102,6.09717 c -0.95846,-1.07196 -1.10119,-1.72292 -1.01008,-4.60671 l 0.0643,-2.03237 h 3.52279 3.5228 v 3.79373 3.79381 h -2.62582 c -1.81643,0 -2.88727,-0.29255 -3.47389,-0.94846 z m 14.22928,-2.84535 v -3.79373 h 3.52279 3.5228 v 2.8968 c 0,3.66692 -0.98516,4.69074 -4.5139,4.69074 h -2.53169 z m 42.27362,2.16789 c 0,-0.29828 0.25828,-0.54216 0.57395,-0.54216 0.3157,0 0.42324,0.24388 0.23902,0.54216 -0.18424,0.29831 -0.44253,0.54218 -0.57393,0.54218 -0.13153,0 -0.23904,-0.24387 -0.23904,-0.54218 z m 6.77464,-0.54216 c -0.71471,-0.30728 -0.80703,-0.47628 -0.271,-0.49548 0.44715,-0.0201 1.17879,0.20686 1.62592,0.49548 0.99072,0.64024 0.13496,0.64024 -1.3549,0 z m 45.79642,-0.27076 c 0,-0.44683 0.36585,-0.81298 0.81297,-0.81298 0.44712,0 0.81295,0.36615 0.81295,0.81298 0,0.44741 -0.36583,0.81292 -0.81295,0.81292 -0.44712,0 -0.81297,-0.36615 -0.81297,-0.81292 z m 4.10351,-0.0385 c -0.97682,-0.97684 -1.10921,-3.07412 -0.29064,-4.60362 0.60703,-1.13424 3.97024,-1.50543 4.58769,-0.50635 0.58329,0.94372 -0.28122,1.7501 -1.1253,1.04961 -0.41678,-0.34567 -1.12674,-0.48714 -1.57765,-0.3143 -1.08271,0.41545 -1.04982,2.73486 0.052,3.64907 0.73537,0.61005 0.97322,0.58444 1.52164,-0.16566 0.38911,-0.53196 0.92542,-0.71873 1.33633,-0.46472 0.5341,0.33028 0.4885,0.62154 -0.20554,1.3158 -1.12776,1.12783 -3.19144,1.14705 -4.29836,0.0385 z m 6.54888,-0.13943 c -0.9372,-1.03566 -1.17187,-3.15715 -0.4711,-4.2592 0.22504,-0.35396 1.08735,-0.9014 1.91617,-1.21652 1.30145,-0.49482 1.68788,-0.39176 2.83427,0.75444 1.53519,1.53518 1.6721,2.81117 0.48393,4.50786 -1.04167,1.4872 -3.51017,1.59776 -4.76302,0.2131 z m 3.33044,-0.74325 c 1.54377,-1.54378 -0.14359,-4.50882 -1.78852,-3.14339 -0.44743,0.37129 -0.81293,1.08379 -0.81293,1.58386 0,0.886 0.97399,2.2099 1.62589,2.2099 0.17865,0 0.61775,-0.29256 0.97556,-0.65037 z m 3.48615,-1.508 c -0.0384,-2.97976 0.0513,-3.2424 1.13507,-3.24382 2.80484,-0.006 3.46081,0.0133 5.51364,0.12939 l 2.16782,0.12419 0.16394,3.17102 c 0.12486,2.40482 -0.006,3.11465 -0.53641,2.93759 -0.43018,-0.14357 -0.64691,-0.94858 -0.5614,-2.08712 0.0761,-1.01951 -0.11392,-2.21943 -0.42247,-2.66654 -0.48649,-0.70518 -0.66764,-0.67343 -1.36384,0.23941 -0.44169,0.57866 -0.80266,1.85898 -0.80266,2.84534 0,1.81979 -1.03579,2.58631 -1.14151,0.84482 -0.032,-0.52171 -0.11196,-1.31431 -0.17865,-1.76142 -0.0664,-0.44745 -0.16262,-1.23971 -0.21313,-1.76135 -0.11578,-1.18251 -1.48802,-1.24728 -1.93162,-0.091 -0.1811,0.47177 -0.32902,1.69095 -0.32902,2.70988 0,1.19004 -0.26055,1.85258 -0.7286,1.85258 -0.52425,0 -0.74061,-0.9096 -0.77132,-3.24234 z m -22.88867,-4.07424 v -6.77459 h -2.10468 c -1.6485,0 -2.16604,-0.23494 -2.38795,-1.08342 -0.32706,-1.25061 -0.19142,-1.36614 2.20763,-1.88079 0.98229,-0.21069 2.16374,-0.96781 2.63667,-1.68967 0.57804,-0.88224 1.36575,-1.30782 2.42051,-1.30782 h 1.56357 v 9.75544 9.75545 h -2.16786 -2.16789 z m -10.56839,5.58499 c -1.26344,-0.71642 -1.87697,-1.51837 -1.8886,-2.4687 -0.012,-1.00185 3.06171,-0.84891 3.45344,0.17149 0.21244,0.55373 0.84543,0.78947 1.81936,0.67745 2.46998,-0.28422 1.78709,-1.65196 -1.20588,-2.41544 -2.74795,-0.70105 -4.07522,-1.83785 -4.07522,-3.49059 0,-3.13715 5.44724,-4.90338 8.26504,-2.67977 0.81973,0.64687 1.49041,1.52422 1.49041,1.94972 0,1.01235 -2.54217,1.01877 -3.55199,0.007 -0.85283,-0.85284 -3.10822,-0.51786 -2.79714,0.41542 0.10948,0.3284 1.25311,0.90183 2.54159,1.27488 4.35017,1.25945 5.46488,3.42809 3.01922,5.87374 -1.47155,1.47161 -5.06688,1.81874 -7.07023,0.6827 z m -86.48932,-4.45425 c -0.12406,-0.12285 -0.14392,-1.83023 -0.0441,-3.79374 l 0.18176,-3.5701 h 3.47658 3.47657 v 3.79383 3.79379 h -3.43235 c -1.88787,0 -3.5341,-0.10055 -3.65829,-0.22402 z m -7.54241,-10.31268 c 0,-3.40883 0.26992,-3.6729 4.20025,-4.10908 l 2.84536,-0.31556 v 3.68683 3.68684 h -3.52281 -3.5228 z m 15.17515,-0.57419 v -3.52278 h 2.96177 c 3.47287,0 4.08382,0.68384 4.08382,4.57112 v 2.47443 h -3.52281 -3.52278 z m 177.49505,1.63718 c -5.38783,-1.05692 -10.81057,-3.15421 -12.25787,-4.741 -0.48201,-0.52875 -1.15279,-0.96095 -1.49041,-0.96095 -0.33798,0 -0.61389,-0.1876 -0.61389,-0.41672 0,-0.22916 -0.6707,-0.8323 -1.49045,-1.34047 -0.81972,-0.50826 -1.18557,-0.93054 -0.81294,-0.9385 0.37255,-0.007 0.6775,-0.25797 0.6775,-0.55626 0,-0.33606 -2.98084,-0.54217 -7.85857,-0.54217 -4.32224,0 -7.85857,-0.18492 -7.85857,-0.41096 0,-0.22598 1.36851,-4.18907 3.0412,-8.80698 6.28183,-17.34316 5.78792,-15.50146 5.14356,-19.17961 -0.31876,-1.81934 -0.84547,-5.70014 -1.17051,-8.62409 -0.32518,-2.92395 -1.04207,-6.62715 -1.59336,-8.22947 -1.15597,-3.35993 -0.94575,-4.83091 0.9885,-6.91554 0.76149,-0.82077 2.00883,-2.64991 2.77181,-4.06476 1.05677,-1.95967 2.0218,-2.88697 4.05119,-3.8926 2.41882,-1.19862 3.56888,-1.35271 12.49714,-1.67423 11.3833,-0.4097 13.09593,-0.93567 19.25396,-5.91036 1.93754,-1.56531 4.42759,-3.31156 5.53354,-3.88076 2.82779,-1.45518 6.69004,-1.32576 11.11962,0.37257 2.01886,0.77409 5.21482,1.86005 7.10215,2.41324 8.89257,2.60646 12.5754,7.46057 18.0566,23.79947 2.3415,6.97962 2.62956,8.35398 2.62956,12.5469 0,5.31119 -1.55054,15.203 -3.23466,20.63495 -0.62989,2.03118 -2.34074,5.42581 -3.89269,7.72308 l -2.76904,4.09881 -9.54953,0.007 c -5.25221,0.006 -9.91522,0.24454 -10.36236,0.53386 -0.68934,0.44552 -0.66388,0.52684 0.16767,0.53385 0.53963,0.006 0.82383,0.26184 0.6318,0.57229 -0.19142,0.31046 -0.80099,0.42057 -1.35386,0.24516 -0.6754,-0.21446 -1.20035,0.0447 -1.59939,0.79087 -0.32647,0.61068 -1.07324,1.11004 -1.65896,1.11004 -0.58571,0 -1.06483,0.18625 -1.06483,0.4135 0,0.53964 -2.05785,1.64097 -6.92208,3.70549 -1.54628,0.65624 -5.82819,1.43335 -11.23389,2.03878 -0.89424,0.0998 -3.08923,-0.10496 -4.87773,-0.45577 z m 162.06514,-3.78556 c -2.37579,-0.70254 -4.40821,-1.54308 -4.51644,-1.86787 -0.10823,-0.32455 -0.54986,-0.59084 -0.98162,-0.59084 -0.43145,0 -0.92522,-0.36549 -1.0968,-0.81294 -0.17147,-0.44745 -0.62539,-0.81296 -1.00893,-0.81296 -0.38344,0 -0.84317,-0.38087 -1.02197,-0.84682 -0.27268,-0.7113 -1.27421,-0.81974 -6.25686,-0.67751 l -5.93193,0.1697 -0.28551,-1.62593 c -0.15731,-0.89426 -0.44745,-2.96726 -0.64441,-4.60675 -0.19722,-1.63949 -1.39571,-5.54168 -2.6633,-8.67154 -2.64363,-6.52771 -3.2788,-9.87578 -2.45443,-12.93751 0.78224,-2.90486 4.54573,-7.81537 11.39937,-14.8736 4.40307,-4.53456 7.40903,-7.00862 13.27909,-10.92957 8.78494,-5.86798 11.78553,-6.99607 18.69793,-7.02929 3.98541,-0.0202 4.97219,0.17349 7.3166,1.42996 1.49038,0.79869 4.9496,2.57379 7.68714,3.94462 7.7636,3.88773 15.36305,9.93743 18.57549,14.78738 3.32774,5.02394 4.7522,13.95761 3.52696,22.11948 -0.97845,6.51803 -2.42615,10.20655 -5.70741,14.54081 l -2.71071,3.58089 -8.51784,0.007 c -8.06016,0.007 -10.05471,0.29126 -9.89761,1.40719 0.0385,0.26501 -0.44425,0.5614 -1.0708,0.65893 -0.62605,0.0979 -1.27098,0.52236 -1.43273,0.94419 -0.16178,0.42185 -1.42735,1.11187 -2.81225,1.53385 -1.38491,0.42184 -3.42471,1.15555 -4.53294,1.6302 -3.15819,1.35245 -11.55875,1.11817 -16.93777,-0.47241 z M 45.717755,343.26893 c 0.953217,-4.23255 1.648063,-6.43655 4.143432,-13.14279 1.497328,-4.02413 3.383464,-8.29211 4.191389,-9.48444 0.807892,-1.19234 2.266436,-4.11897 3.241182,-6.50362 2.152984,-5.2673 3.137322,-6.39251 7.337523,-8.38821 14.346332,-6.81636 30.188366,-2.44598 36.474859,10.06244 4.86405,9.6782 5.66669,15.32401 3.4025,23.93384 l -1.31837,5.01318 H 74.286192 45.382106 Z m 351.110645,-0.0575 c 1.17336,-2.26889 4.46432,-4.94953 6.15762,-5.01559 2.80921,-0.10947 4.73353,0.16632 6.6203,0.9498 1.89174,0.78538 8.67151,5.01044 8.67151,5.40392 0,0.11391 -5.00592,0.20728 -11.12429,0.20728 h -11.12425 z m -417.274965,-8.58754 c -1.627219,-0.4129 -4.409196,-2.63949 -9.076508,-7.26545 -3.238694,-3.21002 -4.663855,-5.13564 -6.232653,-8.42126 -1.950923,-4.0859 -2.033863,-4.49166 -2.033863,-9.95029 0,-6.74257 0.696272,-8.44167 5.241194,-12.78956 4.839691,-4.62989 9.354678,-6.60139 13.510081,-5.89937 3.119935,0.5268 4.94461,2.59923 6.912271,7.84956 2.4550516,6.55085 3.6061446,8.91632 6.6879625,13.74321 3.5309002,5.53033 5.47883791,9.81851 5.05984361,11.1387 -0.602098,1.89708 -7.64762561,8.00032 -11.20727011,9.70846 -3.475493,1.66778 -6.871334,2.39054 -8.861058,1.886 z M -161.62966,305.77287 v -23.26682 l 1.55037,0.44491 c 2.84593,0.81619 3.76801,1.61701 4.714,4.09401 0.78646,2.05941 0.86351,3.22705 0.47414,7.18729 -0.75395,7.66834 -0.53009,10.25141 1.37259,15.83885 2.29685,6.74481 2.74075,12.50527 1.15729,15.01776 -1.33257,2.11439 -4.74928,3.95115 -7.34991,3.95115 h -1.91848 z m 92.89363,-0.5198 c -1.162543,-0.86105 -3.820898,-3.31529 -5.907492,-5.45381 -3.634335,-3.72479 -9.345125,-8.31671 -12.177917,-9.79207 -0.973953,-0.50697 -4.959457,-0.71438 -14.633171,-0.76053 -14.7696,-0.0706 -17.29702,-0.52105 -22.32754,-3.98245 -3.7556,-2.58392 -9.78025,-8.8338 -11.39669,-11.82279 -1.92158,-3.55317 -4.53252,-11.68548 -5.38983,-16.78756 -0.62553,-3.72264 -0.55754,-4.98411 0.7781,-14.44167 1.40495,-9.94819 1.57445,-10.60309 4.23662,-16.37117 3.05053,-6.60945 4.1195,-8.05625 7.07064,-9.56982 1.09072,-0.55945 3.11567,-1.99722 4.49989,-3.19536 1.38425,-1.19797 2.9818,-2.42706 3.55015,-2.73127 0.56836,-0.30406 5.42045,-1.03833 10.78244,-1.63147 10.330902,-1.14275 15.039702,-0.95552 18.294216,0.72743 0.872587,0.4513 3.307496,1.05889 5.410923,1.35041 4.279129,0.59275 6.047648,1.36711 10.760208,4.70975 5.874411,4.16676 9.469609,10.03647 9.479159,15.47615 0.0027,1.86762 0.591917,4.75459 1.547048,7.58756 0.847963,2.5151 1.715882,5.89783 1.92867,7.51715 0.212842,1.61939 1.316999,4.91184 2.453731,7.31658 2.279625,4.8226 2.636731,6.18754 4.630094,17.69706 1.475461,8.51924 1.742315,14.95445 0.741972,17.89318 -1.101585,3.23616 -7.170772,14.12947 -8.92135,16.01252 -0.92944,0.99981 -2.051312,1.81787 -2.493041,1.81787 -0.441743,0 -1.7543,-0.70458 -2.91683,-1.56569 z m 87.628642,-14.70184 c -2.655749,-0.56331 -5.849837,-2.48976 -8.323288,-5.02002 -2.2555809,-2.30745 -8.1824291,-11.46266 -10.16936489,-15.70865 -1.124366,-2.40269 -3.15927711,-5.14368 -6.40111861,-8.62224 -5.6655445,-6.07931 -7.8711145,-9.1768 -9.6480155,-13.54978 -2.520508,-6.20303 -2.100842,-13.51598 1.142991,-19.91732 1.486609,-2.93373 2.095806,-3.24508 8.6171615,-4.40422 5.27124471,-0.93694 11.6641462,-0.39943 16.6056975,1.39572 6.312509,2.29336 11.122851,4.91063 14.27962,7.7694 2.265543,2.05173 3.673373,2.82942 6.513746,3.59827 3.221422,0.87196 4.037117,0.90282 7.34997,0.2778 8.878709,-1.67526 19.296997,2.27982 22.460145,8.52651 1.738894,3.43396 2.746618,9.98638 2.342265,15.22982 -0.576494,7.47579 -4.331841,16.88517 -7.802883,19.55091 -3.002429,2.30577 -9.888856,6.59607 -12.298056,7.66174 -6.351888,2.80974 -18.876902,4.44065 -24.66887,3.21219 z m 527.688638,-8.31357 c -0.82409,-0.82416 -2.99615,-3.73985 -4.82702,-6.4792 -1.83074,-2.7394 -4.13095,-5.88143 -5.11162,-6.98236 -2.39283,-2.68635 -3.16476,-5.61938 -3.18194,-12.08953 -0.0133,-5.02125 0.10495,-5.63575 1.61164,-8.35852 0.89426,-1.61632 2.73725,-3.81769 4.09542,-4.89187 2.8529,-2.25629 8.43143,-5.29574 8.88581,-4.84131 0.17037,0.17037 0.24579,10.3964 0.16767,22.7252 l -0.14143,22.4161 z m -151.34419,-3.9991 c -8.83771,-3.17028 -15.51258,-10.15816 -17.69733,-18.52716 -1.16481,-4.46224 -1.2618,-13.59351 -0.19768,-18.61519 2.10581,-9.93744 7.81204,-16.09106 14.92124,-16.09106 3.33651,0 6.00613,1.33038 13.71972,6.83707 15.2509,10.88771 15.55713,11.1768 17.48715,16.50329 1.3455,3.71323 1.20954,10.91754 -0.29445,15.59407 -2.11027,6.56311 -5.31933,10.17729 -11.67876,13.15323 -4.69336,2.19625 -11.91336,2.70502 -16.26018,1.14575 z m 78.52907,-23.39145 c -5.98934,-1.53526 -9.64534,-4.82602 -12.8832,-11.59612 -3.10517,-6.49243 -10.06437,-18.24662 -13.12974,-22.17635 -4.29304,-5.50352 -4.91222,-8.51262 -2.70891,-13.16535 1.55746,-3.28893 3.00473,-4.66443 11.71338,-11.13306 13.83412,-10.27554 17.48691,-12.12498 23.84671,-12.07357 3.79535,0.032 7.06158,1.11572 9.08749,3.01906 2.02726,1.90448 2.84469,5.8502 2.72255,13.14196 l -0.10879,6.50362 2.20348,4.87773 c 3.62506,8.02456 4.24547,10.31972 4.24862,15.71716 0.006,4.75444 -0.0576,4.98727 -2.39195,9.21346 -1.31711,2.38465 -3.11897,5.43324 -4.00426,6.7746 -2.31662,3.51017 -7.35295,8.58064 -9.76168,9.82778 -2.36115,1.22251 -6.35109,1.70536 -8.83347,1.06908 z m -270.26056,-2.6318 c -11.43246,-8.78592 -13.96184,-11.91259 -13.92003,-17.20755 0.0295,-3.74241 2.60753,-16.52142 3.90443,-19.35421 1.67155,-3.65113 4.67033,-7.06431 7.83712,-8.92016 4.66263,-2.73248 11.41025,-1.05051 17.29222,4.31052 3.17255,2.89157 4.83533,5.89566 5.38586,9.73024 0.51989,3.62154 0.10992,4.71141 -3.34898,8.90294 -3.45798,4.19035 -4.858,7.01875 -7.84391,15.84622 -1.14967,3.39883 -2.49809,6.63037 -2.99652,7.18105 -1.33474,1.47492 -4.02606,1.26629 -6.31019,-0.48905 z m -74.45783,-2.33759 c -6.32522,-3.13097 -9.86419,-12.76344 -9.23024,-25.12329 0.33958,-6.62161 1.09663,-9.57323 3.71556,-14.48687 5.1283,-9.62173 15.01685,-9.87963 21.44237,-0.55947 3.14991,4.56902 7.04726,11.46528 7.99082,14.13966 2.4747,7.014 -0.52376,17.45073 -6.53338,22.74056 -4.8184,4.24133 -12.5186,5.69819 -17.38513,3.28928 z m 138.57371,-1.65459 c -1.9384,-0.77339 -3.2252,-2.07648 -4.48687,-4.54383 -0.93828,-1.83479 -1.1796,-3.75009 -1.57059,-12.46528 -0.25413,-5.6636 -0.86598,-13.95575 -1.35962,-18.427 -0.51786,-4.69126 -0.72929,-9.02386 -0.49993,-10.24405 0.50507,-2.68487 4.99658,-7.51068 10.14983,-10.90563 4.00012,-2.63531 4.3425,-3.08128 5.26244,-6.85524 0.66862,-2.74294 7.40779,-16.3242 9.30109,-18.74418 1.79482,-2.29413 5.18939,-4.33926 8.39185,-5.05594 5.3488,-1.19702 11.78057,0.83945 18.17736,5.75554 6.42162,4.93506 14.37091,14.68982 17.72285,21.74804 1.74946,3.68393 1.97798,4.6857 2.19819,9.63789 0.39878,8.9725 -0.25862,10.50189 -7.6713,17.84479 -5.94076,5.8847 -6.1476,6.17147 -8.45651,11.72293 -3.47105,8.34596 -5.2881,11.79974 -6.69159,12.71933 -1.49639,0.98056 -13.05991,1.34914 -19.14705,0.61006 -2.12853,-0.25861 -4.49447,-0.31305 -5.25769,-0.12152 -0.76323,0.1914 -2.92395,1.65082 -4.80156,3.24272 -5.37023,4.55325 -7.83701,5.44718 -11.26121,4.08097 z M 58.410029,204.45558 c -1.639475,-0.56202 -5.663603,-2.3038 -8.942517,-3.87023 -5.087112,-2.4303 -6.62492,-3.49335 -10.483009,-7.24657 -2.486749,-2.41914 -4.918403,-5.13004 -5.403708,-6.02429 -1.369167,-2.52293 -1.627893,-18.74124 -0.372923,-23.37745 1.045405,-3.86205 3.96324,-8.37228 8.417112,-13.0108 3.840357,-3.99947 6.861037,-5.88424 12.067199,-7.52916 7.084751,-2.23851 10.907691,-2.61439 16.725698,-1.64448 2.7853,0.46409 7.343342,1.09435 10.129004,1.39994 5.986262,0.65671 15.46484,2.79702 19.441722,4.39002 3.483423,1.39534 6.880603,4.94014 7.813493,8.15305 0.37568,1.29387 0.66178,4.54748 0.63581,7.23024 -0.0852,8.81754 -3.05979,15.16376 -10.693652,22.81591 -5.337678,5.35046 -16.418177,13.08465 -24.527271,17.11998 -5.485914,2.72995 -10.058721,3.22219 -14.806958,1.59384 z m 342.960091,-3.53737 c -3.95793,-1.06549 -6.65005,-3.18805 -9.49453,-7.4859 -1.42619,-2.15484 -3.84008,-4.90071 -5.36422,-6.10181 -6.21564,-4.89861 -13.74329,-10.00807 -17.9432,-12.17924 -5.01315,-2.59152 -7.95005,-5.46061 -8.79257,-8.5896 -0.52939,-1.96684 -1.22929,-3.06418 -4.97362,-7.80077 -0.7812,-0.98822 -2.58111,-5.19593 -3.99979,-9.35058 -2.3865,-6.98871 -2.55743,-7.84015 -2.28493,-11.38136 0.31813,-4.13551 2.93823,-13.01105 5.12931,-17.37674 0.74805,-1.49046 3.46272,-5.00902 6.0327,-7.81902 3.84404,-4.20317 5.24923,-5.35283 7.92444,-6.48316 1.7885,-0.75566 6.30039,-2.9297 10.02642,-4.83119 l 6.7746,-3.45723 8.40056,0.263091 c 9.9411,0.311097 11.65695,0.772306 17.92084,4.815639 4.07527,2.63057 4.78613,3.33048 5.81726,5.72742 0.64605,1.50179 1.55233,5.24471 2.01386,8.31755 1.02906,6.85167 2.09641,10.65239 4.12848,14.7018 1.77281,3.53276 2.87694,4.41229 6.70252,5.33906 4.61449,1.11791 10.57309,4.24497 13.31682,6.98872 2.06177,2.06177 2.68884,3.14875 3.2417,5.61951 1.31353,5.86945 -0.60938,9.009 -8.34822,13.62735 -8.51244,5.08032 -9.60007,6.55688 -11.97,16.25026 -1.87696,7.67684 -3.9461,11.50246 -8.97648,16.59674 -3.31673,3.35894 -4.53303,4.23173 -6.60824,4.74229 -3.16975,0.77973 -5.41153,0.74541 -8.67371,-0.13326 z M 534.8013,200.6532 c -1.04327,-0.22097 -2.50661,-0.72942 -3.25182,-1.13025 -2.80938,-1.51122 -12.68836,-11.48726 -15.39211,-15.54332 -1.5201,-2.28042 -3.37589,-4.60081 -4.12393,-5.15638 -0.8285,-0.61514 -3.34035,-1.30577 -6.42644,-1.76685 -6.03314,-0.90123 -8.1732,-2.29875 -10.51583,-6.86691 -2.77801,-5.41696 -2.90464,-11.83585 -0.338,-17.1374 1.85527,-3.83241 6.73081,-8.47726 10.05342,-9.57762 1.53682,-0.5089 4.09762,-1.84976 5.69069,-2.97958 1.59308,-1.12975 4.35974,-2.82883 6.14825,-3.77557 1.78849,-0.94674 4.71512,-2.84002 6.50362,-4.20719 6.08244,-4.64959 8.09052,-5.29547 17.20757,-5.53507 l 7.99402,-0.20997 v 36.59895 36.59896 l -1.49039,0.2855 c -2.89745,0.55562 -10.18689,0.79874 -12.05888,0.40263 z m -696.4114,-33.65952 c 0.0135,-26.24895 0.0942,-28.89272 0.85168,-27.91147 1.95495,2.53244 3.46236,5.66079 4.43954,9.21352 0.57392,2.08654 1.61349,5.68307 2.31016,7.99225 1.23772,4.10253 1.25138,4.38457 0.5971,12.33603 -0.36826,4.47559 -0.92678,9.53705 -1.24118,11.24765 -0.75097,4.08602 -3.30603,10.62588 -5.344,13.6785 l -1.62823,2.43886 z m 141.083621,25.75933 c -2.974124,-0.9018 -6.886381,-3.7614 -8.467822,-6.18946 -0.70065,-1.07573 -1.954541,-3.90699 -2.786411,-6.29164 -2.178359,-6.2445 -5.436366,-12.25179 -9.893109,-18.24128 -4.940441,-6.63954 -5.654707,-8.05331 -6.001608,-11.87906 -0.443158,-4.88708 1.008485,-7.31684 6.823631,-11.42143 2.578462,-1.81993 6.395323,-4.95063 8.481906,-6.95703 4.547623,-4.37293 11.129589,-8.78196 14.532141,-9.73465 3.804604,-1.06523 9.9062715,-0.56459 13.1323065,1.07777 4.07812921,2.07604 4.63288121,3.62834 5.09172561,14.2475 0.3404149,7.87869 0.5298995,9.12001 1.87508949,12.28688 3.0809,7.25315 4.6615344,12.84885 4.6615344,16.50259 0,3.28593 -0.2497042,4.01504 -3.6583036,10.68152 -4.7827396,9.35404 -6.8839169,11.56522 -13.4137344,14.11563 -6.138855,2.39773 -7.585996,2.6491 -10.377346,1.80266 z M 199.9236,181.27986 c -1.01055,-0.52042 -2.68872,-2.13096 -3.72925,-3.57931 -1.30369,-1.81462 -2.83879,-3.11182 -4.93726,-4.172 -1.67495,-0.84623 -3.44872,-1.99212 -3.94173,-2.54632 -0.49303,-0.55436 -2.2463,-3.83504 -3.8962,-7.29067 -3.29034,-6.89143 -5.12992,-8.97477 -9.81584,-11.1163 -2.84942,-1.30214 -10.85524,-2.92465 -14.43126,-2.92465 -3.8147,0 -7.68377,-1.14108 -9.27944,-2.73671 -1.40533,-1.40532 -1.51566,-1.82928 -1.51566,-5.82357 0,-4.49737 1.5453,-11.68087 3.79159,-17.62607 2.11498,-5.59748 10.96444,-13.63747 16.53227,-15.02 5.80298,-1.44092 6.49835,-1.78217 9.21794,-4.52355 1.75779,-1.77192 3.67118,-3.10312 5.17203,-3.59844 1.31017,-0.432088 4.05323,-2.052235 6.09569,-3.599602 2.54369,-1.927105 4.42635,-2.921648 5.97617,-3.157002 1.2444,-0.188969 5.06728,-0.807706 8.49525,-1.374944 7.11334,-1.177075 9.14462,-0.942329 12.56596,1.452195 1.21005,0.846873 3.35245,2.271404 4.76095,3.165657 3.66863,2.329208 4.17209,2.808339 7.39351,7.036086 1.59389,2.09186 4.13225,5.26667 5.64079,7.05517 3.32773,3.94532 8.61678,11.59465 10.26348,14.84358 0.77767,1.53438 1.36359,4.03444 1.6511,7.04557 0.24517,2.56708 0.71079,5.35391 1.03468,6.19305 1.30093,3.36979 0.4308,8.08402 -3.20653,17.37731 -3.01666,7.70695 -6.57552,13.53601 -10.79427,17.67991 -6.33285,6.22056 -9.48063,7.2689 -23.61901,7.86607 -6.56896,0.27717 -7.83425,0.19331 -9.42496,-0.6254 z m -306.22312,-29.05539 c -3.86497,-0.55626 -7.1548,-2.07214 -8.65326,-3.98737 -0.67443,-0.86199 -2.22678,-3.27448 -3.44967,-5.36109 -1.2229,-2.0866 -3.73402,-5.86684 -5.58028,-8.4005 -1.84624,-2.53373 -4.50685,-6.64511 -5.91244,-9.13633 -1.40562,-2.49129 -4.32856,-7.13505 -6.49546,-10.31959 -4.47759,-6.58032 -5.92825,-10.27287 -5.89148,-14.99626 0.0327,-4.188824 1.4674,-7.486372 4.81419,-11.064359 3.45269,-3.691196 6.55158,-4.62569 13.61908,-4.106902 7.28334,0.534628 9.63914,1.425582 17.19393,6.502648 3.70881,2.492456 7.947292,4.931645 9.418872,5.420375 1.47156,0.489055 5.937436,1.112278 9.924181,1.38561 11.876371,0.814171 18.151105,2.932398 22.304457,7.529688 2.640787,2.92299 3.071072,4.92817 3.159258,14.72152 0.06523,7.24662 -0.07337,8.75788 -1.030152,11.23516 -4.023241,10.41618 -12.826846,16.71337 -27.150651,19.42083 -6.354853,1.20119 -12.784825,1.65824 -16.270575,1.15657 z m 382.31033,-21.80861 c -3.12851,-1.09711 -5.86605,-4.42241 -7.24573,-8.80136 -1.40308,-4.45332 -2.34748,-12.44223 -1.90741,-16.13439 1.36392,-11.442489 7.75162,-25.282123 14.30191,-30.986848 3.59996,-3.135278 5.16686,-3.641338 11.98005,-3.869284 10.03546,-0.335746 15.1481,1.300437 22.16403,7.093213 6.46735,5.339854 12.71672,15.339687 13.34537,21.354405 0.71905,6.879454 -2.4407,16.255504 -8.19616,24.321104 -6.15874,8.63063 -11.42643,9.90057 -19.90735,4.79925 -2.50696,-1.508 -4.59023,-2.37319 -5.72817,-2.37896 -1.99157,-0.0128 -4.39169,1.05902 -5.56773,2.47997 -2.19752,2.65522 -8.73248,3.70316 -13.23881,2.1229 z m 204.86453,-21.45611 c -2.19229,-0.65715 -6.41344,-3.91448 -14.43643,-11.140105 -3.68516,-3.319031 -8.77342,-7.692264 -11.30715,-9.71832 -14.12846,-11.297761 -14.8719,-12.148603 -16.52921,-18.918972 -0.50891,-2.078756 -1.35452,-4.883449 -1.87927,-6.232653 -1.47547,-3.793903 -1.71106,-6.019927 -1.09608,-10.356307 0.38726,-2.73083 1.22217,-5.292028 2.63205,-8.074534 1.13562,-2.241301 2.60553,-5.441462 3.26647,-7.111457 3.02993,-7.655764 12.89057,-13.737961 23.38055,-14.421574 5.86033,-0.381895 11.26072,0.670382 20.48955,3.992471 7.82542,2.816939 12.78513,4.394287 20.13912,6.404908 10.78335,2.948215 16.65967,6.974509 18.89363,12.945288 1.31578,3.516739 3.02547,15.49875 2.56105,17.948324 -0.54536,2.877047 -10.18044,21.301281 -12.7607,24.401468 -2.76928,3.327184 -15.87051,15.294783 -19.2341,17.569653 -4.52143,3.05799 -9.66744,4.04633 -14.11948,2.71181 z M 28.059711,101.08836 C 21.020384,99.229833 19.01142,97.914894 14.673869,92.32701 12.653665,89.724455 10.510065,87.079236 9.9102936,86.448744 8.1886447,84.638903 2.0361122,80.078399 -0.93565059,78.409334 -5.0652925,76.089923 -7.5967935,73.37757 -9.9239654,68.778923 -13.413384,61.883513 -14.904046,56.074936 -14.970199,49.115274 c -0.05372,-5.671427 0.0282,-6.133167 1.681265,-9.484473 3.5802636,-7.257263 8.2371865,-14.98038 10.3879275,-17.227553 4.3281484,-4.522229 11.6939443,-6.95569 19.5793635,-6.468532 5.988615,0.369992 19.9903,4.391498 27.050424,7.769311 4.089009,1.956339 5.889954,2.517464 8.448585,2.632393 1.788501,0.08029 3.562135,0.177751 3.941396,0.216548 0.379249,0.03904 1.720614,1.004779 2.980828,2.14666 1.260191,1.141881 4.364298,3.319139 6.89799,4.838386 2.533725,1.519218 5.386902,3.572575 6.340386,4.562972 2.535058,2.633197 4.091563,6.582715 4.385866,11.128704 0.216258,3.341513 0.04745,4.402487 -1.165744,7.316591 -0.780269,1.87459 -1.677547,4.627778 -1.993869,6.118193 -0.316356,1.490419 -1.941121,5.148713 -3.610579,8.129543 -1.669493,2.980835 -3.648031,6.517188 -4.396768,7.858561 -2.214004,3.966374 -7.15596,10.313645 -11.000095,14.128079 -3.989953,3.959164 -10.175012,7.525413 -15.421453,8.891943 -4.129662,1.07566 -4.953348,1.03219 -11.075613,-0.58443 z M 136.99561,94.395865 c -1.04328,-0.205871 -2.73831,-0.815245 -3.76669,-1.354145 -3.88461,-2.035626 -13.77656,-9.301525 -15.81306,-11.615141 -4.12648,-4.687918 -5.27326,-13.749088 -2.49927,-19.747776 1.89729,-4.102827 7.20714,-9.414979 11.5106,-11.515587 5.35507,-2.613898 13.82652,-2.507863 16.96291,0.212318 2.02371,1.755148 2.33868,3.582504 1.96968,11.427239 -0.33677,7.158863 -0.29836,7.532515 1.36793,13.32703 2.17491,7.56314 2.67818,12.932394 1.43713,15.332321 -1.52045,2.940258 -6.79321,4.797281 -11.16923,3.933732 z M -65.430294,63.810267 c -3.024931,-1.318324 -11.734815,-11.685642 -14.14131,-16.832304 -2.610027,-5.58195 -2.103949,-11.476885 1.500453,-17.47754 3.292983,-5.482224 8.231537,-8.805193 13.743694,-9.247646 5.809354,-0.466327 7.96844,1.663544 10.853366,10.706509 1.787027,5.601512 4.219508,10.511383 7.483219,15.10459 2.910095,4.095549 3.491651,6.094328 2.301609,7.91056 -0.961464,1.467381 -10.332517,8.051685 -13.611233,9.563522 -2.528776,1.166048 -5.825694,1.276474 -8.129798,0.272309 z M 374.10737,58.065306 c -3.06921,-1.224548 -5.65999,-3.45767 -7.62766,-6.574599 -2.01926,-3.198742 -4.4336,-10.963537 -5.64982,-18.170736 -0.95885,-5.681823 -1.2569,-6.568607 -2.57495,-7.662281 C 347.68966,16.891328 346.712,9.6281753 354.95773,1.1628613 c 3.91793,-4.0222732 7.70015,-5.6706262 12.07434,-5.2621502 9.4969,0.886828 20.57573,8.1072562 26.69758,17.3995289 2.87528,4.364431 7.36387,13.513452 8.55309,17.433692 1.53757,5.068463 0.71861,10.78533 -2.44182,17.046193 -2.30473,4.565573 -4.94473,7.270949 -9.08364,9.308513 -3.14077,1.546208 -4.16501,1.769162 -8.74859,1.904516 -4.17475,0.123282 -5.72225,-0.05825 -7.90132,-0.927848 z M 223.16879,56.938087 C 214.1846,55.90647 207.26731,51.542024 203.42363,44.47994 c -5.31238,-9.760625 -3.12581,-31.924771 3.65421,-37.0404238 3.39448,-2.5612279 9.61667,-3.2317819 15.04415,-1.6212869 3.43365,1.018888 4.53998,1.7442089 11.03143,7.2323307 13.19342,11.154245 14.58087,13.187171 14.62626,21.431525 0.0641,11.084929 -5.07381,19.33897 -13.46906,21.650992 -3.48863,0.960728 -7.3536,1.23998 -11.14183,0.80501 z m 67.71454,-14.569376 c -2.75053,-0.834629 -3.78303,-1.756301 -8.68796,-7.755176 -3.40149,-4.160124 -5.66149,-7.554568 -7.12406,-10.699858 -1.17808,-2.533703 -3.61348,-7.750265 -5.41197,-11.592337 -3.5654,-7.6168407 -4.50038,-12.20494871 -3.151,-15.4626279 0.83786,-2.022784 1.97279,-2.765975 7.83093,-5.128171 5.46465,-2.2035291 10.35417,-5.5319491 16.03378,-10.9145911 6.47065,-6.132351 13.12242,-8.67862 18.5498,-7.10083 3.5411,1.029418 8.25222,5.068125 10.27506,8.808462 4.72595,8.7387181 5.83926,23.7146433 2.30065,30.947294 -0.81314,1.661966 -3.59689,5.234038 -6.49472,8.333763 -4.92325,5.266389 -6.53399,7.809867 -8.60913,13.594593 -0.50187,1.398673 -1.3908,3.151404 -1.97567,3.894954 -2.11362,2.687002 -9.3763,4.336658 -13.53571,3.074525 z m -435.98292,-1.055465 c -4.53962,-1.655656 -10.82636,-5.770318 -14.63405,-9.578011 l -1.90517,-1.905174 0.14005,-29.88583171 0.14005,-29.88584829 3.05005,-1.782129 c 1.67753,-0.980188 4.29492,-3.219115 5.81642,-4.975404 2.2352,-2.580113 3.26253,-3.325305 5.35048,-3.881025 1.42127,-0.378248 4.16937,-1.558907 6.10691,-2.623661 3.15579,-1.734198 3.91806,-1.928778 7.31658,-1.867688 6.52349,0.11721 14.38023,3.200191 23.46594,9.207923 5.52853,3.65564 9.0324,7.104955 12.623992,12.427469 5.137752,7.613824 5.43151,8.917042 3.96284,17.5814761 -1.86053,10.9762372 -7.077102,23.7967629 -11.075162,27.2189609 -2.31988,1.985729 -4.22325,2.691105 -9.8764,3.660076 -4.48802,0.769272 -6.55128,2.103197 -9.20336,5.950084 -4.07056,5.904398 -4.73314,6.50943 -9.81856,8.965954 -5.5178,2.665375 -7.32351,2.881673 -11.46065,1.372829 z M 130.38549,22.312734 c -1.58938,-0.497757 -9.87525,-5.082724 -14.32156,-7.924795 -5.82552,-3.72365 -8.42293,-8.6543227 -9.45563,-17.9494569 -0.41241,-3.712321 -1.16318,-6.7841221 -2.49082,-10.1916881 -4.750569,-12.192805 -4.622127,-11.743633 -4.418894,-15.456446 0.260274,-4.754631 2.069024,-8.296507 7.629684,-14.940291 7.21651,-8.622113 12.69553,-12.486483 23.44942,-16.538923 7.22476,-2.72256 12.92039,-3.87731 16.0897,-3.26207 1.27739,0.24798 3.59484,1.31775 5.14987,2.3773 1.55503,1.05955 4.07524,2.19407 5.60045,2.52117 2.44203,0.52375 3.46989,1.24856 8.60807,6.07023 4.48541,4.20909 6.5931,6.69023 9.11294,10.727507 1.80289,2.8886 3.53949,6.199104 3.85911,7.356649 0.7776,2.816074 0.0539,7.70547 -2.60794,17.622073 -2.79175,10.4003431 -4.02951,13.5678391 -6.5456,16.75093829 -2.19042,2.77109201 -3.60493,3.47600801 -8.22813,4.10040901 -4.98731,0.673586 -10.42077,4.4521799 -14.53411,10.1074807 -2.88606,3.968011 -4.49838,5.297427 -8.76878,7.230334 -3.43601,1.555211 -6.14261,2.021273 -8.12778,1.399579 z m 416.48523,-3.090238 c -0.9648,-0.390346 -2.73013,-6.840013 -3.1662,-11.5679058 -0.20617,-2.2356249 -0.82029,-5.2842019 -1.36477,-6.77461691 -3.21065,-8.78908819 -2.15679,-17.79889429 2.56702,-21.94646729 3.58075,-3.143899 3.44377,-3.91961 3.44377,19.5076033 0,11.6252497 -0.18312,21.1175597 -0.40645,21.0940357 -0.22344,-0.02368 -0.70658,-0.164325 -1.07337,-0.312636 z M 59.764928,-9.3892679 C 56.072487,-10.122028 49.7075,-11.973476 44.950508,-13.698503 c -1.292023,-0.468505 -3.869885,-1.11669 -5.728567,-1.440382 -2.968517,-0.516962 -3.784637,-0.45199 -6.711781,0.534054 -5.675936,1.912107 -8.043093,1.379387 -11.659939,-2.624044 -3.24128,-3.587671 -5.503329,-10.303571 -6.131243,-18.203137 -0.448478,-5.642154 1.722257,-17.324784 4.143143,-22.297934 2.868381,-5.89243 7.996281,-9.33298 15.70124,-10.53468 4.332401,-0.6757 12.921355,-0.3593 16.366117,0.60286 2.927661,0.81779 7.112995,3.83688 14.451343,10.42452 8.88455,7.97569 10.819705,10.68036 13.590409,18.994492 2.652125,7.95835 3.091093,10.990991 2.207123,15.249041 -1.357305,6.538053 -4.321029,11.012043 -8.527399,12.872742 -3.065017,1.3558221 -8.255657,1.6505531 -12.886026,0.7316781 z M -55.945578,-18.119616 c -7.291622,-2.026038 -11.281181,-4.663907 -15.005956,-9.92182 -1.401396,-1.978227 -5.375228,-6.523404 -8.830697,-10.100402 -4.02767,-4.169304 -6.739302,-7.476268 -7.554797,-9.213478 -1.776403,-3.78414 -3.706674,-9.58565 -4.100756,-12.32497 -0.628399,-4.36829 3.253459,-15.72418 7.098327,-20.76506 0.805759,-1.0564 2.463375,-2.5002 3.683584,-3.20842 3.507879,-2.03605 5.471698,-2.15084 9.931453,-0.58052 2.155504,0.75897 4.655789,1.37995 5.556216,1.37995 0.900386,0 3.648701,0.69496 6.107327,1.54436 2.458625,0.8494 5.445772,1.72117 6.638109,1.93727 3.253268,0.58962 6.184368,2.53549 10.147622,6.73673 4.259478,4.51528 6.826309,8.92714 9.03397,15.52756 2.652437,7.93021 3.438403,13.649189 2.755561,20.050508 -0.769096,7.209875 -2.228752,10.239787 -6.672572,13.850713 -6.669164,5.419187 -12.20183,6.91741 -18.787391,5.087579 z M 479.52038,-19.07987 c -6.16698,-1.440876 -9.80012,-4.272786 -13.48471,-10.510821 -3.143,-5.321107 -4.94081,-11.120487 -4.94867,-15.963295 -0.0133,-6.61851 -2.5891,-13.84522 -6.24368,-17.49977 -1.84803,-1.84805 -3.65958,-2.64879 -10.41377,-4.6031 -5.15348,-1.49115 -7.43904,-3.47965 -8.60348,-7.48504 -1.7695,-6.08675 0.26885,-12.61345 5.60228,-17.936337 4.35047,-4.34204 7.44212,-6.031 12.11358,-6.61758 2.10825,-0.26467 5.41865,-0.970977 7.35643,-1.569507 2.84431,-0.87852 3.9598,-0.98485 5.78842,-0.55184 1.24587,0.29503 4.72988,0.78174 7.74215,1.08166 9.6134,0.957077 19.47627,4.693487 23.70428,8.979974 2.24304,2.27415 2.83599,3.68296 4.63454,11.0129 0.89067,3.62975 2.14282,7.44637 2.78242,8.48137 1.32613,2.14563 4.01395,3.84676 9.46925,5.99303 4.93315,1.94086 7.12647,3.33804 9.68401,6.16895 2.61413,2.89352 4.23434,6.48937 4.24075,9.41189 0.007,4.08185 -1.6167,14.276039 -2.57322,16.137026 -1.48309,2.885245 -4.85963,7.652564 -6.55242,9.251236 -2.25976,2.134262 -5.84405,3.525246 -10.76077,4.176044 -19.03073,2.519046 -25.56589,2.971112 -29.53739,2.04321 z M 223.6,-28.844482 c -1.10422,-0.413647 -3.17804,-1.503121 -4.6085,-2.421047 -1.43047,-0.91793 -4.06338,-2.314381 -5.85093,-3.103234 -4.41794,-1.949651 -7.19526,-4.344788 -11.14903,-9.614813 -4.2822,-5.70778 -7.00517,-11.26767 -7.00517,-14.30338 0,-1.25987 -0.58513,-4.19338 -1.30032,-6.51892 -2.64459,-8.59928 -2.29556,-16.74377 0.90871,-21.20514 1.00101,-1.39371 2.51107,-4.36314 3.35572,-6.598767 2.0373,-5.39226 3.22314,-6.97169 6.19942,-8.257187 1.36884,-0.59121 3.73929,-1.92179 5.26767,-2.95682 2.09902,-1.42146 3.63293,-1.98778 6.26989,-2.3148 6.00161,-0.7443 6.4386,-1.13624 13.61584,-12.21236 1.54438,-2.38335 3.64003,-4.88546 4.65698,-5.56021 3.76771,-2.49992 11.22041,-3.92232 15.08823,-2.87969 1.97941,0.53361 2.69108,1.17181 5.05077,4.5293 1.5107,2.14952 4.01023,6.43607 5.55451,9.52564 3.16933,6.34067 3.51414,6.74257 8.76948,10.21989 2.75412,1.82236 4.95039,2.780867 8.01446,3.497777 10.11699,2.36714 13.02591,5.62352 14.49146,16.222547 1.1314,8.18213 -0.29704,15.79445 -3.66235,19.51965 -2.37491,2.62877 -3.96938,3.50193 -7.3094,4.00279 -2.85944,0.42882 -3.3977,0.7854 -5.47639,3.62777 -0.91254,1.24786 -2.91458,2.76746 -5.29187,4.0167 -4.59813,2.41624 -8.57281,5.87509 -10.46855,9.109918 -1.72378,2.941403 -8.18644,8.913213 -11.73732,10.845842 -4.22691,2.300578 -19.77286,4.181074 -23.38331,2.828544 z m 152.66698,-4.077069 c -1.19683,-0.543719 -4.18579,-2.248056 -6.6421,-3.787454 -7.0465,-4.416173 -9.69109,-5.14956 -16.21488,-4.496685 -3.72782,0.373061 -6.53533,0.01921 -12.82218,-1.617345 -2.68799,-0.699576 -6.24605,-3.996851 -8.2132,-7.611171 -1.60633,-2.95134 -1.81122,-4.30875 -2.76706,-18.32891 -0.28807,-4.22457 -0.18379,-5.53783 0.58188,-7.31659 0.51339,-1.19233 1.25017,-4.4848 1.63768,-7.31659 0.94699,-6.91934 2.39098,-10.472857 5.72033,-14.076897 1.50722,-1.6316 3.39047,-3.994067 4.18498,-5.249927 2.06805,-3.26884 4.85269,-4.65888 9.9208,-4.95227 5.17005,-0.29926 7.30453,0.37543 10.64733,3.36584 4.05506,3.62757 4.09088,3.63652 13.84896,3.45914 11.34936,-0.20632 11.27919,-0.24261 15.39744,7.969657 1.64425,3.278897 3.71328,8.520057 4.59772,11.646977 1.84323,6.51683 3.05639,8.36927 7.42362,11.33494 8.11145,5.5084 10.07173,13.42831 4.59582,18.5682 -2.21635,2.08037 -14.20034,9.884458 -17.77661,11.576306 -2.19467,1.038258 -3.64583,2.240585 -5.21894,4.324187 -1.1984,1.587328 -2.55126,3.028915 -3.00626,3.203514 -1.48662,0.570476 -3.67891,0.31206 -5.89553,-0.694922 z M 88.218343,-89.916906 c -4.232128,-0.88917 -8.97884,-3.630557 -12.920394,-7.461927 -5.753972,-5.593147 -7.058597,-9.044817 -8.235084,-21.787457 -0.34399,-3.72604 -0.968273,-8.60377 -1.387244,-10.83938 -1.059829,-5.6552 -0.960794,-7.96347 0.550939,-12.83831 0.722086,-2.32856 1.458396,-4.90444 1.636243,-5.72417 l 0.323338,-1.49041 h 12.404127 12.404115 l 1.905319,2.65209 c 1.45921,2.03107 3.547177,3.68646 8.917208,7.06976 3.85653,2.42974 8.61526,5.74025 10.57499,7.35672 4.16607,3.43639 4.35372,4.05057 4.38605,14.35567 0.0157,4.94567 -0.2286,7.03566 -1.18214,10.12148 -2.3009,7.44611 -9.25658,15.906797 -14.61193,17.773484 -3.075532,1.07202 -11.360337,1.52789 -14.765537,0.81245 z M 546.4537,-92.832883 c -3.86316,-1.71698 -5.0226,-4.1774 -7.32467,-15.543247 -1.92927,-9.52544 -2.76955,-11.72376 -6.21035,-16.24813 -3.2769,-4.30888 -8.33733,-12.17091 -9.56853,-14.86589 -0.68243,-1.49398 -0.99404,-3.47354 -1.00225,-6.36813 l -0.0133,-4.20028 h 13.00727 13.00727 v 28.99537 c 0,15.94746 -0.0641,28.985824 -0.13562,28.974154 -0.075,-0.012 -0.86718,-0.346427 -1.76143,-0.743847 z m -708.08336,-24.575557 c 0,-16.2197 0.17775,-23.43664 0.57733,-23.43664 0.3175,0 1.86552,1.28821 3.44002,2.86271 3.40886,3.40887 4.37542,5.92978 5.24027,13.66737 0.97848,8.75412 0.62636,10.34711 -4.64373,21.0089 l -4.61387,9.334287 z m 320.50952,21.852187 c -2.85685,-1.24337 -4.39466,-4.00136 -7.45605,-13.372187 -1.5961,-4.88561 -3.91014,-11.1101 -5.14231,-13.83225 -1.23215,-2.72209 -2.24029,-5.42019 -2.24029,-5.99575 0,-1.5561 2.40492,-3.51201 7.85856,-6.3913 2.68275,-1.41639 5.79472,-3.06051 6.9155,-3.65362 4.29547,-2.27313 8.17281,0.079 14.25133,8.64562 6.3684,8.97507 7.5097,11.49089 7.44389,16.40914 -0.067,5.00091 -0.93223,8.9473 -2.44978,11.17291 -1.6036,2.35176 -5.50693,4.883837 -9.93985,6.447957 -4.22673,1.49138 -6.76361,1.64772 -9.241,0.56947 z M -23.15641,-109.12891 c -4.576005,-1.64539 -5.763315,-5.06948 -5.551229,-16.00912 0.129177,-6.66414 0.100696,-6.84707 -1.605836,-10.29742 -0.955555,-1.932 -3.236007,-5.34187 -5.067676,-7.5775 -1.831665,-2.23561 -3.810178,-4.73547 -4.396694,-5.5552 l -1.066391,-1.49041 H 1.7372905 c 26.1241835,0 42.5815215,0.19634 42.5815215,0.50794 0,0.84829 -6.477679,15.18962 -7.824482,17.32308 -1.8838,2.98416 -7.241145,7.64454 -10.514819,9.1469 -3.393624,1.55743 -4.408495,1.47458 -12.322057,-1.00612 -7.2849333,-2.28359 -11.7062998,-2.38229 -14.8067661,-0.33047 -1.2277718,0.81249 -3.6075084,3.36286 -5.2883044,5.66747 -1.6807929,2.30462 -3.8132005,5.00426 -4.7386795,5.99915 -3.298009,3.54535 -8.130026,5.00612 -11.980114,3.62173 z m -57.177787,-8.58585 c -4.35783,-1.01144 -6.33875,-2.13098 -10.855156,-6.1349 -2.650515,-2.34975 -5.593365,-4.31359 -8.520255,-5.68574 -2.459202,-1.15292 -6.483322,-3.03233 -8.942512,-4.17651 -7.1551,-3.32904 -12.17339,-8.77713 -13.70474,-14.87848 l -0.36852,-1.46817 h 29.112122 c 27.503689,0 29.091928,0.0525 28.746801,0.94845 -0.200956,0.52164 0.06403,5.41491 0.588648,10.8739 0.7653,7.96279 0.831063,10.51134 0.332481,12.88828 -0.765913,3.65155 -2.419181,6.06127 -4.857531,7.08008 -2.64056,1.10331 -8.044028,1.36245 -11.531338,0.55306 z m 510.696967,-11.75379 c -4.76033,-2.37875 -12.19862,-10.24467 -15.24251,-16.11875 l -2.31692,-4.47126 h 19.79575 19.79577 l -0.32199,1.76141 c -0.6599,3.61023 -3.03091,9.97647 -4.67097,12.54167 -4.953,7.74714 -10.22467,9.69221 -17.0392,6.28693 z m -101.23889,-6.86116 c -3.62417,-0.7912 -14.48548,-4.30369 -16.59122,-5.36549 -2.14448,-1.08135 -4.07145,-2.99368 -7.47172,-7.41491 -0.69279,-0.9008 0.84588,-0.94747 30.63573,-0.92868 l 31.36505,0.0199 -3.02651,2.85395 c -2.97653,2.80685 -9.5483,6.61147 -13.74096,7.95519 -1.17379,0.37619 -3.73459,0.73087 -5.6907,0.78814 -2.0965,0.0615 -4.82996,0.58647 -6.65916,1.27926 -2.86806,1.08625 -6.17296,1.39078 -8.82051,0.81277 z"
       id="path845" />
  </g>
</svg>
