<?xml version="1.0" encoding="UTF-8" standalone="no"?>
<!-- Created with Inkscape (http://www.inkscape.org/) -->

<svg
   version="1.1"
   id="svg2"
   width="323.51999"
   height="204.16"
   viewBox="0 0 323.51999 204.16"
   sodipodi:docname="billease.png"
   inkscape:version="1.1.2 (0a00cf5339, 2022-02-04)"
   xmlns:inkscape="http://www.inkscape.org/namespaces/inkscape"
   xmlns:sodipodi="http://sodipodi.sourceforge.net/DTD/sodipodi-0.dtd"
   xmlns="http://www.w3.org/2000/svg"
   xmlns:svg="http://www.w3.org/2000/svg">
  <defs
     id="defs6" />
  <sodipodi:namedview
     id="namedview4"
     pagecolor="#ffffff"
     bordercolor="#666666"
     borderopacity="1.0"
     inkscape:pageshadow="2"
     inkscape:pageopacity="0.0"
     inkscape:pagecheckerboard="0"
     showgrid="false"
     inkscape:zoom="2.5790864"
     inkscape:cx="161.87903"
     inkscape:cy="102.74956"
     inkscape:window-width="1920"
     inkscape:window-height="947"
     inkscape:window-x="0"
     inkscape:window-y="0"
     inkscape:window-maximized="1"
     inkscape:current-layer="g8" />
  <g
     inkscape:groupmode="layer"
     inkscape:label="Image"
     id="g8">
    <path
       style="fill:#f83f40;stroke-width:0.32;fill-opacity:1"
       d="m 146.72,127.36832 c -6.09831,-1.52817 -9.79044,-5.1056 -11.89795,-11.52832 -0.90145,-2.74717 -0.80635,-11.19291 0.15999,-14.20966 2.39872,-7.488407 7.96512,-11.354228 16.37796,-11.374369 5.0443,-0.01206 8.68165,1.333309 11.66692,4.315367 2.81145,2.808422 4.55505,7.646762 4.72399,13.108662 l 0.0891,2.88 -12.79999,0.16 -12.8,0.16 0.10806,1.41785 c 0.25111,3.29446 2.3661,6.41629 5.28243,7.79711 3.41077,1.61492 8.6233,1.46631 14.20914,-0.40512 1.59212,-0.53341 2.9864,-0.96984 3.09839,-0.96984 0.112,0 0.16276,1.54718 0.1128,3.43818 l -0.0908,3.43818 -1.92,0.68369 c -4.69695,1.67254 -12.03559,2.1619 -16.31999,1.08827 z m 12.96,-23.19714 c 0,-1.21516 -0.94179,-3.71 -1.84999,-4.900713 -0.44997,-0.589936 -1.38258,-1.360579 -2.07249,-1.712541 -1.62414,-0.828579 -5.00048,-1.104329 -7.40539,-0.604806 -2.49615,0.518477 -4.56746,2.497571 -5.39518,5.155 -0.97032,3.11525 -1.71679,2.85188 8.08305,2.85188 h 8.64 z m 23.03999,23.2288 c -3.18142,-0.77958 -4.54729,-1.41334 -6.13249,-2.84547 -2.45013,-2.21355 -3.47114,-4.65905 -3.46371,-8.29621 0.007,-3.45237 1.04177,-6.18549 3.08983,-8.16158 4.05316,-3.91071 13.15904,-4.51181 20.70792,-1.36697 0.56844,0.23682 0.59391,0.0911 0.46292,-2.64875 -0.17068,-3.5698 -0.95539,-5.012389 -3.35721,-6.171768 -3.46639,-1.673254 -10.55543,-1.062646 -15.23683,1.31241 -1.01726,0.516096 -1.91726,0.938358 -2,0.938358 -0.0827,0 -0.15043,-1.514115 -0.15043,-3.364704 v -3.364704 l 1.04,-0.634349 c 1.43206,-0.873488 4.00095,-1.583206 7.6,-2.099693 9.70756,-1.393088 16.52319,0.925175 19.14097,6.510576 l 0.85903,1.832874 0.10595,9.92 c 0.12677,11.86905 0.0385,12.83109 -1.34351,14.64303 -2.15076,2.81983 -6.03671,3.99889 -13.96244,4.2364 -4.09237,0.12264 -5.37982,0.0458 -7.36,-0.43945 z m 12.81013,-6.11245 c 1.86379,-0.9669 1.90987,-1.09444 1.90987,-5.28576 0,-4.60506 0.24519,-4.33708 -4.73862,-5.17909 -2.54561,-0.43008 -3.47147,-0.45501 -5.45355,-0.14687 -4.23509,0.65842 -6.12621,2.33126 -6.12733,5.42008 -9.6e-4,2.7651 1.92655,4.70303 5.5995,5.62968 1.23954,0.31272 8.01205,-0.024 8.81013,-0.43804 z m 24.19823,6.1902 c -1.2054,-0.25855 -3.2214,-0.87845 -4.48,-1.37756 l -2.28836,-0.90746 -0.0905,-3.55635 c -0.0498,-1.956 0.0171,-3.55636 0.14854,-3.55636 0.13147,0 1.32418,0.56356 2.65048,1.25237 4.67104,2.42585 10.23133,3.10901 13.28254,1.63195 1.58946,-0.76945 2.7257,-2.2108 2.72773,-3.46021 0.004,-2.28818 -2.06445,-3.6159 -8.79881,-5.64861 -2.112,-0.63749 -4.6285,-1.62679 -5.59222,-2.19844 -2.04348,-1.21213 -3.67962,-3.20582 -4.194,-5.11052 -0.54158,-2.00541 -0.22531,-6.196646 0.58457,-7.74654 3.06961,-5.874477 12.54066,-8.130365 20.79305,-4.952653 3.52195,1.356179 3.6086,1.472003 3.6086,4.823363 0,1.608119 -0.14299,2.899892 -0.33407,3.017988 -0.18374,0.113558 -0.65174,0.0029 -1.04,-0.246122 -0.38826,-0.248922 -1.80593,-0.906842 -3.15038,-1.462042 -4.34017,-1.79231 -9.19141,-1.692771 -11.50133,0.235994 -0.97034,0.81023 -1.09071,1.081907 -1.06327,2.399862 0.0244,1.16971 0.22336,1.68702 0.93443,2.42922 0.99286,1.03632 1.69937,1.32974 7.35462,3.05447 2.112,0.64411 4.52895,1.52002 5.37099,1.94648 2.05728,1.04189 3.90672,3.01369 4.52292,4.82214 0.673,1.97515 0.64771,5.5156 -0.0539,7.54593 -0.71724,2.07553 -3.16942,4.61443 -5.52,5.71518 -3.84371,1.79997 -9.2947,2.32965 -13.87164,1.34792 z m 38.19164,0.023 c -6.22089,-1.34091 -10.40487,-5.33711 -12.37622,-11.82077 -0.80954,-2.66251 -0.80337,-10.64705 0.0104,-13.44 2.29372,-7.872525 7.93508,-11.963462 16.52584,-11.984029 8.34949,-0.02 13.68876,4.047955 15.65846,11.930039 0.77392,3.097 1.41782,7.44942 1.18992,8.04331 -0.16047,0.41818 -1.92476,0.49468 -13.07694,0.56704 l -12.89143,0.0836 0.0977,1.32513 c 0.24177,3.27952 2.38524,6.5033 5.23615,7.87519 3.33788,1.60622 8.76326,1.45304 14.30595,-0.40394 1.64101,-0.54978 3.0598,-0.92346 3.15287,-0.83039 0.34983,0.34983 0.0554,6.43495 -0.3281,6.78153 -0.46706,0.42208 -3.35755,1.23868 -6.69107,1.89032 -3.02695,0.59172 -8.02579,0.58382 -10.81349,-0.0171 z m 12.48,-23.32959 c 0,-1.21516 -0.94178,-3.71 -1.84998,-4.900713 -1.44056,-1.888669 -2.97294,-2.456416 -6.63002,-2.456416 -2.68028,0 -3.41585,0.114288 -4.52904,0.703687 -1.75509,0.92926 -3.07345,2.579582 -3.73355,4.673652 -0.9511,3.01725 -1.67877,2.76861 8.10259,2.76861 h 8.64 z"
       id="path13902" />
    <path
       style="fill:#213aaa;stroke-width:0.32;fill-opacity:1"
       d="m 54.879998,127.79972 c -3.986166,-0.59364 -6.828479,-1.71743 -8.453315,-3.34227 -2.020336,-2.02033 -1.946684,-1.03906 -1.946684,-25.936528 V 75.84 h 3.84 3.839999 v 7.626666 c 0,4.194668 0.0755,7.702169 0.167783,7.794448 0.09228,0.09228 0.992278,-0.106522 2,-0.441783 7.409462,-2.465078 14.799977,-1.259789 18.907762,3.083587 2.724928,2.881213 4.059635,6.192802 4.488701,11.137082 1.053974,12.14528 -2.908883,19.70757 -11.642336,22.21697 -1.57822,0.45347 -9.291811,0.82721 -11.20191,0.54275 z m 9.257622,-7.49883 c 2.420388,-0.90558 4.138973,-2.89187 5.024448,-5.8071 0.579085,-1.90652 0.650864,-2.80817 0.537143,-6.74719 -0.120183,-4.16278 -0.205824,-4.70122 -1.014468,-6.37812 C 67.071608,98.02327 64.200923,96.32 60.176069,96.32 c -2.283543,0 -5.889552,0.861405 -7.199754,1.719882 l -0.816317,0.534873 0.0047,9.672625 c 0.0034,7.03865 0.112653,9.89047 0.401088,10.47262 0.218007,0.44 1.038394,1.124 1.823088,1.52 1.989491,1.00401 7.142006,1.03619 9.74873,0.0609 z m 20.813136,6.34932 C 84.864413,126.4246 84.831169,118.248 84.876884,108.48 l 0.08311,-17.76 h 3.84 3.84 v 18.08 18.08 l -3.766125,0.0902 c -2.834867,0.0679 -3.804947,-0.0112 -3.923116,-0.32 z m 16.712184,0.18607 C 101.54032,126.71366 101.44,115.42074 101.44,101.7409 c 0,-22.385204 0.0506,-24.89185 0.50617,-25.066663 0.7448,-0.285808 6.62655,-0.227146 7.0958,0.07077 0.31817,0.202 0.38489,5.454851 0.32,25.195103 l -0.082,24.93989 -3.69706,0.0896 c -2.03338,0.0493 -3.79738,-0.0107 -3.92,-0.13333 z m 16.29129,-0.30245 c -0.25381,-0.66144 -0.25381,-48.886224 0,-49.547657 0.16036,-0.417895 0.791,-0.506173 3.616,-0.506173 2.23471,0 3.55498,0.133216 3.80577,0.384 0.29194,0.291949 0.384,6.230627 0.384,24.77383 0,13.4144 -0.0874,24.6176 -0.19424,24.896 -0.16124,0.42019 -0.80772,0.50617 -3.80576,0.50617 -2.99805,0 -3.64453,-0.086 -3.80577,-0.50617 z M 84.617204,84.375994 c -0.08949,-0.233204 -0.120967,-1.781204 -0.06996,-3.44 L 84.639997,77.92 h 4.16 4.16 l 0.09442,2.72 c 0.153379,4.418602 0.418855,4.16 -4.270557,4.16 -3.028857,0 -4.043567,-0.103258 -4.166652,-0.424006 z"
       id="path14130" />
  </g>
</svg>
