<svg width="175" height="30" viewBox="0 0 175 30" fill="none" xmlns="http://www.w3.org/2000/svg">
<path d="M29.1281 26.9151C21.0461 26.9151 14.4962 21.6262 14.4962 15.1023C14.4962 8.57804 21.0461 3.29415 29.1281 3.29415C31.9768 3.29415 34.6364 3.94984 36.8831 5.08637L29.1281 15.1023L43.7276 8.29886C42.1414 6.25921 39.8665 4.50171 37.1156 3.16806C33.6151 1.47668 28.7457 0.429932 23.3613 0.429932C15.6807 0.429932 8.94238 2.68248 5.18462 6.05578C2.40247 8.54946 0.746094 11.6879 0.746094 15.1021C0.746094 18.5187 2.40247 21.6595 5.18462 24.1549C8.95216 27.5324 15.5901 29.7718 23.144 29.7718C30.6969 29.7718 37.3329 27.5307 41.1028 24.1549C41.3092 23.969 41.5091 23.7814 41.6982 23.5867L41.1289 21.8647C38.4802 24.916 34.0931 26.9151 29.1281 26.9151Z" fill="#C91433"/>
<path d="M77.5318 29.062L71.4043 10.6138C70.42 7.63258 67.0564 5.44141 63.0518 5.44141C62.0132 5.44141 61.018 5.59117 60.0946 5.86228L46.9031 9.73361H60.4705L62.7889 16.7215C60.54 15.1594 57.611 14.2089 54.4038 14.2089C48.0351 14.2089 42.8789 17.6532 42.8789 21.9019C42.8789 26.151 48.0351 29.6004 54.4038 29.6004C58.9886 29.6004 63.0431 27.7889 65.5441 25.0059L66.8891 29.062H77.5318ZM58.8408 26.1966C55.9031 26.1966 53.5216 24.2764 53.5216 21.9019C53.5216 19.531 55.9031 17.609 58.8408 17.609C61.7785 17.609 64.1622 19.531 64.1622 21.9019C64.1622 24.2764 61.7785 26.1966 58.8408 26.1966Z" fill="#C91433"/>
<path d="M102.515 5.44434C101.711 5.44434 100.95 5.58778 100.272 5.84469L91.8024 9.03035C91.383 6.99543 89.1928 5.44434 86.5505 5.44434C85.7509 5.44434 84.9883 5.58778 84.3016 5.84469L73.9609 9.73339H81.2314V29.062H91.8741V11.8837C91.8741 10.6984 93.0626 9.73356 94.5358 9.73356C96.0004 9.73356 97.1976 10.6984 97.1976 11.8837V29.062H107.836V9.73339C107.836 7.36299 105.452 5.44434 102.515 5.44434Z" fill="#C91433"/>
<path d="M169.257 5.44434C168.451 5.44434 167.686 5.58778 166.997 5.84469L158.536 9.03035C158.119 6.99543 155.929 5.44434 153.287 5.44434C152.487 5.44434 151.724 5.58778 151.036 5.84469L140.699 9.73339H147.967V29.062H158.608V11.8837C158.608 10.6984 159.799 9.73356 161.272 9.73356C162.741 9.73356 163.929 10.6984 163.929 11.8837V29.062H174.576V9.73339C174.576 7.36299 172.191 5.44434 169.257 5.44434Z" fill="#C91433"/>
<path d="M142.42 17.6086C142.42 24.327 135.673 29.772 127.351 29.772C119.023 29.772 112.271 24.327 112.271 17.6086C112.271 10.892 119.023 5.44434 127.351 5.44434C135.673 5.44434 142.42 10.8922 142.42 17.6086ZM127.975 9.1361C127.501 7.70478 125.678 6.85514 123.905 7.23989C122.134 7.62306 121.076 9.09524 121.552 10.5264L126.721 26.0806C127.199 27.5134 129.018 28.3621 130.791 27.9833C132.564 27.5958 133.618 26.1245 133.142 24.6935L127.975 9.1361Z" fill="#C91433"/>
</svg>
