<?xml version="1.0" encoding="UTF-8" standalone="no"?>
<svg
   width="24"
   height="24"
   viewBox="0 0 24 24"
   fill="none"
   version="1.1"
   id="svg14"
   sodipodi:docname="eye.svg"
   inkscape:version="1.1.2 (0a00cf5339, 2022-02-04)"
   xmlns:inkscape="http://www.inkscape.org/namespaces/inkscape"
   xmlns:sodipodi="http://sodipodi.sourceforge.net/DTD/sodipodi-0.dtd"
   xmlns="http://www.w3.org/2000/svg"
   xmlns:svg="http://www.w3.org/2000/svg">
  <defs
     id="defs18" />
  <sodipodi:namedview
     id="namedview16"
     pagecolor="#ffffff"
     bordercolor="#666666"
     borderopacity="1.0"
     inkscape:pageshadow="2"
     inkscape:pageopacity="0.0"
     inkscape:pagecheckerboard="0"
     showgrid="false"
     inkscape:zoom="5.759974"
     inkscape:cx="-48.350913"
     inkscape:cy="0.17361189"
     inkscape:window-width="1920"
     inkscape:window-height="947"
     inkscape:window-x="0"
     inkscape:window-y="0"
     inkscape:window-maximized="1"
     inkscape:current-layer="svg14" />
  <path
     d="m 5.59984,18.51 c -0.17,0 -0.35,-0.06 -0.49,-0.18 -1.07,-0.91 -2.03,-2.03 -2.85,-3.33 -1.06,-1.65 -1.06,-4.34 0,-6.00002 2.44,-3.82 5.99,-6.02 9.73996,-6.02 2.2,0 4.954261,1.2195097 6.854261,2.6495097 0.33,0.25 -0.184261,0.2604903 -0.434261,0.5904903 -0.25,0.33 -0.72,0.4 -1.05,0.15 -1.64,-1.24 -3.5,-1.89 -5.37,-1.89 -3.22996,0 -6.31996,1.94 -8.47996,5.33 -0.75,1.17002 -0.75,3.21002 0,4.38002 0.75,1.17 1.61,2.18 2.56,3 0.31,0.27 0.35,0.74 0.08,1.06 -0.14,0.17 -0.35,0.26 -0.56,0.26 z"
     fill="#b4b4b4"
     id="path4"
     sodipodi:nodetypes="scccscscscsccs" />
  <path
     d="M12.6901 16.2701C12.3401 16.2701 12.0201 16.0201 11.9501 15.6601C11.8701 15.2501 12.1401 14.8601 12.5501 14.7901C13.6501 14.5901 14.5701 13.6701 14.7701 12.5701C14.8501 12.1601 15.2401 11.9001 15.6501 11.9701C16.0601 12.0501 16.3301 12.4401 16.2501 12.8501C15.9301 14.5801 14.5501 15.9501 12.8301 16.2701C12.7801 16.2601 12.7401 16.2701 12.6901 16.2701Z"
     fill="#B4B4B4"
     id="path8"
     style="fill:#b4b4b4;fill-opacity:1" />
  <path
     d="m 18.364061,5.4494897 c 0.17,0 0.35,0.06 0.49,0.18 1.07,0.91 2.03,2.03 2.85,3.33 1.06,1.6500003 1.06,4.3399993 0,6.0000193 -2.44,3.82 -5.99,6.02 -9.73996,6.02 C 9.7641005,20.979509 7.00984,19.76 5.10984,18.33 4.77984,18.08 5.2941005,18.069509 5.5441005,17.739509 5.7941005,17.409509 5.74984,16.94 6.07984,17.19 c 1.64,1.24 4.014261,2.289509 5.884261,2.289509 3.22996,0 6.31996,-1.94 8.47996,-5.33 0.75,-1.17002 0.75,-3.210019 0,-4.3800189 C 19.694061,8.5994897 18.3198,7.18998 17.3698,6.36998 c -0.31,-0.27 0.164261,-0.3404903 0.434261,-0.6604903 0.14,-0.17 0.35,-0.26 0.56,-0.26 z"
     fill="#b4b4b4"
     id="path3439"
     style="fill:#b4b4b4;fill-opacity:1"
     sodipodi:nodetypes="scccscscscsccs" />
  <path
     d="m 7.7536022,12.643397 c 0,-0.35 0.25,-0.67 0.61,-0.74 0.41,-0.08 0.8,0.19 0.87,0.6 0.2,1.1 1.1199998,2.02 2.2199998,2.22 0.41,0.08 0.67,0.47 0.6,0.88 -0.08,0.41 -0.47,0.68 -0.88,0.6 -1.7299998,-0.32 -3.0999998,-1.7 -3.4199998,-3.42 0.01,-0.05 0,-0.09 0,-0.14 z"
     fill="#b4b4b4"
     id="path18794"
     style="fill:#b4b4b4;fill-opacity:1" />
  <path
     d="m 16.097172,11.22127 c 0,0.35 -0.25,0.67 -0.61,0.74 -0.41,0.08 -0.8,-0.19 -0.87,-0.6 -0.2,-1.1 -1.119999,-2.0200004 -2.219999,-2.2200004 -0.41,-0.08 -0.67,-0.47 -0.6,-0.88 0.08,-0.41 0.47,-0.68 0.88,-0.6 1.729999,0.32 3.099999,1.7 3.419999,3.4200004 -0.01,0.05 0,0.09 0,0.14 z"
     fill="#b4b4b4"
     id="path18814"
     style="fill:#b4b4b4;fill-opacity:1" />
  <path
     d="m 11.30058,7.7531763 c 0.35,0 0.67,0.25 0.74,0.61 0.08,0.41 -0.19,0.8 -0.6,0.87 -1.1,0.2 -2.0199995,1.1199987 -2.2199995,2.2199987 -0.08,0.41 -0.47,0.67 -0.88,0.6 -0.41,-0.08 -0.68,-0.47 -0.6,-0.88 0.32,-1.7299987 1.7,-3.0999987 3.4199995,-3.4199987 0.05,0.01 0.09,0 0.14,0 z"
     fill="#b4b4b4"
     id="path18816"
     style="fill:#b4b4b4;fill-opacity:1" />
  <path
     d="M 8.5158972,9.479933 C 8.7633846,9.2324456 9.1664355,9.1829482 9.4704914,9.388009 c 0.3464823,0.2333453 0.4313351,0.700036 0.1909188,1.039447 -0.6363961,0.919239 -0.6363962,2.220315 -1e-7,3.139554 0.2333452,0.346483 0.1414213,0.806102 -0.1979899,1.046518 -0.3464823,0.233346 -0.8131728,0.148493 -1.0465181,-0.19799 -0.9970204,-1.449568 -0.9899493,-3.394112 2e-7,-4.8366101 0.042426,-0.028284 0.06364,-0.06364 0.098995,-0.098995 z"
     fill="#b4b4b4"
     id="path19961"
     style="fill:#b4b4b4;fill-opacity:1" />
  <path
     d="m 14.574066,8.4845396 c 0.247486,0.247486 0.296984,0.650538 0.09192,0.954594 -0.233345,0.346482 -0.700036,0.431334 -1.039447,0.190919 -0.919238,-0.636396 -2.220314,-0.636397 -3.139554,0 -0.346482,0.233345 -0.8061012,0.14142 -1.0465172,-0.197991 -0.233346,-0.346483 -0.148493,-0.813172 0.19799,-1.046518 1.4495672,-0.997021 3.3941122,-0.98995 4.8366102,10e-7 0.02828,0.04243 0.06364,0.06364 0.09899,0.099 z"
     fill="#b4b4b4"
     id="path20176"
     style="fill:#b4b4b4;fill-opacity:1" />
  <path
     d="m 15.466119,14.722762 c -0.247486,0.247486 -0.650538,0.296985 -0.954593,0.09192 -0.346483,-0.233345 -0.431335,-0.700037 -0.19092,-1.039446 0.636396,-0.919239 0.636397,-2.220315 0,-3.139555 -0.233345,-0.346482 -0.14142,-0.8061007 0.197991,-1.0465163 0.346483,-0.233346 0.813172,-0.1484934 1.046518,0.1979896 0.997021,1.4495667 0.98995,3.3941117 -1e-6,4.8366097 -0.04243,0.02828 -0.06364,0.06364 -0.099,0.09899 z"
     fill="#b4b4b4"
     id="path20178"
     style="fill:#b4b4b4;fill-opacity:1" />
  <path
     d="m 9.4916201,15.474349 c -0.247486,-0.247486 -0.296986,-0.650538 -0.09192,-0.954593 0.233345,-0.346482 0.7000369,-0.431334 1.0394459,-0.19092 0.919239,0.636396 2.220315,0.636398 3.139555,10e-7 0.346482,-0.233345 0.8061,-0.141421 1.046516,0.19799 0.233346,0.346483 0.148493,0.813172 -0.19799,1.046518 -1.449566,0.997021 -3.394112,0.98995 -4.8366089,-10e-7 -0.02828,-0.04243 -0.06364,-0.06364 -0.09899,-0.099 z"
     fill="#b4b4b4"
     id="path20180"
     style="fill:#b4b4b4;fill-opacity:1" />
</svg>
