<svg width="16" height="16" viewBox="0 0 16 16" fill="none" xmlns="http://www.w3.org/2000/svg">
<path fill-rule="evenodd" clip-rule="evenodd" d="M12.0007 2.66665H4.00065C3.26427 2.66665 2.66732 3.2636 2.66732 3.99998V12C2.66732 12.7364 3.26427 13.3333 4.00065 13.3333H12.0007C12.7371 13.3333 13.334 12.7364 13.334 12V3.99998C13.334 3.2636 12.7371 2.66665 12.0007 2.66665ZM4.00065 1.33331C2.52789 1.33331 1.33398 2.52722 1.33398 3.99998V12C1.33398 13.4727 2.52789 14.6666 4.00065 14.6666H12.0007C13.4734 14.6666 14.6673 13.4727 14.6673 12V3.99998C14.6673 2.52722 13.4734 1.33331 12.0007 1.33331H4.00065Z" fill="#F7F7F7"/>
<path fill-rule="evenodd" clip-rule="evenodd" d="M7.94382 6.66669C7.94382 5.56212 8.83922 4.66669 9.94382 4.66669H11.3327V6.00002H9.94382C9.57562 6.00002 9.27715 6.2985 9.27715 6.66669V8.00002H11.3327V9.33335H9.27715V13.3334H7.94382V9.33335H6.66602V8.00002H7.94382V6.66669Z" fill="#F7F7F7"/>
</svg>
