<svg width="91" height="69" viewBox="0 0 91 69" fill="none" xmlns="http://www.w3.org/2000/svg">
<path d="M14.3623 12.7336C14.3623 12.7336 7.43453 19.3618 7.06005 26.3644V27.6751C7.35963 33.3296 11.6286 36.6624 11.6286 36.6624C18.4814 43.3654 35.0705 51.791 38.965 53.7008C38.965 53.7008 39.1897 53.8132 39.3395 53.6634L39.4144 53.5136V53.3638C28.7794 30.184 14.3623 12.7336 14.3623 12.7336ZM36.7557 59.3928C36.6808 59.0932 36.3812 59.0932 36.3812 59.0932L8.74518 60.0669C11.741 65.4218 16.7963 69.541 22.0764 68.3052C25.6713 67.3691 33.9097 61.6396 36.6059 59.6924C36.8306 59.5052 36.7557 59.3554 36.7557 59.3554V59.3928ZM37.0552 56.4719C24.9224 48.271 1.40553 35.7262 1.40553 35.7262C0.843824 37.4488 0.656588 39.0965 0.619141 40.5943V40.8565C0.619141 44.8633 2.11703 47.6719 2.11703 47.6719C5.1128 54.0004 10.8797 55.9102 10.8797 55.9102C13.501 57.0336 16.1223 57.0711 16.1223 57.0711C16.5716 57.146 32.599 57.0711 36.868 57.0711C37.0552 57.0711 37.1676 56.8839 37.1676 56.8839V56.6592C37.1676 56.5468 37.0552 56.4719 37.0552 56.4719ZM34.5463 1.68672C31.8912 2.36463 29.5236 3.87625 27.7914 5.99946C26.0591 8.12267 25.0535 10.7455 24.9224 13.4826V15.0179C25.0347 17.2647 25.5215 18.9499 25.5215 18.9499C27.993 29.8096 39.9761 47.597 42.56 51.3417C42.7472 51.5289 42.9345 51.454 42.9345 51.454C43.0064 51.4229 43.0667 51.3701 43.107 51.3029C43.1473 51.2357 43.1656 51.1576 43.1591 51.0795C47.1285 11.3855 39.0025 0.825439 39.0025 0.825439C37.8042 0.900334 34.5463 1.68672 34.5463 1.68672ZM65.6237 10.1872C65.6237 10.1872 63.7888 3.44674 56.4866 1.64928C56.4866 1.64928 54.3521 1.12502 52.1053 0.825439C52.1053 0.825439 43.9418 11.3481 47.9112 51.117C47.9486 51.3791 48.1359 51.4166 48.1359 51.4166C48.398 51.5289 48.5103 51.3042 48.5103 51.3042C51.2065 47.4472 63.1147 29.7347 65.5488 18.9499C65.5488 18.9499 66.8969 13.7073 65.6237 10.1872ZM54.6891 59.1307C54.6891 59.1307 54.427 59.1307 54.3521 59.3179C54.3521 59.3179 54.3146 59.5801 54.4644 59.6924C57.0857 61.6022 65.1369 67.1818 68.9939 68.3052C68.9939 68.3052 69.5931 68.4925 70.6042 68.5299H71.1284C73.7123 68.455 78.2434 67.1444 82.3626 60.0669L54.6517 59.1307H54.6891ZM84.0103 27.6376C84.5345 19.9235 76.7455 12.7711 76.7455 12.7336C76.7455 12.7336 62.3283 30.184 51.7682 53.1766C51.7682 53.1766 51.6559 53.4762 51.8431 53.6634L51.9929 53.7008H52.2176C56.187 51.7161 72.6638 43.328 79.4791 36.6998C79.4791 36.6998 83.7856 33.2172 84.0103 27.6376ZM89.7022 35.6513C89.7022 35.6513 66.1854 48.271 54.0525 56.4345C54.0525 56.4345 53.8653 56.5843 53.9402 56.8464C53.9402 56.8464 54.0525 57.0711 54.2023 57.0711C58.5462 57.0711 75.0229 57.0711 75.4349 56.9962C75.4349 56.9962 77.5693 56.9213 80.1906 55.9102C80.1906 55.9102 86.0324 54.0379 89.0656 47.4097C89.0656 47.4097 91.7993 41.9799 89.7022 35.6513Z" fill="#C91433"/>
</svg>
