<?xml version="1.0" encoding="UTF-8" standalone="no"?>
<!-- Created with Inkscape (http://www.inkscape.org/) -->

<svg
   width="800"
   height="800"
   viewBox="0 0 211.66666 211.66667"
   version="1.1"
   id="svg5"
   sodipodi:docname="icon-v3.svg"
   inkscape:version="1.1.2 (0a00cf5339, 2022-02-04)"
   xmlns:inkscape="http://www.inkscape.org/namespaces/inkscape"
   xmlns:sodipodi="http://sodipodi.sourceforge.net/DTD/sodipodi-0.dtd"
   xmlns="http://www.w3.org/2000/svg"
   xmlns:svg="http://www.w3.org/2000/svg">
  <sodipodi:namedview
     id="namedview7"
     pagecolor="#ffffff"
     bordercolor="#666666"
     borderopacity="1.0"
     inkscape:pageshadow="2"
     inkscape:pageopacity="0.0"
     inkscape:pagecheckerboard="0"
     inkscape:document-units="mm"
     showgrid="false"
     units="px"
     width="800px"
     inkscape:zoom="0.17416176"
     inkscape:cx="502.40651"
     inkscape:cy="361.73269"
     inkscape:window-width="1920"
     inkscape:window-height="947"
     inkscape:window-x="0"
     inkscape:window-y="0"
     inkscape:window-maximized="1"
     inkscape:current-layer="layer1"
     showguides="false" />
  <defs
     id="defs2">
    <linearGradient
       id="linearGradient35784"
       inkscape:swatch="solid">
      <stop
         style="stop-color:#000000;stop-opacity:1;"
         offset="0"
         id="stop35782" />
    </linearGradient>
  </defs>
  <g
     inkscape:label="Layer 1"
     inkscape:groupmode="layer"
     id="layer1"
     style="display:inline">
    <g
       inkscape:groupmode="layer"
       id="layer2"
       inkscape:label="Layer 2" />
    <g
       id="g33762"
       style="fill:#00b0ea;fill-opacity:1;stroke:#808080;stroke-width:0;stroke-linecap:butt;stroke-linejoin:round;stroke-miterlimit:4;stroke-dasharray:none;stroke-opacity:1;paint-order:stroke fill markers;filter:url(#filter56454)">
      <path
         style="fill:#00b0ea;fill-opacity:1;stroke:#808080;stroke-width:0;stroke-linecap:butt;stroke-linejoin:round;stroke-miterlimit:4;stroke-dasharray:none;stroke-opacity:1;paint-order:stroke fill markers"
         d="m 49.039529,189.14228 c -4.224628,-0.60735 -9.384188,-2.32745 -12.382452,-4.12809 -7.41299,-4.45194 -11.754098,-10.87714 -13.816592,-20.44969 -0.69155,-3.20966 -0.692578,-13.67685 -0.0018,-17.85304 3.100982,-18.74613 13.316829,-39.6287 29.381834,-60.06042 9.082805,-11.551652 23.02337,-25.489236 34.430476,-34.423112 12.640366,-9.899748 25.617125,-17.745049 37.617055,-22.74197 11.4376,-4.762766 20.50579,-6.932489 30.04267,-7.188242 5.80996,-0.155807 8.85195,0.117782 12.6697,1.139477 5.82788,1.559644 9.50647,3.596403 13.34124,7.386763 4.53876,4.486201 6.70133,8.530429 8.34735,15.610417 0.85513,3.678161 0.99553,12.254609 0.2798,17.092216 -1.41821,9.585627 -4.19458,18.398019 -9.20161,29.206572 -1.07775,2.326521 -2.13538,4.405862 -2.35027,4.62076 -0.34458,0.344572 -0.39062,0.298087 -0.38985,-0.393579 5.3e-4,-0.431366 -0.24582,-2.229011 -0.54734,-3.994766 l -0.54822,-3.210465 1.49933,-3.271827 c 10.139,-22.125226 11.34315,-40.507016 3.34443,-51.054056 -3.62759,-4.783315 -8.5165,-7.690776 -15.39074,-9.152955 -3.05973,-0.650818 -11.66558,-0.649587 -15.42489,0.0022 -19.34723,3.354443 -40.79777,14.467898 -62.362613,32.309875 -14.391339,11.906872 -28.281448,26.839783 -38.654454,41.556442 -12.482666,17.70972 -20.22456,34.89392 -22.767404,50.53541 -0.535509,3.29402 -0.463354,11.91788 0.122861,14.68437 1.454561,6.86444 4.366822,11.7624 9.151142,15.39075 10.528253,7.98447 29.241457,6.75874 51.07493,-3.34543 l 3.292702,-1.52381 3.205147,0.56008 c 1.762831,0.30805 3.52557,0.56008 3.917196,0.56008 0.391626,0 0.712047,0.10428 0.712047,0.2317 0,0.31819 -8.588373,4.28678 -13.011563,6.0125 -7.162584,2.7945 -15.238373,4.9658 -21.54376,5.79237 -3.316811,0.43479 -11.309892,0.49143 -14.0364,0.0995 z"
         id="path31862" />
      <path
         style="fill:#00b0ea;fill-opacity:1;stroke:#808080;stroke-width:0;stroke-linecap:butt;stroke-linejoin:round;stroke-miterlimit:4;stroke-dasharray:none;stroke-opacity:1;paint-order:stroke fill markers"
         d="m 98.028127,171.68627 c -14.764005,-1.77293 -28.47129,-8.44942 -39.034798,-19.01293 -8.76759,-8.76759 -15.15754,-20.25756 -17.738535,-31.89621 l -0.587885,-2.651 1.79093,-2.90525 C 59.214489,88.038166 86.50757,60.58841 114.03254,43.235304 l 4.0791,-2.571665 2.65824,0.590285 c 6.31205,1.401646 14.38474,4.719728 19.98846,8.215765 8.44264,5.26718 16.17146,12.995995 21.43864,21.438643 4.78088,7.663172 8.16445,17.240618 9.37548,26.538031 0.5366,4.119647 0.5366,12.654287 0,16.773937 -1.39394,10.70168 -5.57519,21.4923 -11.53548,29.7698 l -1.27923,1.77655 10.75015,12.64324 c 5.91258,6.95378 10.92991,12.85159 11.14963,13.10626 0.3799,0.44032 -0.44333,0.46302 -16.79138,0.46302 h -17.19087 l -3.42149,-4.00965 c -1.88182,-2.2053 -3.55185,-4.18747 -3.71118,-4.40481 -0.24691,-0.33681 -0.83292,-0.12045 -3.96875,1.46532 -5.92459,2.99602 -11.8475,4.94835 -18.76032,6.18385 -2.57811,0.46077 -4.44338,0.58241 -9.92187,0.64701 -3.71078,0.0438 -7.699377,-0.0348 -8.863543,-0.17462 z m 12.670843,-23.11963 c 1.58469,-0.2109 3.94518,-0.68953 5.24553,-1.06363 2.29268,-0.65959 6.95863,-2.53446 7.37128,-2.96193 0.11196,-0.11598 -3.40153,-4.43759 -7.80774,-9.60358 l -8.01131,-9.39271 16.89958,-0.0681 16.89958,-0.0681 0.65046,-1.47079 c 0.95036,-2.14895 2.14211,-6.00253 2.82676,-9.14051 0.52762,-2.41825 0.59918,-3.48891 0.59918,-8.96398 0,-5.47506 -0.0716,-6.545721 -0.59918,-8.963978 -3.33714,-15.295227 -12.73024,-26.765123 -26.02023,-31.773257 -4.51271,-1.700549 -7.51812,-2.21606 -12.91955,-2.21606 -5.41185,0 -8.406339,0.515326 -12.955114,2.229464 -13.229617,4.985382 -22.656986,16.508026 -25.984653,31.759853 -0.527622,2.418257 -0.599186,3.488918 -0.599186,8.963978 0,6.83944 0.282919,8.84452 2.011489,14.25565 6.072209,19.00847 23.843423,30.94632 42.393104,28.47766 z M 40.08977,97.234374 C 41.991384,82.767013 48.611169,69.375487 58.993329,58.993327 69.378627,48.608028 82.692839,42.02561 97.234377,40.087318 l 1.322916,-0.176334 -4.101042,2.741631 C 83.989668,49.649746 75.901699,56.35143 66.126565,66.126562 56.332642,75.920485 49.735262,83.885266 42.660542,94.456249 l -2.744658,4.101042 z"
         id="path30403" />
    </g>
  </g>
</svg>
