<svg width="16" height="16" viewBox="0 0 16 16" fill="none" xmlns="http://www.w3.org/2000/svg">
<path d="M14.4636 5.31986C14.4324 4.6277 14.3206 4.15412 14.1619 3.74039C13.9955 3.31365 13.7745 2.94936 13.413 2.59027C13.0515 2.23118 12.69 2.0048 12.2636 1.84087C11.8501 1.67954 11.3768 1.57026 10.685 1.53903C9.99071 1.50781 9.76966 1.5 8.00651 1.5C6.24076 1.5 6.01971 1.50781 5.32798 1.53903C4.63624 1.57026 4.16294 1.68215 3.74946 1.84087C3.32037 2.00741 2.9563 2.22858 2.59743 2.59027C2.23856 2.95196 2.01231 3.31365 1.84848 3.74039C1.68985 4.15412 1.57803 4.6277 1.54682 5.31986C1.51561 6.01461 1.50781 6.23579 1.50781 8C1.50781 9.76681 1.51561 9.98799 1.54682 10.6801C1.57803 11.3723 1.68985 11.8459 1.84848 12.2596C2.01491 12.6863 2.23596 13.0506 2.59743 13.4097C2.9563 13.7714 3.32037 13.9952 3.74686 14.1591C4.16034 14.3205 4.63364 14.4297 5.32538 14.461C6.01971 14.4922 6.24076 14.5 8.00391 14.5C9.76966 14.5 9.99071 14.4922 10.6824 14.461C11.3742 14.4297 11.8475 14.3179 12.261 14.1591C12.6874 13.9926 13.0515 13.7714 13.4104 13.4097C13.7693 13.048 13.9955 12.6863 14.1593 12.2596C14.3206 11.8459 14.4298 11.3723 14.461 10.6801C14.4922 9.98539 14.5 9.76421 14.5 8C14.5 6.23579 14.4948 6.01201 14.4636 5.31986ZM13.296 10.6281C13.2674 11.263 13.1607 11.6091 13.0723 11.8355C12.9553 12.1373 12.8123 12.3559 12.5834 12.5849C12.3546 12.8139 12.1387 12.9518 11.8345 13.0741C11.6056 13.1625 11.2598 13.2692 10.6278 13.2978C9.9439 13.3291 9.73846 13.3369 8.00131 13.3369C6.26416 13.3369 6.05872 13.3291 5.37479 13.2978C4.74026 13.2692 4.39439 13.1625 4.16814 13.0741C3.86648 12.957 3.64804 12.8139 3.41919 12.5849C3.19035 12.3559 3.05252 12.1399 2.9303 11.8355C2.84188 11.6065 2.73526 11.2604 2.70665 10.6281C2.67545 9.94375 2.66764 9.73819 2.66764 8C2.66764 6.26181 2.67545 6.05625 2.70665 5.3719C2.73526 4.73699 2.84188 4.39091 2.9303 4.16453C3.04732 3.86269 3.19035 3.64412 3.41919 3.41513C3.64804 3.18615 3.86388 3.04824 4.16814 2.92594C4.39699 2.83747 4.74286 2.73078 5.37479 2.70216C6.05872 2.67094 6.26416 2.66313 8.00131 2.66313C9.73846 2.66313 9.9439 2.67094 10.6278 2.70216C11.2624 2.73078 11.6082 2.83747 11.8345 2.92594C12.1361 3.04303 12.3546 3.18615 12.5834 3.41513C12.8123 3.64412 12.9501 3.86009 13.0723 4.16453C13.1607 4.39351 13.2674 4.73959 13.296 5.3719C13.3272 6.05625 13.335 6.26181 13.335 8C13.335 9.73819 13.3246 9.94375 13.296 10.6281Z" fill="white"/>
<path d="M8.00118 4.65894C6.15481 4.65894 4.66211 6.15513 4.66211 8.00001C4.66211 9.84749 6.15741 11.3411 8.00118 11.3411C9.84495 11.3411 11.3402 9.84228 11.3402 8.00001C11.3402 6.15253 9.84755 4.65894 8.00118 4.65894ZM8.00118 10.1675C6.80494 10.1675 5.83494 9.19697 5.83494 8.00001C5.83494 6.80305 6.80494 5.83247 8.00118 5.83247C9.19742 5.83247 10.1674 6.80305 10.1674 8.00001C10.1674 9.19697 9.19742 10.1675 8.00118 10.1675Z" fill="white"/>
<path d="M11.4696 5.30942C11.9005 5.30942 12.2498 4.95992 12.2498 4.52879C12.2498 4.09767 11.9005 3.74817 11.4696 3.74817C11.0387 3.74817 10.6895 4.09767 10.6895 4.52879C10.6895 4.95992 11.0387 5.30942 11.4696 5.30942Z" fill="white"/>
<path d="M1.5 8C1.5 9.76681 1.5078 9.98799 1.53901 10.6801C1.57021 11.3723 1.68204 11.8459 1.84067 12.2596C2.0071 12.6863 2.22815 13.0506 2.58962 13.4097C2.94849 13.7688 3.31256 13.9952 3.73905 14.1591C4.15253 14.3205 4.62583 14.4297 5.31756 14.461C6.0119 14.4922 6.23295 14.5 7.9961 14.5C9.76185 14.5 9.9829 14.4922 10.6746 14.461C11.3664 14.4297 11.8397 14.3179 12.2532 14.1591C12.6796 13.9926 13.0437 13.7714 13.4026 13.4097C13.7615 13.0506 13.9877 12.6863 14.1515 12.2596C14.3128 11.8459 14.422 11.3723 14.4532 10.6801C14.4844 9.98539 14.4922 9.76421 14.4922 8C14.4922 6.23319 14.4844 6.01201 14.4532 5.31986C14.422 4.6277 14.3102 4.15412 14.1515 3.74039C13.9851 3.31365 13.7641 2.94936 13.4026 2.59027C13.0463 2.22858 12.6822 2.0048 12.2558 1.84087C11.8423 1.67954 11.369 1.57026 10.6772 1.53903C9.9829 1.50781 9.76185 1.5 7.9987 1.5C6.23295 1.5 6.0119 1.50781 5.32016 1.53903C4.62843 1.57026 4.15513 1.68215 3.74165 1.84087C3.31516 2.00741 2.95109 2.22858 2.59222 2.59027C2.23335 2.95196 2.0071 3.31365 1.84327 3.74039C1.68204 4.15412 1.57021 4.6277 1.53901 5.31986C1.5078 6.01201 1.5 6.23319 1.5 8ZM2.67283 8C2.67283 6.26441 2.68064 6.05625 2.71184 5.3719C2.74045 4.73699 2.84707 4.39091 2.93549 4.16453C3.05251 3.86269 3.19554 3.64412 3.42438 3.41513C3.65323 3.18615 3.86907 3.04824 4.17333 2.92594C4.40218 2.83747 4.74805 2.73078 5.37998 2.70216C6.06391 2.67094 6.26935 2.66313 8.0065 2.66313C9.74365 2.66313 9.94909 2.67094 10.633 2.70216C11.2676 2.73078 11.6134 2.83747 11.8397 2.92594C12.1413 3.04303 12.3598 3.18615 12.5886 3.41513C12.8175 3.64412 12.9553 3.86009 13.0775 4.16453C13.1659 4.39351 13.2726 4.73959 13.3012 5.3719C13.3324 6.05625 13.3402 6.26181 13.3402 8C13.3402 9.73819 13.3324 9.94375 13.3012 10.6281C13.2726 11.263 13.1659 11.6091 13.0775 11.8355C12.9605 12.1373 12.8175 12.3559 12.5886 12.5849C12.3598 12.8139 12.1439 12.9518 11.8397 13.0741C11.6108 13.1625 11.265 13.2692 10.633 13.2978C9.94909 13.3291 9.74365 13.3369 8.0065 13.3369C6.26935 13.3369 6.06391 13.3291 5.37998 13.2978C4.74545 13.2692 4.39958 13.1625 4.17333 13.0741C3.87167 12.957 3.65323 12.8139 3.42438 12.5849C3.19554 12.3559 3.05771 12.1399 2.93549 11.8355C2.84707 11.6065 2.74045 11.2604 2.71184 10.6281C2.67804 9.94375 2.67283 9.73559 2.67283 8Z" fill="white"/>
</svg>
