<svg width="153" height="50" viewBox="0 0 153 50" fill="none" xmlns="http://www.w3.org/2000/svg">
<mask id="mask0_14_34484" style="mask-type:luminance" maskUnits="userSpaceOnUse" x="0" y="0" width="153" height="50">
<path d="M0.394531 49.5243V0.498291H153.001V49.5243H0.394531Z" fill="white"/>
</mask>
<g mask="url(#mask0_14_34484)">
<path d="M0.398438 49.5243V0.498291H153.005V49.5243H0.398438ZM32.2255 31.2621H20.0034V10.844H14.5514V36.1708H32.2255V31.2621ZM50.8434 19.5473C49.8699 18.4788 48.6712 17.6378 47.3331 17.0845C45.9951 16.5313 44.5508 16.2795 43.1036 16.3472C41.7505 16.3014 40.4021 16.529 39.1398 17.0163C37.8774 17.5035 36.7272 18.2402 35.7584 19.1821C34.7897 20.124 34.0225 21.2514 33.5031 22.4966C32.9837 23.7417 32.7228 25.0787 32.7362 26.4269C32.7362 32.31 37.2048 36.5066 43.6992 36.5066C47.1072 36.5116 50.3785 35.1724 52.7978 32.7819L49.3973 30.1811C47.8557 31.5501 45.8505 32.2867 43.7854 32.2426C42.9932 32.2793 42.2016 32.1588 41.4566 31.888C40.7116 31.6171 40.0281 31.2015 39.4459 30.6652L53.1953 24.9868C52.9499 22.9877 52.1361 21.1 50.8496 19.5461L50.8434 19.5473ZM74.8358 24.0945C74.8699 23.0533 74.686 22.0165 74.2959 21.0499C73.9058 20.0834 73.3181 19.2082 72.57 18.4801C71.8219 17.752 70.9298 17.1869 69.9505 16.8208C68.9713 16.4546 67.9262 16.2954 66.8818 16.3533C65.6504 16.3589 64.4362 16.6428 63.3309 17.1835C62.2256 17.7243 61.2579 18.5078 60.5007 19.475V16.6671H55.1213V36.1647H60.5007V25.0689C60.5078 24.5048 60.6294 23.948 60.8583 23.4319C61.0872 22.9159 61.4186 22.4513 61.8326 22.0662C62.2465 21.6811 62.7345 21.3834 63.267 21.1911C63.7995 20.9987 64.3656 20.9157 64.9312 20.947C65.501 20.9179 66.0709 21.0018 66.6079 21.1938C67.1449 21.3858 67.6382 21.6822 68.0592 22.0657C68.4802 22.4492 68.8205 22.9121 69.0604 23.4277C69.3002 23.9432 69.4349 24.5011 69.4565 25.0689V36.1647H74.8358V24.092V24.0945ZM87.5206 16.3533C85.5338 16.4233 83.6116 17.074 81.9936 18.2244C80.3756 19.3748 79.1333 20.974 78.4215 22.8227C77.7097 24.6713 77.56 26.6877 77.9909 28.6205C78.4218 30.5534 79.4144 32.3171 80.8449 33.6921C82.2753 35.067 84.0805 35.9923 86.0353 36.3527C87.9901 36.713 90.0082 36.4925 91.8381 35.7185C93.668 34.9446 95.2287 33.6514 96.3257 32.0003C97.4227 30.3491 98.0076 28.4129 98.0074 26.433C97.9936 25.0821 97.7103 23.7474 97.1739 22.5065C96.6375 21.2656 95.8588 20.1433 94.883 19.2048C93.9072 18.2663 92.7539 17.5304 91.4899 17.0398C90.226 16.5492 88.8767 16.3138 87.5206 16.3472V16.3533ZM113.044 16.6769L108.184 29.9555L103.32 16.6769H97.1828L105.238 36.1647H111.128L119.183 16.6769H113.044ZM128.91 16.3472C126.923 16.4172 125.001 17.0679 123.383 18.2183C121.765 19.3687 120.523 20.9679 119.811 22.8165C119.099 24.6652 118.95 26.6816 119.38 28.6144C119.811 30.5472 120.804 32.311 122.234 33.686C123.665 35.0609 125.47 35.9862 127.425 36.3466C129.38 36.7069 131.398 36.4864 133.228 35.7124C135.057 34.9384 136.618 33.6453 137.715 31.9941C138.812 30.343 139.397 28.4068 139.397 26.4269C139.382 25.0765 139.098 23.7425 138.562 22.5023C138.025 21.2621 137.246 20.1405 136.27 19.2027C135.295 18.2648 134.142 17.5295 132.878 17.0393C131.614 16.549 130.266 16.3138 128.91 16.3472ZM128.91 31.9129C128.201 31.903 127.501 31.7524 126.851 31.4699C126.201 31.1874 125.615 30.7787 125.125 30.2676C124.636 29.7566 124.254 29.1534 124.001 28.4935C123.749 27.8336 123.631 27.1302 123.655 26.4244C123.605 25.7188 123.703 25.0106 123.941 24.3442C124.179 23.6778 124.553 23.0677 125.039 22.5522C125.526 22.0367 126.114 21.6269 126.767 21.3485C127.42 21.0702 128.124 20.9293 128.834 20.9348C129.543 20.9446 130.243 21.0953 130.893 21.3778C131.543 21.6604 132.13 22.0693 132.619 22.5805C133.108 23.0917 133.49 23.695 133.743 24.355C133.995 25.015 134.113 25.7186 134.089 26.4244C134.132 27.1286 134.031 27.8342 133.79 28.4977C133.549 29.1612 133.175 29.7686 132.69 30.2826C132.204 30.7965 131.619 31.2061 130.968 31.4861C130.318 31.766 129.617 31.9104 128.909 31.9105L128.91 31.9129ZM87.5218 31.9129C86.8128 31.903 86.1129 31.7524 85.463 31.4699C84.8132 31.1874 84.2264 30.7787 83.7371 30.2676C83.2477 29.7566 82.8657 29.1534 82.6132 28.4935C82.3607 27.8336 82.243 27.1302 82.2668 26.4244C82.2172 25.7185 82.3148 25.0099 82.5534 24.3433C82.792 23.6766 83.1665 23.0664 83.6533 22.5508C84.1401 22.0352 84.7288 21.6255 85.3822 21.3474C86.0357 21.0693 86.7398 20.9288 87.4505 20.9348C88.1589 20.9453 88.8582 21.0963 89.5074 21.379C90.1566 21.6617 90.7428 22.0705 91.2316 22.5814C91.7204 23.0922 92.102 23.695 92.3542 24.3544C92.6065 25.0138 92.7242 25.7167 92.7006 26.422C92.7445 27.1263 92.643 27.8322 92.4025 28.496C92.162 29.1598 91.7876 29.7675 91.3023 30.2817C90.817 30.796 90.2311 31.2057 89.5807 31.4859C88.9303 31.766 88.2292 31.9105 87.5206 31.9105L87.5218 31.9129ZM39.0743 22.5489C39.559 21.9213 40.1869 21.4178 40.9061 21.0802C41.6252 20.7425 42.4148 20.5805 43.2094 20.6075C44.0966 20.6023 44.9656 20.8582 45.7072 21.3432C46.4488 21.8281 47.03 22.5205 47.3778 23.3334L37.9814 27.2174C37.7096 25.5798 38.1003 23.9016 39.0681 22.5502L39.0743 22.5489Z" fill="#0C0C0C"/>
</g>
</svg>
