<?xml version="1.0" encoding="UTF-8" standalone="no"?>
<!-- Created with Inkscape (http://www.inkscape.org/) -->

<svg
   width="2400"
   height="800"
   viewBox="0 0 634.99998 211.66667"
   version="1.1"
   id="svg5"
   sodipodi:docname="logo-v3.svg"
   inkscape:version="1.1.2 (0a00cf5339, 2022-02-04)"
   xmlns:inkscape="http://www.inkscape.org/namespaces/inkscape"
   xmlns:sodipodi="http://sodipodi.sourceforge.net/DTD/sodipodi-0.dtd"
   xmlns="http://www.w3.org/2000/svg"
   xmlns:svg="http://www.w3.org/2000/svg">
  <sodipodi:namedview
     id="namedview7"
     pagecolor="#ffffff"
     bordercolor="#666666"
     borderopacity="1.0"
     inkscape:pageshadow="2"
     inkscape:pageopacity="0.0"
     inkscape:pagecheckerboard="0"
     inkscape:document-units="mm"
     showgrid="false"
     units="px"
     width="800px"
     inkscape:zoom="0.17416176"
     inkscape:cx="502.40651"
     inkscape:cy="361.73269"
     inkscape:window-width="1920"
     inkscape:window-height="947"
     inkscape:window-x="0"
     inkscape:window-y="0"
     inkscape:window-maximized="1"
     inkscape:current-layer="layer1"
     showguides="false" />
  <defs
     id="defs2">
    <linearGradient
       id="linearGradient35784"
       inkscape:swatch="solid">
      <stop
         style="stop-color:#000000;stop-opacity:1;"
         offset="0"
         id="stop35782" />
    </linearGradient>
  </defs>
  <g
     inkscape:label="Layer 1"
     inkscape:groupmode="layer"
     id="layer1"
     style="display:inline">
    <g
       inkscape:groupmode="layer"
       id="layer2"
       inkscape:label="Layer 2" />
    <g
       id="g33762"
       style="stroke-width:0;stroke-miterlimit:4;stroke-dasharray:none;stroke:#808080;stroke-opacity:1;fill:#00b0ea;fill-opacity:1;stroke-linejoin:round;stroke-linecap:butt;paint-order:stroke fill markers;filter:url(#filter56454)">
      <path
         style="fill:#00b0ea;fill-opacity:1;stroke:#808080;stroke-width:0;stroke-linecap:butt;stroke-miterlimit:4;stroke-dasharray:none;stroke-opacity:1;paint-order:stroke fill markers;stroke-linejoin:round"
         d="m 49.039529,189.14228 c -4.224628,-0.60735 -9.384188,-2.32745 -12.382452,-4.12809 -7.41299,-4.45194 -11.754098,-10.87714 -13.816592,-20.44969 -0.69155,-3.20966 -0.692578,-13.67685 -0.0018,-17.85304 3.100982,-18.74613 13.316829,-39.6287 29.381834,-60.06042 9.082805,-11.551652 23.02337,-25.489236 34.430476,-34.423112 12.640366,-9.899748 25.617125,-17.745049 37.617055,-22.74197 11.4376,-4.762766 20.50579,-6.932489 30.04267,-7.188242 5.80996,-0.155807 8.85195,0.117782 12.6697,1.139477 5.82788,1.559644 9.50647,3.596403 13.34124,7.386763 4.53876,4.486201 6.70133,8.530429 8.34735,15.610417 0.85513,3.678161 0.99553,12.254609 0.2798,17.092216 -1.41821,9.585627 -4.19458,18.398019 -9.20161,29.206572 -1.07775,2.326521 -2.13538,4.405862 -2.35027,4.62076 -0.34458,0.344572 -0.39062,0.298087 -0.38985,-0.393579 5.3e-4,-0.431366 -0.24582,-2.229011 -0.54734,-3.994766 l -0.54822,-3.210465 1.49933,-3.271827 c 10.139,-22.125226 11.34315,-40.507016 3.34443,-51.054056 -3.62759,-4.783315 -8.5165,-7.690776 -15.39074,-9.152955 -3.05973,-0.650818 -11.66558,-0.649587 -15.42489,0.0022 -19.34723,3.354443 -40.79777,14.467898 -62.362613,32.309875 -14.391339,11.906872 -28.281448,26.839783 -38.654454,41.556442 -12.482666,17.70972 -20.22456,34.89392 -22.767404,50.53541 -0.535509,3.29402 -0.463354,11.91788 0.122861,14.68437 1.454561,6.86444 4.366822,11.7624 9.151142,15.39075 10.528253,7.98447 29.241457,6.75874 51.07493,-3.34543 l 3.292702,-1.52381 3.205147,0.56008 c 1.762831,0.30805 3.52557,0.56008 3.917196,0.56008 0.391626,0 0.712047,0.10428 0.712047,0.2317 0,0.31819 -8.588373,4.28678 -13.011563,6.0125 -7.162584,2.7945 -15.238373,4.9658 -21.54376,5.79237 -3.316811,0.43479 -11.309892,0.49143 -14.0364,0.0995 z"
         id="path31862" />
      <path
         style="fill:#00b0ea;fill-opacity:1;stroke:#808080;stroke-width:0;stroke-miterlimit:4;stroke-dasharray:none;stroke-opacity:1;paint-order:stroke fill markers;stroke-linejoin:round;stroke-linecap:butt"
         d="m 98.028127,171.68627 c -14.764005,-1.77293 -28.47129,-8.44942 -39.034798,-19.01293 -8.76759,-8.76759 -15.15754,-20.25756 -17.738535,-31.89621 l -0.587885,-2.651 1.79093,-2.90525 C 59.214489,88.038166 86.50757,60.58841 114.03254,43.235304 l 4.0791,-2.571665 2.65824,0.590285 c 6.31205,1.401646 14.38474,4.719728 19.98846,8.215765 8.44264,5.26718 16.17146,12.995995 21.43864,21.438643 4.78088,7.663172 8.16445,17.240618 9.37548,26.538031 0.5366,4.119647 0.5366,12.654287 0,16.773937 -1.39394,10.70168 -5.57519,21.4923 -11.53548,29.7698 l -1.27923,1.77655 10.75015,12.64324 c 5.91258,6.95378 10.92991,12.85159 11.14963,13.10626 0.3799,0.44032 -0.44333,0.46302 -16.79138,0.46302 h -17.19087 l -3.42149,-4.00965 c -1.88182,-2.2053 -3.55185,-4.18747 -3.71118,-4.40481 -0.24691,-0.33681 -0.83292,-0.12045 -3.96875,1.46532 -5.92459,2.99602 -11.8475,4.94835 -18.76032,6.18385 -2.57811,0.46077 -4.44338,0.58241 -9.92187,0.64701 -3.71078,0.0438 -7.699377,-0.0348 -8.863543,-0.17462 z m 12.670843,-23.11963 c 1.58469,-0.2109 3.94518,-0.68953 5.24553,-1.06363 2.29268,-0.65959 6.95863,-2.53446 7.37128,-2.96193 0.11196,-0.11598 -3.40153,-4.43759 -7.80774,-9.60358 l -8.01131,-9.39271 16.89958,-0.0681 16.89958,-0.0681 0.65046,-1.47079 c 0.95036,-2.14895 2.14211,-6.00253 2.82676,-9.14051 0.52762,-2.41825 0.59918,-3.48891 0.59918,-8.96398 0,-5.47506 -0.0716,-6.545721 -0.59918,-8.963978 -3.33714,-15.295227 -12.73024,-26.765123 -26.02023,-31.773257 -4.51271,-1.700549 -7.51812,-2.21606 -12.91955,-2.21606 -5.41185,0 -8.406339,0.515326 -12.955114,2.229464 -13.229617,4.985382 -22.656986,16.508026 -25.984653,31.759853 -0.527622,2.418257 -0.599186,3.488918 -0.599186,8.963978 0,6.83944 0.282919,8.84452 2.011489,14.25565 6.072209,19.00847 23.843423,30.94632 42.393104,28.47766 z M 40.08977,97.234374 C 41.991384,82.767013 48.611169,69.375487 58.993329,58.993327 69.378627,48.608028 82.692839,42.02561 97.234377,40.087318 l 1.322916,-0.176334 -4.101042,2.741631 C 83.989668,49.649746 75.901699,56.35143 66.126565,66.126562 56.332642,75.920485 49.735262,83.885266 42.660542,94.456249 l -2.744658,4.101042 z"
         id="path30403" />
    </g>
    <g
       id="g33767"
       style="fill:#00b0ea;fill-opacity:1;stroke:#808080;stroke-width:0;stroke-miterlimit:4;stroke-dasharray:none;stroke-opacity:1;paint-order:stroke fill markers;stroke-linejoin:round;stroke-linecap:butt;filter:url(#filter56466)">
      <path
         style="fill:#00b0ea;fill-opacity:1;stroke:#808080;stroke-width:0;stroke-miterlimit:4;stroke-dasharray:none;stroke-opacity:1;paint-order:stroke fill markers;stroke-linejoin:round;stroke-linecap:butt"
         d="m 260.83971,86.480086 -2.47409,-4.007416 -4.23333,-0.06106 c -3.55284,-0.05124 -4.64244,-0.168759 -6.77833,-0.731044 -9.98873,-2.62959 -17.28535,-10.195813 -19.44641,-20.16494 -0.22081,-1.018646 -0.46467,-3.161771 -0.54191,-4.7625 -0.62924,-13.041664 7.38136,-23.98637 19.98832,-27.309566 2.15988,-0.569346 3.16558,-0.675454 6.64603,-0.701209 5.40228,-0.03998 8.45691,0.627317 12.8323,2.803247 9.33809,4.643938 14.85518,14.348079 14.33122,25.207528 -0.33969,7.040473 -2.70634,12.753205 -7.33175,17.697788 -0.86654,0.926325 -1.57552,1.75446 -1.57552,1.840299 0,0.08584 2.24018,3.166293 4.97818,6.845451 2.738,3.679158 5.06674,6.838206 5.17499,7.020107 0.15599,0.262133 -1.80385,0.330729 -9.4494,0.330729 h -9.64621 z m -3.52187,-19.68442 c 4.58451,-1.187603 7.2563,-5.372396 7.2563,-11.365454 0,-7.251933 -3.9596,-11.773958 -10.30956,-11.773958 -6.34997,0 -10.30956,4.522025 -10.30956,11.773958 0,5.919578 2.66,10.151009 7.13456,11.349397 1.91902,0.513955 4.2827,0.520051 6.22826,0.01606 z m 48.49127,15.488131 C 297.25274,80.9205 291.17465,76.179778 288.6464,68.897413 c -1.39783,-4.026302 -1.38476,-3.833281 -1.49849,-22.132305 l -0.10648,-17.131771 h 8.21782 8.21783 v 15.465102 c 0,9.910945 0.10089,15.935544 0.28092,16.775009 0.39885,1.859743 1.58404,3.599106 2.94657,4.324294 0.9434,0.502111 1.54557,0.605759 3.51938,0.605759 3.43975,0 4.98431,-0.912231 6.27093,-3.70367 l 0.60824,-1.31962 0.074,-16.073437 0.074,-16.073437 h 8.20849 8.20848 l -0.0898,16.999479 -0.0898,16.999479 -0.6914,2.534168 c -2.25435,8.262818 -7.70941,13.51212 -16.2231,15.611194 -2.43965,0.601504 -8.40575,0.882018 -10.76484,0.50614 z m 213.51876,0 c -8.55639,-1.363297 -14.63448,-6.104019 -17.1627,-13.386384 -1.39785,-4.026302 -1.38478,-3.833281 -1.49852,-22.132305 l -0.10647,-17.131771 h 8.21783 8.21782 v 15.465102 c 0,9.910945 0.10089,15.935544 0.28094,16.775009 0.39883,1.859743 1.58403,3.599106 2.94655,4.324294 0.9434,0.502111 1.54557,0.605759 3.51939,0.605759 3.43974,0 4.9843,-0.912231 6.27094,-3.70367 l 0.60822,-1.31962 0.074,-16.073437 0.074,-16.073437 h 8.20849 8.20848 l -0.0898,16.999479 -0.0898,16.999479 -0.69138,2.534168 c -2.25438,8.262818 -7.70943,13.51212 -16.22311,15.611194 -2.43965,0.601504 -8.40576,0.882018 -10.76484,0.50614 z m -181.8952,-1.912993 c 0.33895,-0.911492 4.64716,-12.700306 9.5738,-26.197363 l 8.95754,-24.540104 9.54143,0.0048 9.54143,0.0048 9.37315,25.85825 c 5.15523,14.222036 9.42508,26.008721 9.48856,26.192633 0.0918,0.265914 -1.65732,0.32009 -8.54228,0.264583 l -8.65771,-0.06978 -1.23793,-3.836458 -1.23792,-3.836458 -8.76398,-0.06968 -8.76398,-0.06968 -1.30196,3.906142 -1.30196,3.906141 -8.64223,0.06976 -8.64223,0.06976 z m 32.61014,-19.155166 c -0.0912,-0.237752 -1.14194,-3.452439 -2.33491,-7.143749 -1.19296,-3.691308 -2.23238,-6.708495 -2.30982,-6.704859 -0.13082,0.0061 -0.63457,1.514967 -3.59747,10.775161 l -1.1217,3.505729 h 4.76489 c 4.30021,0 4.74872,-0.04216 4.59901,-0.432282 z m 27.62594,-5.392322 V 29.6258 l 8.23621,0.06991 8.23622,0.06992 8.69711,13.333338 8.69712,13.333341 V 43.032821 29.633337 h 8.20209 8.20208 v 26.19375 26.193749 h -8.20199 -8.20199 l -8.72544,-13.163021 -8.72545,-13.16302 -0.006,13.16302 -0.006,13.163021 h -8.20208 -8.20208 z m 68.52708,6.486062 V 42.59792 h -6.87917 -6.87916 v -6.482291 -6.482292 h 22.09271 22.0927 v 6.482292 6.482291 H 489.61146 482.6 v 19.711458 19.711458 h -8.20209 -8.20208 z m 87.84167,-6.482291 v -26.19375 h 10.02586 c 9.30185,0 10.03916,0.03344 10.21013,0.463021 0.18593,0.467146 10.54725,28.651049 11.05213,30.062958 0.20402,0.570561 0.32443,0.666496 0.48233,0.384341 0.11573,-0.206808 2.58958,-7.037874 5.49743,-15.180145 2.90785,-8.142274 5.36896,-15.012492 5.46913,-15.267154 0.16896,-0.429622 0.9053,-0.463021 10.20797,-0.463021 h 10.02585 v 26.19375 26.193749 h -8.19957 -8.19957 l -0.0687,-12.892344 -0.0687,-12.892344 -3.95996,12.892344 -3.95997,12.892344 h -7.02902 -7.02903 l -3.95997,-12.892344 -3.95996,-12.892344 -0.0687,12.892344 -0.0687,12.892344 h -8.19957 -8.19957 z"
         id="path32593" />
      <path
         style="fill:#00b0ea;fill-opacity:1;stroke:#808080;stroke-width:0;stroke-miterlimit:4;stroke-dasharray:none;stroke-opacity:1;paint-order:stroke fill markers;stroke-linejoin:round;stroke-linecap:butt"
         d="m 256.00685,160.1904 c -4.97826,-0.67775 -10.0735,-2.55922 -13.94555,-5.14954 -2.59335,-1.7349 -6.75009,-6.11031 -8.27996,-8.71555 -4.0991,-6.98041 -5.67167,-15.39151 -4.5201,-24.17623 0.96546,-7.36492 3.62358,-13.26569 8.12056,-18.02684 4.52755,-4.793506 9.84159,-7.612813 17.04841,-9.044836 3.20767,-0.637379 11.13899,-0.647414 14.55464,-0.01842 4.6793,0.861695 8.60552,2.403234 12.13494,4.764489 2.52715,1.690717 5.89916,5.304037 7.34694,7.872687 1.33839,2.37458 2.78166,6.43534 3.0289,8.52206 l 0.14891,1.25677 h -10.60673 -10.60672 l -0.69522,-0.91148 c -2.58706,-3.3918 -8.98918,-4.34838 -13.81796,-2.06462 -1.7058,0.80675 -3.95105,3.16481 -4.87629,5.12131 -2.86462,6.05745 -1.65624,15.96337 2.39044,19.59603 2.40677,2.16054 4.93882,3.05878 9.29918,3.29886 4.70832,0.25924 8.03692,-0.90159 10.99281,-3.83368 l 1.50711,-1.49496 -8.10204,-0.07 -8.10204,-0.07 v -7.13992 -7.13992 h 16.53646 16.53645 v 10.09082 10.09084 l -1.50467,2.27843 c -2.84476,4.30763 -9.11342,9.96601 -13.44428,12.13542 -5.46515,2.73758 -13.70976,3.84037 -21.14419,2.82821 z m 39.62304,-1.77113 c 0.33822,-0.9095 5.66325,-15.49466 11.83341,-32.41146 l 11.21847,-30.757808 11.77839,0.0048 11.77838,0.0048 11.62016,32.075938 c 6.39108,17.64176 11.67234,32.22477 11.73612,32.40667 0.0915,0.26104 -2.13826,0.33073 -10.58242,0.33073 h -10.69838 l -1.55079,-4.89769 -1.55079,-4.89769 -10.84465,0.069 -10.84466,0.0691 -1.60152,4.82864 -1.60151,4.82865 h -10.65257 -10.65257 z m 38.11153,-31.08854 c -1.36662,-4.18372 -2.68315,-8.26161 -2.92563,-9.06198 l -0.44088,-1.45521 -2.85992,8.73125 c -1.57295,4.80219 -2.86247,8.88008 -2.86558,9.06198 -0.004,0.25468 1.32595,0.33073 5.78555,0.33073 h 5.79121 z m 36.41066,0.33073 V 95.250002 h 10.18646 10.18646 v 24.738538 24.73854 h 9.78958 9.78958 v 7.67292 7.67292 h -19.97604 -19.97604 z m 42.42365,30.75781 c 0.33822,-0.9095 5.66325,-15.49466 11.83341,-32.41146 l 11.21847,-30.757808 11.77838,0.0048 11.77838,0.0048 11.62016,32.075938 c 6.39109,17.64178 11.67233,32.22478 11.73612,32.40668 0.0915,0.26104 -2.13826,0.33073 -10.58242,0.33073 h -10.69837 l -1.55079,-4.89769 -1.55079,-4.89768 -10.84466,0.069 -10.84465,0.069 -1.60152,4.82864 -1.60152,4.82865 h -10.65257 -10.65257 l 0.61494,-1.65365 z m 38.11152,-31.08854 c -1.36661,-4.18372 -2.68314,-8.26161 -2.92563,-9.06198 l -0.44087,-1.45521 -2.85992,8.73125 c -1.57296,4.80219 -2.86247,8.88008 -2.86558,9.06198 -0.004,0.25468 1.32594,0.33073 5.78554,0.33073 h 5.79121 z m 33.01423,32.528 c 0.049,-0.12089 4.8282,-7.67385 10.62041,-16.78436 l 10.53126,-16.56456 -10.49973,-14.9023 c -5.77484,-8.19627 -10.78878,-15.290459 -11.14208,-15.764876 l -0.64235,-0.862573 12.09619,0.06882 12.0962,0.06883 5.58025,7.988759 c 3.06914,4.39382 5.64562,7.99546 5.72553,8.00365 0.0799,0.008 2.26795,-3.61652 4.86235,-8.05491 l 4.71707,-8.06979 h 11.47567 c 6.31161,0 11.47567,0.06394 11.47567,0.142089 0,0.07815 -4.59725,7.365961 -10.2161,16.195131 -5.61882,8.82918 -10.27305,16.20153 -10.34269,16.383 -0.0696,0.18147 4.85502,7.37945 10.94369,15.9955 6.08868,8.61605 11.16553,15.82445 11.28189,16.01866 0.17518,0.29235 -1.85367,0.35312 -11.79028,0.35312 h -12.00185 l -5.93682,-8.44391 c -3.26525,-4.64415 -5.97485,-8.40617 -6.02139,-8.36004 -0.0465,0.0461 -2.26237,3.81611 -4.92416,8.37776 l -4.8396,8.2939 -11.56912,0.0689 c -6.36302,0.0379 -11.52901,-0.03 -11.48001,-0.15084 z m 92.03185,-9.65889 v -9.87307 l -11.38618,-22.14361 c -6.26243,-12.17899 -11.45487,-22.322526 -11.53877,-22.541191 -0.13454,-0.35062 1.21655,-0.38943 11.4405,-0.328623 l 11.59306,0.06895 4.92938,10.947964 c 2.71116,6.02138 5.03819,11.11596 5.1712,11.32128 0.17364,0.26802 1.05584,-1.43926 3.12782,-6.05318 1.58729,-3.53456 3.89353,-8.65891 5.12501,-11.38742 l 2.23901,-4.960936 H 607.808 c 9.69193,0 11.3524,0.0553 11.23011,0.373997 -0.0789,0.205697 -5.2709,10.346199 -11.53769,22.534449 l -11.39417,22.16046 v 9.877 9.87701 h -10.18646 -10.18646 z"
         id="path32844" />
      <path
         style="fill:#00b0ea;fill-opacity:1;stroke:#808080;stroke-width:0;stroke-miterlimit:4;stroke-dasharray:none;stroke-opacity:1;paint-order:stroke fill markers;stroke-linejoin:round;stroke-linecap:butt"
         d="m 227.80624,174.86897 v -7.95812 l 4.96094,0.0868 c 5.41201,0.0946 6.10568,0.27026 7.27748,1.84247 1.21116,1.62501 0.74158,4.50685 -0.8967,5.50315 -0.77301,0.4701 -0.80842,0.54223 -0.34665,0.70604 2.48097,0.88014 3.15498,4.51637 1.19961,6.47175 -1.08583,1.08583 -2.33379,1.30295 -7.49832,1.30458 l -4.69636,0.001 z m 8.30564,3.39405 c 0.53321,-0.84954 -0.11088,-1.37952 -1.78459,-1.46841 l -1.49396,-0.0794 v 1.08474 1.08474 l 1.49396,-0.0794 c 1.07493,-0.0571 1.57549,-0.20922 1.78459,-0.54237 z m -0.78665,-5.12154 c 0.49445,-0.18973 0.56098,-1.44318 0.10101,-1.90315 -0.17462,-0.17462 -0.82947,-0.3175 -1.4552,-0.3175 h -1.13771 v 1.19063 1.19062 h 1.03669 c 0.57018,0 1.22503,-0.0723 1.45521,-0.1606 z m 7.56226,1.7481 v -7.9375 h 5.15938 5.15937 v 1.98438 1.98437 h -2.64583 -2.64583 v 1.05834 1.05833 h 2.24896 2.24895 v 1.85208 1.85209 h -2.24895 -2.24896 v 1.05833 1.05833 h 2.64583 2.64583 v 1.98438 1.98437 h -5.15937 -5.15938 z m 16.65946,5.49011 -0.009,-2.4474 -2.72718,-5.35781 -2.72719,-5.35781 h 2.74271 2.7427 l 1.25613,2.69032 1.25612,2.69033 1.23972,-2.69033 1.23973,-2.69032 h 2.6573 c 1.46152,0 2.6573,0.0769 2.6573,0.17095 0,0.094 -1.19062,2.46368 -2.64583,5.26591 l -2.64583,5.09495 v 2.5393 2.5393 h -2.51354 -2.51355 l -0.009,-2.44739 z m 16.23466,2.01413 c -1.51734,-0.53766 -3.40999,-2.27317 -4.25281,-3.89973 -0.94392,-1.82166 -1.0254,-5.20618 -0.16991,-7.05753 0.81311,-1.75964 2.05617,-3.04199 3.75972,-3.87856 2.02564,-0.99474 5.09508,-1.05427 6.96089,-0.13501 3.78514,1.86489 5.48,6.17759 4.07475,10.36854 -0.63639,1.89793 -2.66114,3.96938 -4.48853,4.59203 -1.58609,0.54044 -4.37415,0.54529 -5.88411,0.0103 z m 4.87564,-4.64885 c 1.06193,-0.88065 1.42329,-3.21441 0.74796,-4.83069 -0.75766,-1.81333 -3.43729,-2.26914 -4.87687,-0.82955 -1.22192,1.22191 -1.04741,5.06066 0.26699,5.873 1.02907,0.63601 2.96718,0.52923 3.86192,-0.21276 z m 7.73858,-2.85539 v -7.9375 h 2.47175 2.47176 l 2.48918,3.96654 2.48918,3.96653 0.073,-3.96653 0.073,-3.96654 h 2.50665 2.50665 v 7.94708 7.94708 l -2.5479,-0.0757 -2.5479,-0.0757 -2.41304,-3.76246 -2.41304,-3.76246 -0.0732,3.82861 -0.0732,3.8286 h -2.50646 -2.50647 z m 17.19791,0.15897 v -7.83188 h 3.92073 c 5.96326,0 8.10786,0.90622 9.70532,4.10107 0.68523,1.37044 0.79321,1.87685 0.78979,3.70413 -0.006,3.36098 -1.37459,5.61815 -4.26687,7.03868 -1.16815,0.57373 -1.68974,0.63993 -5.71719,0.72561 l -4.43178,0.0943 z m 7.77685,3.14405 c 1.12704,-0.53481 1.74815,-1.65704 1.74815,-3.15854 0,-2.29098 -1.28561,-3.58406 -3.56337,-3.58406 h -0.93454 v 3.57187 3.57188 h 0.9522 c 0.52371,0 1.33261,-0.18052 1.79756,-0.40115 z m 12.33149,-3.17073 v -7.8052 h 2.51354 2.51354 v 5.95312 5.95313 h 2.24896 2.24896 v 1.85208 1.85208 h -4.7625 -4.7625 z m 11.1125,-0.13229 v -7.9375 h 2.51354 2.51354 v 7.9375 7.9375 h -2.51354 -2.51354 z m 7.14375,0 v -7.9375 h 3.01227 3.01227 l 1.49924,4.30586 c 0.82458,2.36822 1.59565,4.46186 1.71349,4.65253 0.20307,0.32856 1.01384,-1.71836 2.76237,-6.97401 l 0.61618,-1.85209 3.0848,-0.0745 3.0848,-0.0745 v 7.9459 7.94589 h -2.51355 -2.51354 l -0.0209,-3.77031 c -0.0236,-4.25264 0.064,-4.31198 -1.56198,1.05833 l -0.82111,2.71198 h -2.04153 -2.04154 l -1.05596,-3.63802 -1.05595,-3.63802 -0.0736,3.63802 -0.0736,3.63802 h -2.50607 -2.50608 v -7.9375 z m 20.90208,0 v -7.9375 h 2.51354 2.51355 v 7.9375 7.9375 h -2.51355 -2.51354 z m 10.31875,1.98438 v -5.95313 h -1.98437 -1.98438 v -1.98437 -1.98438 h 6.48229 6.4823 v 1.98438 1.98437 h -1.98438 -1.98437 v 5.95313 5.95312 h -2.51355 -2.51354 z m 13.62604,5.63389 c -1.88981,-0.66059 -3.54967,-2.69796 -3.56606,-4.37712 -0.006,-0.5761 0.0755,-0.59531 2.51428,-0.59531 2.41522,0 2.53012,0.0264 2.76103,0.63371 0.28578,0.75166 0.76328,0.97142 1.39961,0.64414 1.14613,-0.58948 0.32428,-1.42833 -2.44653,-2.49712 -2.53993,-0.97974 -3.85944,-2.23098 -4.10922,-3.89663 -0.25072,-1.67191 0.0518,-2.72286 1.1259,-3.91179 2.77466,-3.07122 9.61202,-2.0186 10.66169,1.64138 0.45485,1.58596 0.48609,1.56547 -2.38757,1.56547 -2.14722,0 -2.64583,-0.073 -2.64583,-0.38756 0,-0.45387 -0.77981,-0.91629 -1.25677,-0.74526 -0.47924,0.17184 -0.40558,0.98468 0.13229,1.4599 0.25466,0.22501 1.39425,0.79389 2.53241,1.26418 3.28622,1.35789 4.48548,2.99326 4.02326,5.48635 -0.29154,1.57245 -1.09164,2.61171 -2.58277,3.35477 -1.12195,0.55909 -1.72047,0.67641 -3.36339,0.65923 -1.09922,-0.0115 -2.35576,-0.14574 -2.79233,-0.29834 z m 10.95986,-0.45417 c -0.52784,-0.52784 -0.7734,-1.03833 -0.7734,-1.60785 0,-0.56951 0.24556,-1.08001 0.7734,-1.60785 0.63323,-0.63323 0.99656,-0.7734 2.00473,-0.7734 1.00816,0 1.3715,0.14017 2.00472,0.7734 0.52785,0.52784 0.7734,1.03834 0.7734,1.60785 0,0.56952 -0.24555,1.08001 -0.7734,1.60785 -0.63322,0.63323 -0.99656,0.7734 -2.00472,0.7734 -1.00817,0 -1.3715,-0.14017 -2.00473,-0.7734 z m 10.07452,-7.18471 v -7.95812 l 4.96094,0.0868 c 5.412,0.0946 6.10568,0.27026 7.27748,1.84247 1.21116,1.62501 0.74158,4.50685 -0.89671,5.50315 -0.773,0.4701 -0.80841,0.54223 -0.34665,0.70604 2.48098,0.88014 3.15499,4.51637 1.19961,6.47175 -1.08583,1.08583 -2.33378,1.30295 -7.49832,1.30458 l -4.69635,0.001 z m 8.30564,3.39405 c 0.53321,-0.84954 -0.11088,-1.37952 -1.78459,-1.46841 l -1.49397,-0.0794 v 1.08474 1.08474 l 1.49397,-0.0794 c 1.07493,-0.0571 1.57548,-0.20922 1.78459,-0.54237 z m -0.78666,-5.12154 c 0.49446,-0.18973 0.56099,-1.44318 0.10102,-1.90315 -0.17463,-0.17462 -0.82947,-0.3175 -1.45521,-0.3175 h -1.13771 v 1.19063 1.19062 h 1.0367 c 0.57018,0 1.22502,-0.0723 1.4552,-0.1606 z m 7.56227,1.7481 v -7.9375 h 5.15938 5.15937 v 1.98438 1.98437 h -2.64583 -2.64584 v 1.05834 1.05833 h 2.24896 2.24896 v 1.85208 1.85209 h -2.24896 -2.24896 v 1.05833 1.05833 h 2.64584 2.64583 v 1.98438 1.98437 h -5.15937 -5.15938 z m 16.65946,5.49011 -0.009,-2.4474 -2.72719,-5.35781 -2.72718,-5.35781 h 2.7427 2.74271 l 1.25612,2.69032 1.25612,2.69033 1.23973,-2.69033 1.23973,-2.69032 h 2.6573 c 1.46151,0 2.6573,0.0769 2.6573,0.17095 0,0.094 -1.19062,2.46368 -2.64583,5.26591 l -2.64584,5.09495 v 2.5393 2.5393 h -2.51354 -2.51354 l -0.009,-2.44739 z m 16.23466,2.01413 c -1.51734,-0.53766 -3.40999,-2.27317 -4.25281,-3.89973 -0.94392,-1.82166 -1.0254,-5.20618 -0.16991,-7.05753 0.81311,-1.75964 2.05616,-3.04199 3.75972,-3.87856 2.02564,-0.99474 5.09508,-1.05427 6.96089,-0.13501 3.78514,1.86489 5.48,6.17759 4.07475,10.36854 -0.63639,1.89793 -2.66114,3.96938 -4.48853,4.59203 -1.58609,0.54044 -4.37415,0.54529 -5.88411,0.0103 z m 4.87563,-4.64885 c 1.06194,-0.88065 1.42329,-3.21441 0.74797,-4.83069 -0.75766,-1.81333 -3.43729,-2.26914 -4.87688,-0.82955 -1.22191,1.22191 -1.0474,5.06066 0.267,5.873 1.02907,0.63601 2.96717,0.52923 3.86191,-0.21276 z m 7.73858,-2.85539 v -7.9375 h 2.47176 2.47175 l 2.4892,3.96654 2.48917,3.96653 0.073,-3.96653 0.0731,-3.96654 h 2.50663 2.50666 v 7.94708 7.94708 l -2.54791,-0.0757 -2.54788,-0.0757 -2.41305,-3.76246 -2.41303,-3.76246 -0.0732,3.82861 -0.0732,3.8286 h -2.50647 -2.50647 z m 17.19792,0.15897 v -7.83188 h 3.92073 c 5.96326,0 8.10786,0.90622 9.70531,4.10107 0.68525,1.37044 0.79322,1.87685 0.78978,3.70413 -0.006,3.36098 -1.37456,5.61815 -4.26685,7.03868 -1.16816,0.57373 -1.68974,0.63993 -5.7172,0.72561 l -4.43177,0.0943 z m 7.77685,3.14405 c 1.12704,-0.53481 1.74815,-1.65704 1.74815,-3.15854 0,-2.29098 -1.28561,-3.58406 -3.56338,-3.58406 h -0.93454 v 3.57187 3.57188 h 0.95221 c 0.52369,0 1.3326,-0.18052 1.79756,-0.40115 z m 16.16794,4.01055 c -1.60538,-0.75088 -2.82191,-1.95634 -3.6155,-3.58259 -0.48112,-0.98593 -0.59434,-1.67025 -0.59534,-3.59869 -0.003,-2.74351 0.6137,-4.51913 2.04563,-5.90471 2.6467,-2.56107 7.82772,-2.836 10.57341,-0.56107 1.06214,0.88001 2.04284,2.51829 2.04284,3.41254 0,0.50364 -0.16073,0.5397 -2.40567,0.5397 -2.00501,0 -2.51769,-0.0881 -3.07837,-0.52916 -1.06135,-0.83485 -2.33971,-0.69582 -3.40596,0.37041 -0.84402,0.84404 -0.89958,1.00905 -0.89958,2.67229 0,1.66325 0.0556,1.82826 0.89958,2.6723 0.76761,0.76762 1.08183,0.89958 2.14199,0.89958 1.16808,0 2.77926,-0.6466 2.77926,-1.11538 0,-0.11414 -0.83343,-0.20754 -1.85208,-0.20754 H 514.35 v -1.71979 -1.71979 h 3.96875 3.96875 v 2.43317 c 0,2.1739 -0.0715,2.53639 -0.67122,3.40174 -0.77399,1.11688 -2.49793,2.4121 -3.80003,2.855 -1.5962,0.54295 -4.74668,0.3825 -6.24438,-0.31801 z m 12.4514,-1.94619 c 0.51671,-1.42409 1.78409,-4.94074 2.81638,-7.81477 l 1.87691,-5.22552 h 2.84257 c 2.46158,0 2.86695,0.062 3.02435,0.46302 0.1,0.25466 1.29326,3.55864 2.65173,7.34218 1.35848,3.78355 2.55405,7.09202 2.65682,7.35216 0.17288,0.43772 -0.006,0.46731 -2.40356,0.39688 l -2.59037,-0.0761 -0.37423,-1.12448 -0.37423,-1.12448 h -2.60172 -2.60173 l -0.37423,1.12448 -0.37423,1.12448 -2.55696,0.0757 -2.55696,0.0757 z m 8.84756,-3.69496 c 0,-0.41917 -1.17657,-3.78908 -1.32291,-3.78908 -0.14635,0 -1.32292,3.36991 -1.32292,3.78908 0,0.0988 0.59531,0.17967 1.32292,0.17967 0.7276,0 1.32291,-0.0808 1.32291,-0.17967 z m 8.20209,-1.51345 v -7.83188 h 3.92072 c 5.96326,0 8.10787,0.90622 9.70532,4.10107 0.68524,1.37044 0.79322,1.87685 0.78978,3.70413 -0.006,3.36098 -1.37457,5.61815 -4.26686,7.03868 -1.16816,0.57373 -1.68973,0.63993 -5.71719,0.72561 l -4.43177,0.0943 z m 7.77684,3.14405 c 1.12705,-0.53481 1.74816,-1.65704 1.74816,-3.15854 0,-2.29098 -1.28562,-3.58406 -3.56339,-3.58406 H 546.1 v 3.57187 3.57188 h 0.95221 c 0.52369,0 1.3326,-0.18052 1.79755,-0.40115 z m 12.46378,4.01055 c -1.60539,-0.75088 -2.82191,-1.95634 -3.6155,-3.58259 -0.48112,-0.98593 -0.59434,-1.67025 -0.59534,-3.59869 -0.003,-2.74351 0.6137,-4.51913 2.04562,-5.90471 2.64671,-2.56107 7.82773,-2.836 10.57341,-0.56107 1.06215,0.88001 2.04285,2.51829 2.04285,3.41254 0,0.50364 -0.16073,0.5397 -2.40567,0.5397 -2.00501,0 -2.51769,-0.0881 -3.07837,-0.52916 -1.06135,-0.83485 -2.33971,-0.69582 -3.40596,0.37041 -0.84402,0.84404 -0.89958,1.00905 -0.89958,2.67229 0,1.66325 0.0556,1.82826 0.89958,2.6723 0.76761,0.76762 1.08183,0.89958 2.14199,0.89958 1.16808,0 2.77926,-0.6466 2.77926,-1.11538 0,-0.11414 -0.83344,-0.20754 -1.85208,-0.20754 h -1.85208 v -1.71979 -1.71979 h 3.96875 3.96875 v 2.43317 c 0,2.1739 -0.0715,2.53639 -0.67123,3.40174 -0.77398,1.11688 -2.49793,2.4121 -3.80002,2.855 -1.59621,0.54295 -4.74668,0.3825 -6.24438,-0.31801 z m 12.56771,-7.31357 v -7.9375 h 5.15937 5.15938 v 1.98438 1.98437 h -2.64583 -2.64584 v 1.05834 1.05833 h 2.24896 2.24896 v 1.85208 1.85209 h -2.24896 -2.24896 v 1.05833 1.05833 h 2.64584 2.64583 v 1.98438 1.98437 h -5.15938 -5.15937 z m 15.34583,1.98438 v -5.95313 h -1.98437 -1.98438 v -1.98437 -1.98438 h 6.48229 6.4823 v 1.98438 1.98437 h -1.98438 -1.98437 v 5.95313 5.95312 h -2.51355 -2.51354 z m 13.62604,5.63389 c -1.88981,-0.66059 -3.54967,-2.69796 -3.56605,-4.37712 -0.006,-0.5761 0.0755,-0.59531 2.51428,-0.59531 2.4152,0 2.53011,0.0264 2.76101,0.63371 0.2858,0.75166 0.7633,0.97142 1.39962,0.64414 1.14615,-0.58948 0.32427,-1.42833 -2.44652,-2.49712 -2.53995,-0.97974 -3.85945,-2.23098 -4.10922,-3.89663 -0.25072,-1.67191 0.0517,-2.72286 1.12588,-3.91179 2.77466,-3.07122 9.61202,-2.0186 10.6617,1.64138 0.45485,1.58596 0.4861,1.56547 -2.38757,1.56547 -2.14723,0 -2.64583,-0.073 -2.64583,-0.38756 0,-0.45387 -0.77981,-0.91629 -1.25677,-0.74526 -0.47924,0.17184 -0.40558,0.98468 0.13229,1.4599 0.25466,0.22501 1.39425,0.79389 2.5324,1.26418 3.28623,1.35789 4.48548,2.99326 4.02326,5.48635 -0.29152,1.57245 -1.09165,2.61171 -2.58276,3.35477 -1.12196,0.55909 -1.72048,0.67641 -3.36338,0.65923 -1.09924,-0.0115 -2.35577,-0.14574 -2.79234,-0.29834 z m 10.95987,-0.45417 c -0.52785,-0.52784 -0.77341,-1.03833 -0.77341,-1.60785 0,-0.56951 0.24556,-1.08001 0.77341,-1.60785 0.63322,-0.63323 0.99655,-0.7734 2.00472,-0.7734 1.00817,0 1.37149,0.14017 2.00472,0.7734 0.52784,0.52784 0.7734,1.03834 0.7734,1.60785 0,0.56952 -0.24556,1.08001 -0.7734,1.60785 -0.63323,0.63323 -0.99655,0.7734 -2.00472,0.7734 -1.00817,0 -1.3715,-0.14017 -2.00472,-0.7734 z"
         id="path33059" />
    </g>
  </g>
</svg>
