<?xml version="1.0" encoding="UTF-8" standalone="no"?>
<!-- Created with Inkscape (http://www.inkscape.org/) -->

<svg
   version="1.1"
   id="svg2"
   width="345.60001"
   height="217.60001"
   viewBox="0 0 345.60001 217.60001"
   sodipodi:docname="1.png"
   inkscape:version="1.1.2 (0a00cf5339, 2022-02-04)"
   xmlns:inkscape="http://www.inkscape.org/namespaces/inkscape"
   xmlns:sodipodi="http://sodipodi.sourceforge.net/DTD/sodipodi-0.dtd"
   xmlns="http://www.w3.org/2000/svg"
   xmlns:svg="http://www.w3.org/2000/svg">
  <defs
     id="defs6" />
  <sodipodi:namedview
     id="namedview4"
     pagecolor="#ffffff"
     bordercolor="#666666"
     borderopacity="1.0"
     inkscape:pageshadow="2"
     inkscape:pageopacity="0.0"
     inkscape:pagecheckerboard="0"
     showgrid="false"
     inkscape:zoom="1.2071557"
     inkscape:cx="-53.017189"
     inkscape:cy="125.08743"
     inkscape:window-width="1920"
     inkscape:window-height="947"
     inkscape:window-x="0"
     inkscape:window-y="0"
     inkscape:window-maximized="1"
     inkscape:current-layer="g8" />
  <g
     inkscape:groupmode="layer"
     inkscape:label="Image"
     id="g8">
    <g
       id="g1767"
       transform="matrix(0.90702774,0,0,0.90702774,56.81549,18.800021)">
      <path
         d="m 46.53925,198.01131 v -13.17148 c 0,-5.04907 -3.073346,-8.34195 -8.34194,-8.34195 -2.634298,0 -5.488119,0.8781 -7.463842,3.73193 -1.536674,-2.41478 -3.731921,-3.73193 -7.024792,-3.73193 -2.195248,0 -4.390496,0.65858 -6.146694,3.07335 v -2.6343 h -4.610019 v 21.07438 h 4.610019 V 186.3765 c 0,-3.73192 1.975723,-5.48812 5.04907,-5.48812 3.073346,0 4.61002,1.97572 4.61002,5.48812 v 11.63481 h 4.61002 V 186.3765 c 0,-3.73192 2.195247,-5.48812 5.049069,-5.48812 3.073347,0 4.61002,1.97572 4.61002,5.48812 v 11.63481 z m 68.2722,-21.07438 h -7.46384 v -6.36621 h -4.61002 v 6.36621 h -4.170972 v 4.17097 h 4.170972 v 9.65909 c 0,4.82955 1.97572,7.68337 7.24432,7.68337 1.97572,0 4.17097,-0.65857 5.70764,-1.53667 l -1.31715,-3.95145 c -1.31715,0.8781 -2.85382,1.09763 -3.95144,1.09763 -2.19525,0 -3.07335,-1.31715 -3.07335,-3.5124 v -9.43957 h 7.46384 z m 39.07541,-0.43905 c -2.6343,0 -4.3905,1.31715 -5.48812,3.07335 v -2.6343 h -4.61002 v 21.07438 h 4.61002 v -11.85434 c 0,-3.51239 1.53667,-5.48811 4.39049,-5.48811 0.8781,0 1.97573,0.21952 2.85382,0.43904 l 1.31715,-4.39049 c -0.87809,-0.21953 -2.19524,-0.21953 -3.07334,-0.21953 z m -59.052163,2.19525 c -2.195248,-1.53667 -5.268594,-2.19525 -8.561466,-2.19525 -5.268594,0 -8.78099,2.6343 -8.78099,6.80527 0,3.5124 2.634297,5.48812 7.244317,6.1467 l 2.195248,0.21952 c 2.414772,0.43905 3.73192,1.09762 3.73192,2.19525 0,1.53667 -1.756198,2.6343 -4.829544,2.6343 -3.073347,0 -5.488119,-1.09763 -7.024793,-2.19525 l -2.195247,3.51239 c 2.414772,1.7562 5.707644,2.6343 9.000515,2.6343 6.146694,0 9.65909,-2.85382 9.65909,-6.80527 0,-3.73192 -2.853823,-5.70764 -7.244317,-6.36621 l -2.195248,-0.21953 c -1.975723,-0.21952 -3.512396,-0.65857 -3.512396,-1.97572 0,-1.53668 1.536673,-2.41477 3.951445,-2.41477 2.634297,0 5.268595,1.09762 6.585743,1.75619 z m 122.494813,-2.19525 c -2.6343,0 -4.39049,1.31715 -5.48812,3.07335 v -2.6343 h -4.61002 v 21.07438 h 4.61002 v -11.85434 c 0,-3.51239 1.53668,-5.48811 4.3905,-5.48811 0.8781,0 1.97572,0.21952 2.85382,0.43904 l 1.31715,-4.39049 c -0.8781,-0.21953 -2.19525,-0.21953 -3.07335,-0.21953 z m -58.83263,10.97624 c 0,6.36622 4.39049,10.97624 11.19576,10.97624 3.07335,0 5.26859,-0.65857 7.46384,-2.41477 l -2.19525,-3.73192 c -1.75619,1.31715 -3.51239,1.97572 -5.48812,1.97572 -3.73192,0 -6.36621,-2.6343 -6.36621,-6.80527 0,-3.95144 2.63429,-6.58574 6.36621,-6.80526 1.97573,0 3.73193,0.65857 5.48812,1.97572 l 2.19525,-3.73192 c -2.19525,-1.7562 -4.39049,-2.41478 -7.46384,-2.41478 -6.80527,0 -11.19576,4.61002 -11.19576,10.97624 z m 42.5878,0 v -10.53719 h -4.61002 v 2.6343 c -1.53667,-1.97572 -3.73192,-3.07335 -6.58574,-3.07335 -5.92717,0 -10.53719,4.61002 -10.53719,10.97624 0,6.36622 4.61002,10.97624 10.53719,10.97624 3.07334,0 5.26859,-1.09762 6.58574,-3.07335 v 2.6343 h 4.61002 z m -16.90341,0 c 0,-3.73192 2.41478,-6.80526 6.36622,-6.80526 3.73192,0 6.36622,2.85382 6.36622,6.80526 0,3.73192 -2.6343,6.80527 -6.36622,6.80527 -3.95144,-0.21952 -6.36622,-3.07335 -6.36622,-6.80527 z m -55.10071,-10.97624 c -6.14669,0 -10.53719,4.3905 -10.53719,10.97624 0,6.58575 4.3905,10.97624 10.75671,10.97624 3.07335,0 6.1467,-0.8781 8.56147,-2.85382 l -2.19525,-3.29287 c -1.7562,1.31715 -3.95144,2.19525 -6.14669,2.19525 -2.85382,0 -5.70764,-1.31715 -6.36622,-5.04907 h 15.58626 v -1.7562 c 0.21952,-6.80527 -3.73192,-11.19577 -9.65909,-11.19577 z m 0,3.95145 c 2.85382,0 4.82954,1.7562 5.26859,5.04907 h -10.97623 c 0.43905,-2.85382 2.41477,-5.04907 5.70764,-5.04907 z m 114.3724,7.02479 v -18.87913 h -4.61002 v 10.97624 c -1.53668,-1.97572 -3.73192,-3.07335 -6.58574,-3.07335 -5.92717,0 -10.53719,4.61002 -10.53719,10.97624 0,6.36622 4.61002,10.97624 10.53719,10.97624 3.07334,0 5.26859,-1.09762 6.58574,-3.07335 v 2.6343 h 4.61002 z m -16.90341,0 c 0,-3.73192 2.41477,-6.80526 6.36622,-6.80526 3.73192,0 6.36622,2.85382 6.36622,6.80526 0,3.73192 -2.6343,6.80527 -6.36622,6.80527 -3.95145,-0.21952 -6.36622,-3.07335 -6.36622,-6.80527 z m -154.106378,0 v -10.53719 h -4.61002 v 2.6343 c -1.536673,-1.97572 -3.731921,-3.07335 -6.585743,-3.07335 -5.927169,0 -10.537189,4.61002 -10.537189,10.97624 0,6.36622 4.61002,10.97624 10.537189,10.97624 3.073347,0 5.268594,-1.09762 6.585743,-3.07335 v 2.6343 h 4.61002 z m -17.122932,0 c 0,-3.73192 2.414773,-6.80526 6.366218,-6.80526 3.731921,0 6.366219,2.85382 6.366219,6.80526 0,3.73192 -2.634298,6.80527 -6.366219,6.80527 -3.951445,-0.21952 -6.366218,-3.07335 -6.366218,-6.80527 z"
         fill="#000000"
         id="path1759" />
      <rect
         fill="#ff5f00"
         x="93.298042"
         y="16.903408"
         width="69.150299"
         height="124.25101"
         id="rect1761" />
      <path
         d="m 97.688519,79.028893 c 0,-25.245347 11.854341,-47.636872 30.074891,-62.125506 C 114.3724,6.3661985 97.468994,-1.9473748e-5 79.028914,-1.9473748e-5 35.343488,-1.9473748e-5 1.7258174e-6,35.343466 1.7258174e-6,79.028893 1.7258174e-6,122.71432 35.343488,158.05781 79.028914,158.05781 c 18.44008,0 35.343486,-6.36622 48.734496,-16.90341 C 109.54286,126.88529 97.688519,104.27424 97.688519,79.028893 Z"
         fill="#eb001b"
         id="path1763" />
      <path
         d="m 255.74634,79.028893 c 0,43.685427 -35.34348,79.028917 -79.02891,79.028917 -18.44008,0 -35.34349,-6.36622 -48.73449,-16.90341 18.44007,-14.48863 30.07489,-36.88016 30.07489,-62.125507 0,-25.245347 -11.85434,-47.636872 -30.07489,-62.125506 13.391,-10.5371885 30.29441,-16.903406473748 48.73449,-16.903406473748 43.68543,0 79.02891,35.563010473748 79.02891,79.028912473748 z"
         fill="#f79e1b"
         id="path1765" />
    </g>
  </g>
</svg>
