<?xml version="1.0" encoding="UTF-8" standalone="no"?>
<!-- Created with Inkscape (http://www.inkscape.org/) -->

<svg
   version="1.1"
   id="svg2"
   width="323.51999"
   height="204.16"
   viewBox="0 0 323.51999 204.16"
   sodipodi:docname="billease.png"
   inkscape:version="1.1.2 (0a00cf5339, 2022-02-04)"
   xmlns:inkscape="http://www.inkscape.org/namespaces/inkscape"
   xmlns:sodipodi="http://sodipodi.sourceforge.net/DTD/sodipodi-0.dtd"
   xmlns="http://www.w3.org/2000/svg"
   xmlns:svg="http://www.w3.org/2000/svg">
  <defs
     id="defs6" />
  <sodipodi:namedview
     id="namedview4"
     pagecolor="#ffffff"
     bordercolor="#666666"
     borderopacity="1.0"
     inkscape:pageshadow="2"
     inkscape:pageopacity="0.0"
     inkscape:pagecheckerboard="0"
     showgrid="false"
     inkscape:zoom="2.5790864"
     inkscape:cx="161.87903"
     inkscape:cy="101.97409"
     inkscape:window-width="1920"
     inkscape:window-height="947"
     inkscape:window-x="0"
     inkscape:window-y="0"
     inkscape:window-maximized="1"
     inkscape:current-layer="g8" />
  <g
     inkscape:groupmode="layer"
     inkscape:label="Image"
     id="g8">
    <path
       style="fill:#31f0a0;stroke-width:0.32;fill-opacity:1"
       d="m 189.52957,135.99955 c -0.39074,-0.16051 -0.77744,-0.62208 -0.85935,-1.0257 -0.60877,-3.00005 -0.37239,-5.51872 0.59315,-6.32005 0.24883,-0.20652 1.29037,-0.45372 2.31452,-0.54934 4.42264,-0.41292 7.74128,-2.35398 8.2906,-4.84912 0.10356,-0.47044 0.40619,-1.54867 0.67251,-2.39607 0.26631,-0.8474 0.40052,-1.62441 0.29824,-1.72668 -0.10227,-0.10228 -1.01694,0.18422 -2.0326,0.63666 -4.08268,1.8187 -8.17531,2.23225 -12.48975,1.26207 -6.25928,-1.40752 -11.45944,-7.40013 -12.38463,-14.27196 -0.50873,-3.77854 -0.37225,-19.892813 0.17405,-20.551069 0.272,-0.327744 1.20285,-0.448291 3.46167,-0.448291 4.84142,0 4.44549,-0.977696 4.56856,11.281674 0.0987,9.829276 0.13659,10.386576 0.8,11.758326 1.72114,3.5588 4.5631,5.08717 8.67591,4.6658 3.67568,-0.37658 6.36718,-2.33983 7.49327,-5.4658 0.64887,-1.80123 0.69297,-2.51574 0.71297,-11.550461 0.017,-7.667897 0.1108,-9.738374 0.46048,-10.16 0.35692,-0.430349 1.05985,-0.529539 3.75263,-0.529539 3.15112,0 3.33827,0.0379 3.82035,0.773648 0.45091,0.688176 0.49398,2.747562 0.38985,18.640002 -0.1144,17.45957 -0.13353,17.92099 -0.84052,20.26635 -1.99289,6.61113 -6.86228,10.09891 -14.92149,10.68774 -1.232,0.09 -2.55969,0.0323 -2.95042,-0.12819 z M 146.24,121.99199 c -3.89939,-0.42898 -7.13987,-2.04305 -10.07847,-5.02004 -4.13905,-4.19313 -5.90332,-8.91494 -5.4617,-14.61742 0.27527,-3.554476 0.92413,-5.339192 3.23002,-8.884184 4.00067,-6.150503 11.15504,-9.289303 18.25137,-8.007328 2.17497,0.392915 8.00341,3.064505 8.90154,4.080214 0.82358,0.931398 1.26347,0.550432 0.67606,-0.585501 -1.23049,-2.379504 -0.31527,-3.197731 3.57677,-3.197731 2.38875,0 2.97634,0.100694 3.41481,0.585197 0.4789,0.529177 0.52862,2.191008 0.51942,17.360003 -0.008,13.18971 -0.0984,16.89087 -0.42294,17.31792 -0.51748,0.68092 -5.08741,0.90497 -6.20311,0.30412 -0.7801,-0.42011 -1.21219,-1.60866 -0.94971,-2.61238 0.0913,-0.34917 0.0604,-0.63486 -0.0687,-0.63486 -0.12908,0 -1.5916,0.70649 -3.25004,1.56998 -1.65845,0.86349 -3.59135,1.72507 -4.29535,1.91463 -1.24158,0.3343 -6.21944,0.60566 -7.84,0.42738 z m 7.36,-8.34218 c 2.20564,-0.9956 4.07959,-2.7903 5.18608,-4.96677 1.33406,-2.6241 1.44041,-6.04182 0.28297,-9.093654 -2.49225,-6.571322 -11.72794,-8.488304 -17.12606,-3.554724 -2.27653,2.080618 -2.90223,3.797645 -2.90267,7.965338 -2.9e-4,2.67026 0.10689,3.25831 0.88118,4.83497 1.17046,2.38336 2.52395,3.67584 5.0385,4.81138 1.88052,0.84922 2.32551,0.9256 4.64,0.79638 1.61822,-0.0904 3.08975,-0.38205 4,-0.79292 z m 72.95532,8.25247 c -4.96525,-0.73281 -10.52627,-4.94314 -12.90319,-9.7692 -1.60906,-3.26701 -1.88351,-4.67557 -1.76381,-9.05239 0.11022,-4.030466 0.12782,-4.114306 1.35617,-6.462066 1.37767,-2.633142 1.95584,-3.46864 3.95636,-5.717222 1.42915,-1.606365 5.00045,-3.982759 7.43914,-4.950109 1.91287,-0.758775 6.74462,-1.038128 8.9896,-0.519751 2.09727,0.484272 7.52532,2.979389 8.52533,3.918848 0.85471,0.802957 1.29528,0.546176 0.8079,-0.470873 -0.5815,-1.213475 -0.64921,-1.651309 -0.37109,-2.399517 0.25298,-0.680566 0.44222,-0.72 3.45509,-0.72 2.47102,0 3.30048,0.113027 3.69031,0.502858 0.44444,0.444438 0.50286,2.464755 0.50286,17.390402 0,15.67882 -0.0401,16.92348 -0.56,17.38953 -0.3704,0.33202 -1.5388,0.57764 -3.45104,0.72547 -3.39027,0.2621 -3.81493,0.0175 -3.61469,-2.08224 0.10011,-1.04976 0.0217,-1.28602 -0.42693,-1.28602 -0.30226,0 -0.62472,0.1216 -0.71657,0.27022 -0.23742,0.38415 -3.89442,2.13031 -5.79077,2.765 -1.82745,0.61163 -6.51822,0.85174 -9.12467,0.46706 z m 8.64467,-8.60209 c 4.92058,-2.56418 6.90347,-7.70992 5.06678,-13.14866 -1.62584,-4.814391 -6.68904,-7.693197 -11.78678,-6.701668 -0.968,0.188282 -2.15719,0.423607 -2.64265,0.522941 -0.48546,0.09934 -1.6721,0.921219 -2.63698,1.8264 -2.04234,1.915991 -3.02314,4.187626 -3.28048,7.597987 -0.61491,8.14913 7.96949,13.71266 15.28011,9.903 z m -160.537042,8.27527 c -1.533257,-0.56719 -1.545856,-0.66938 -1.49752,-12.14646 0.05043,-11.973349 0.162032,-12.80549 2.208851,-16.469 1.848151,-3.307923 5.370432,-6.087398 9.180963,-7.244813 1.821571,-0.553286 2.775251,-0.649517 5.159677,-0.520646 1.608793,0.08695 3.455097,0.38223 4.102896,0.656179 1.818118,0.768864 5.524668,3.28593 6.439165,4.372746 0.99255,1.179577 1.46683,1.251507 1.26424,0.191734 -0.2294,-1.200029 1.74698,-2.803789 5.01892,-4.072666 C 108.98952,85.39265 109.61925,85.28 112.48,85.28 c 3.03123,0 3.33105,0.06258 5.68488,1.186544 1.36668,0.652598 2.57009,1.408598 2.67423,1.68 0.10415,0.271402 0.37873,0.493456 0.61019,0.493456 0.64571,0 2.53705,2.379075 3.7756,4.749248 2.07808,3.976774 2.1351,4.419267 2.1351,16.570692 v 10.96377 l -0.71121,0.49815 c -1.07956,0.75615 -6.67937,0.70918 -7.37439,-0.0619 -0.43499,-0.48256 -0.51929,-2.10981 -0.6096,-11.76794 L 118.56,98.384131 117.51909,96.792064 c -1.3372,-2.045258 -2.11117,-2.578768 -4.42892,-3.05296 -1.62958,-0.333395 -2.11077,-0.311293 -3.49017,0.16032 -2.215,0.757302 -3.63564,1.930765 -4.43803,3.665866 -0.639,1.381779 -0.68307,1.999001 -0.69935,9.79471 -0.0193,9.22257 -0.1695,10.56631 -1.21271,10.84618 -0.88896,0.23848 -4.964883,0.2401 -5.850905,0.002 -1.250678,-0.33554 -1.399008,-1.36294 -1.399008,-9.69011 0,-9.516387 -0.234304,-11.063097 -1.942557,-12.823334 -3.443065,-3.547843 -9.279036,-2.51759 -11.478745,2.0264 -0.624566,1.290182 -0.659226,1.923354 -0.668874,12.219654 -0.0082,8.72604 -0.09692,10.9734 -0.451785,11.44154 -0.37873,0.49963 -0.850832,0.57077 -3.315763,0.49967 -1.580787,-0.0456 -3.146483,-0.18365 -3.479325,-0.30678 z"
       id="path14818" />
  </g>
</svg>
