<svg width="16" height="16" viewBox="0 0 16 16" fill="none" xmlns="http://www.w3.org/2000/svg">
<path d="M10.0007 15.1666H6.00065C2.38065 15.1666 0.833984 13.62 0.833984 9.99998V5.99998C0.833984 2.37998 2.38065 0.833313 6.00065 0.833313H10.0007C13.6207 0.833313 15.1673 2.37998 15.1673 5.99998V9.99998C15.1673 13.62 13.6207 15.1666 10.0007 15.1666ZM6.00065 1.83331C2.92732 1.83331 1.83398 2.92665 1.83398 5.99998V9.99998C1.83398 13.0733 2.92732 14.1666 6.00065 14.1666H10.0007C13.074 14.1666 14.1673 13.0733 14.1673 9.99998V5.99998C14.1673 2.92665 13.074 1.83331 10.0007 1.83331H6.00065Z" fill="#F7F7F7"/>
<path d="M9.17284 11.8334H6.81951C6.08617 11.8334 5.50617 11.4734 5.17951 10.82L4.58617 9.62669C4.44617 9.34002 4.15951 9.16669 3.83951 9.16669H1.32617C1.05284 9.16669 0.826172 8.94002 0.826172 8.66669C0.826172 8.39335 1.05951 8.16669 1.33284 8.16669H3.83951C4.53951 8.16669 5.16617 8.55335 5.47951 9.18002L6.07284 10.3734C6.22617 10.68 6.47284 10.8334 6.81951 10.8334H9.17284C9.49284 10.8334 9.77951 10.66 9.91951 10.3734L10.5128 9.18002C10.8262 8.55335 11.4528 8.16669 12.1528 8.16669H14.6462C14.9195 8.16669 15.1462 8.39335 15.1462 8.66669C15.1462 8.94002 14.9195 9.16669 14.6462 9.16669H12.1528C11.8328 9.16669 11.5462 9.34002 11.4062 9.62669L10.8128 10.82C10.4995 11.4467 9.87284 11.8334 9.17284 11.8334Z" fill="#F7F7F7"/>
<path d="M9.11339 5.16669H6.89339C6.61339 5.16669 6.38672 4.94002 6.38672 4.66669C6.38672 4.39335 6.61339 4.16669 6.88672 4.16669H9.10672C9.38005 4.16669 9.60672 4.39335 9.60672 4.66669C9.60672 4.94002 9.38672 5.16669 9.11339 5.16669Z" fill="#F7F7F7"/>
<path d="M9.66732 7.16669H6.33398C6.06065 7.16669 5.83398 6.94002 5.83398 6.66669C5.83398 6.39335 6.06065 6.16669 6.33398 6.16669H9.66732C9.94065 6.16669 10.1673 6.39335 10.1673 6.66669C10.1673 6.94002 9.94065 7.16669 9.66732 7.16669Z" fill="#F7F7F7"/>
</svg>
