<svg width="24" height="25" viewBox="0 0 24 25" fill="none" xmlns="http://www.w3.org/2000/svg">
<g clip-path="url(#clip0_34_14157)">
<path d="M17 3.82178H21C21.2652 3.82178 21.5196 3.92713 21.7071 4.11467C21.8946 4.30221 22 4.55656 22 4.82178V20.8218C22 21.087 21.8946 21.3413 21.7071 21.5289C21.5196 21.7164 21.2652 21.8218 21 21.8218H3C2.73478 21.8218 2.48043 21.7164 2.29289 21.5289C2.10536 21.3413 2 21.087 2 20.8218V4.82178C2 4.55656 2.10536 4.30221 2.29289 4.11467C2.48043 3.92713 2.73478 3.82178 3 3.82178H7V1.82178H9V3.82178H15V1.82178H17V3.82178ZM20 11.8218H4V19.8218H20V11.8218ZM15 5.82178H9V7.82178H7V5.82178H4V9.82178H20V5.82178H17V7.82178H15V5.82178ZM6 13.8218H8V15.8218H6V13.8218ZM11 13.8218H13V15.8218H11V13.8218ZM16 13.8218H18V15.8218H16V13.8218Z" fill="#747474"/>
</g>
<defs>
<clipPath id="clip0_34_14157">
<rect width="24" height="24" fill="white" transform="translate(0 0.821777)"/>
</clipPath>
</defs>
</svg>
