<svg width="214" height="33" viewBox="0 0 214 33" fill="none" xmlns="http://www.w3.org/2000/svg">
<path d="M176.25 1.22446L176.67 25.1209H176.463L169.525 1.22446H158.153V31.3263H165.677L165.257 6.59765H165.464L172.888 31.3263H183.774V1.22446H176.25ZM32.8916 1.22446L27.2055 31.6393H35.4217L39.6164 3.96765H39.7895L43.8844 31.6393H52.034L46.4145 1.22446H32.8916ZM78.8734 1.22446L75.1248 24.4217H74.9184L71.1365 1.22446H58.7189L58.1263 31.6393H65.7567L65.9631 4.28058H66.0296L71.1299 31.6393H78.8601L83.9603 4.28058H84.1667L84.3731 31.6393H92.0034L91.2777 1.22446H78.8734ZM14.3684 23.0035C14.6813 23.696 14.5748 24.7347 14.4749 25.2207C14.2685 26.2594 13.5361 27.2648 11.5253 27.2648C9.58112 27.2648 8.47585 26.1529 8.47585 24.5283V21.5787H0.326172V23.9024C0.326172 30.7338 5.69937 32.7445 11.4255 32.7445C16.9052 32.7445 21.4794 30.8403 22.2118 25.8466C22.6313 23.21 22.3183 21.4788 22.2118 20.8529C20.7869 14.4344 9.17497 12.6367 8.37598 9.0612C8.26945 8.43533 8.26945 7.8494 8.37598 7.42993C8.58239 6.42454 9.27484 5.38585 11.1125 5.38585C12.9502 5.38585 13.9556 6.49778 13.9556 8.12239V9.96006H21.5859V7.84274C21.5859 1.2178 15.5869 0.212402 11.3189 0.212402C5.90577 0.212402 1.4381 2.01678 0.639109 6.90393C0.432704 8.22226 0.326172 9.46735 0.745641 10.9987C1.95744 17.2775 12.8503 19.1151 14.3751 22.9969L14.3684 23.0035ZM113.376 23.0035C113.689 23.696 113.583 24.6348 113.483 25.2207C113.277 26.2594 112.544 27.2648 110.533 27.2648C108.589 27.2648 107.484 26.1529 107.484 24.5283V21.5787H99.3341V23.9024C99.3341 30.6272 104.607 32.678 110.327 32.678C115.807 32.678 120.281 30.8403 121.007 25.7401C121.426 23.1034 121.113 21.4721 121.007 20.7464C119.795 14.4344 108.283 12.5301 107.484 9.0612C107.377 8.43533 107.377 7.8494 107.484 7.42993C107.657 6.42454 108.383 5.38585 110.22 5.38585C111.951 5.38585 113.063 6.49778 113.063 8.12239V9.96006H120.587V7.84274C120.587 1.2178 114.695 0.212402 110.427 0.212402C105.014 0.212402 100.646 1.91025 99.8468 6.90393C99.6404 8.22226 99.6404 9.46735 99.9134 10.9987C101.165 17.2775 111.845 19.0086 113.37 22.9969L113.376 23.0035ZM139.004 27.0651C141.155 27.0651 141.74 25.6402 141.954 24.8479C142.06 24.5349 142.06 24.0156 142.06 23.7027V1.23111H149.79V23.1101C149.79 23.7027 149.79 24.8412 149.684 25.1209C149.198 30.8403 144.69 32.678 139.104 32.678C133.518 32.678 129.05 30.8403 128.524 25.1209C128.524 24.8412 128.417 23.696 128.417 23.1101V1.23111H136.148V23.7027C136.148 24.1221 136.148 24.5349 136.254 24.8479C136.254 25.6469 136.88 27.0651 138.991 27.0651H139.004ZM202.504 26.7521C204.761 26.7521 205.453 25.3273 205.66 24.5349C205.766 24.222 205.766 23.7027 205.766 23.423V19.0219H202.61V14.5476H213.396V22.6973C213.396 23.3231 213.396 23.7027 213.29 24.7413C212.771 30.3276 207.983 32.2652 202.61 32.2652C197.197 32.2652 192.45 30.3209 191.93 24.7413C191.824 23.7027 191.824 23.3165 191.824 22.6973V9.86684C191.824 9.38079 191.93 8.34211 191.93 7.85606C192.623 2.13664 197.204 0.298963 202.61 0.298963C207.983 0.298963 212.664 2.13664 213.29 7.85606C213.396 8.75492 213.396 9.86684 213.396 9.86684V10.9055H205.766V9.17439C205.766 9.17439 205.766 8.44864 205.66 8.02917C205.553 7.33671 204.934 5.81198 202.61 5.81198C200.353 5.81198 199.767 7.23684 199.561 8.02917C199.454 8.44864 199.454 8.96799 199.454 9.48733V23.4297C199.454 23.8092 199.454 24.2287 199.561 24.5416C199.561 25.3406 200.36 26.7588 202.51 26.7588L202.504 26.7521Z" fill="#111827"/>
</svg>
