<svg width="40" height="48" viewBox="0 0 40 48" fill="none" xmlns="http://www.w3.org/2000/svg">
<path d="M28.2336 42.5H11.7745C5.76696 42.5 2.31055 38.3 2.31055 31V17C2.31055 9.7 5.76696 5.5 11.7745 5.5H28.2336C34.2412 5.5 37.6976 9.7 37.6976 17V31C37.6976 38.3 34.2412 42.5 28.2336 42.5ZM11.7745 8.5C7.06723 8.5 4.77941 11.28 4.77941 17V31C4.77941 36.72 7.06723 39.5 11.7745 39.5H28.2336C32.9409 39.5 35.2287 36.72 35.2287 31V17C35.2287 11.28 32.9409 8.5 28.2336 8.5H11.7745Z" fill="#464646"/>
<path d="M20.0036 25.7399C18.621 25.7399 17.222 25.2199 16.1522 24.1599L11.0005 19.1599C10.4738 18.6399 10.375 17.6999 10.803 17.0599C11.2309 16.4199 12.0045 16.2999 12.5312 16.8199L17.6829 21.8199C18.9337 23.0399 21.057 23.0399 22.3079 21.8199L27.4596 16.8199C27.9863 16.2999 28.7763 16.3999 29.1878 17.0599C29.6157 17.6999 29.5334 18.6599 28.9903 19.1599L23.8386 24.1599C22.7852 25.2199 21.3862 25.7399 20.0036 25.7399Z" fill="#464646"/>
</svg>
