<svg width="49" height="48" viewBox="0 0 49 48" fill="none" xmlns="http://www.w3.org/2000/svg">
<path d="M34.5 42.5H14.5C7.2 42.5 3 38.3 3 31V17C3 9.7 7.2 5.5 14.5 5.5H34.5C41.8 5.5 46 9.7 46 17V31C46 38.3 41.8 42.5 34.5 42.5ZM14.5 8.5C8.78 8.5 6 11.28 6 17V31C6 36.72 8.78 39.5 14.5 39.5H34.5C40.22 39.5 43 36.72 43 31V17C43 11.28 40.22 8.5 34.5 8.5H14.5Z" fill="#00B0EA"/>
<path d="M24.4996 25.7399C22.8196 25.7399 21.1196 25.2199 19.8196 24.1599L13.5596 19.1599C12.9196 18.6399 12.7996 17.6999 13.3196 17.0599C13.8396 16.4199 14.7796 16.2999 15.4196 16.8199L21.6795 21.8199C23.1995 23.0399 25.7795 23.0399 27.2995 21.8199L33.5596 16.8199C34.1996 16.2999 35.1596 16.3999 35.6596 17.0599C36.1796 17.6999 36.0796 18.6599 35.4196 19.1599L29.1596 24.1599C27.8796 25.2199 26.1796 25.7399 24.4996 25.7399Z" fill="#00B0EA"/>
</svg>
