<svg width="200" height="36" viewBox="0 0 200 36" fill="none" xmlns="http://www.w3.org/2000/svg">
<path d="M67.8719 35.4216C59.2312 34.5264 52.0706 30.4401 49.2996 24.807C48.1309 22.4298 48.0646 22.0734 48.0646 18.1312C48.0646 14.1874 48.1309 13.8327 49.2996 11.4571C51.5396 6.9099 56.3824 3.50155 63.2019 1.6747C67.5396 0.514272 75.1414 0.514276 79.5639 1.68299C85.7936 3.32417 90.5933 6.85851 92.8608 11.4638C94.0295 13.836 94.0925 14.1858 94.0875 18.1263C94.0819 21.8098 93.9715 22.521 93.1028 24.3594C90.3801 30.1284 84.4987 33.8783 76.2128 35.1282C72.7477 35.6587 70.7694 35.72 67.8719 35.4216ZM75.8514 30.1549C79.8763 28.8951 83.1619 25.5 84.1234 21.6092C84.3688 20.6146 84.4898 18.5772 84.3936 17.0819C83.9858 10.8089 80.0162 6.62973 73.3674 5.47096C67.3398 4.42658 60.9825 7.51166 58.7231 12.5894C57.6191 15.071 57.3953 19.5105 58.2391 22.1927C60.3945 29.0459 68.1723 32.562 75.8514 30.1549ZM15.1525 34.543C13.2368 34.1286 10.531 33.366 9.13983 32.8654C7.74897 32.368 6.47216 32.0365 6.3034 32.136C6.13431 32.3017 5.99672 32.7327 5.99672 33.2467C5.99672 34.1253 5.89725 34.1584 3.54424 34.1584H1.09192V28.1225V22.085H3.35558C5.48083 22.085 5.61941 22.085 5.61941 22.9636C5.61941 25.0159 9.19785 28.3546 12.3436 29.2365C18.3959 30.9341 23.9245 31.1363 28.2077 29.8168C31.6145 28.7724 32.9415 26.5676 31.4525 24.4423C30.6469 23.2985 29.1716 22.9503 20.2125 21.8861C8.33531 20.4604 5.52111 19.7111 2.8503 17.2278C-0.473167 14.1377 -0.648723 9.00696 2.45907 5.79423C4.28393 3.9077 5.80674 3.11529 10.0251 1.85706C16.1816 0.020264 24.99 0.597165 31.1793 3.24957C33.416 4.21107 33.916 4.16134 33.916 3.00091C33.916 2.07257 33.9823 2.03941 36.0853 2.15545L38.2548 2.32123L38.3543 7.38567C38.4703 13.032 38.4537 13.0585 35.9663 13.0685C34.5638 13.0734 34.3997 12.9027 33.9667 11.7754C33.2356 9.7546 30.5627 7.65589 27.4025 6.61979C25.0039 5.84064 23.9676 5.7246 19.0068 5.74118C12.1992 5.7561 10.0184 6.37112 8.92216 8.55107C8.36681 9.66177 8.34526 9.96017 8.77296 10.62C9.53387 11.7804 11.1658 12.1617 19.0053 13.0668C22.9481 13.5144 27.3624 14.1112 28.8149 14.393C36.604 15.885 40.2935 19.1358 40.3139 24.5086C40.3305 30.818 33.9972 34.7121 22.9668 35.163C19.528 35.3288 17.9055 35.163 15.1449 34.5828L15.1525 34.543ZM99.5642 31.7232V29.641H102.165C104.188 29.641 104.817 29.4753 104.995 29.0442C105.127 28.7127 105.223 23.8057 105.223 18.1296C105.223 6.08433 105.394 6.62642 101.612 6.62642H99.1866V4.55091V2.47706H106.756H114.325L119.678 7.26299C122.622 9.89717 127.378 14.1841 130.247 16.7901C133.116 19.3978 135.577 21.5727 135.718 21.6241C136.127 21.7899 135.635 7.45695 135.217 7.04085C135.01 6.82535 133.651 6.60984 132.199 6.54353L129.558 6.37775V4.49123V2.60471H138.613H147.668L147.784 4.58572L147.9 6.56674H145.076C142.547 6.56674 142.226 6.56674 142.003 7.34588C141.87 7.7769 141.87 13.899 142.036 20.9494L142.313 33.7672L139.184 33.6014H136.055L130.17 28.4209C126.934 25.5729 121.4 20.6643 117.872 17.5129L111.458 11.7837L111.359 19.8222C111.292 24.245 111.344 28.2369 111.458 28.6961C111.644 29.4587 111.929 29.5416 114.583 29.641L117.504 29.8068V31.6933V33.5782L108.543 33.744L99.5825 33.9098V31.8293L99.5642 31.7232ZM164.989 33.2649C164.873 32.9665 164.84 32.0713 164.907 31.2789L165.023 29.8201L167.475 29.6543C170.642 29.4885 170.871 29.2067 170.871 25.0375V21.7783L164.457 14.5588C160.93 10.5885 157.715 7.16353 157.313 6.94968C156.912 6.73417 155.468 6.55182 154.106 6.55182H151.629V4.46968V2.3892L162.287 2.55497L172.946 2.72075L173.062 4.70176L173.178 6.68278H171.46C170.487 6.68278 169.743 6.86514 169.743 7.08065C169.743 7.29616 171.467 9.52086 173.575 12.0092C177.229 16.321 177.438 16.5 178.043 15.8485C181.131 12.5214 185.223 7.37573 185.03 7.06407C184.897 6.84856 184.12 6.68278 183.303 6.68278H181.816V4.60728V2.53176H190.493H199.171V4.59069V6.64963L196.255 6.8154L193.339 6.98118L186.811 14.3284L180.283 21.6755L180.382 25.6475L180.482 29.6195L183.425 29.7853L186.368 29.951L186.252 31.9155L186.136 33.8799L175.657 34.0457C166.918 34.2115 165.143 34.0573 164.973 33.6147L164.989 33.2649Z" fill="#0C0C0C"/>
</svg>
