<?xml version="1.0" encoding="UTF-8" standalone="no"?>
<!-- Created with Inkscape (http://www.inkscape.org/) -->

<svg
   version="1.1"
   id="svg2"
   width="477.86667"
   height="546.1333"
   viewBox="0 0 477.86667 546.1333"
   sodipodi:docname="square-email.svg"
   inkscape:version="1.1.2 (0a00cf5339, 2022-02-04)"
   xmlns:inkscape="http://www.inkscape.org/namespaces/inkscape"
   xmlns:sodipodi="http://sodipodi.sourceforge.net/DTD/sodipodi-0.dtd"
   xmlns="http://www.w3.org/2000/svg"
   xmlns:svg="http://www.w3.org/2000/svg">
  <defs
     id="defs6" />
  <sodipodi:namedview
     id="namedview4"
     pagecolor="#ffffff"
     bordercolor="#666666"
     borderopacity="1.0"
     inkscape:pageshadow="2"
     inkscape:pageopacity="0.0"
     inkscape:pagecheckerboard="0"
     showgrid="false"
     inkscape:zoom="1.0124955"
     inkscape:cx="279.01359"
     inkscape:cy="374.32266"
     inkscape:window-width="1920"
     inkscape:window-height="947"
     inkscape:window-x="0"
     inkscape:window-y="0"
     inkscape:window-maximized="1"
     inkscape:current-layer="g8" />
  <g
     inkscape:groupmode="layer"
     inkscape:label="Image"
     id="g8">
    <path
       style="fill:#ffffff;stroke-width:1.06667;fill-opacity:1"
       d="M 39.224172,515.67466 C 30.419839,513.54041 23.493616,509.69988 16.094175,502.8493 8.7626929,496.06164 2.8395197,485.42237 1.0653759,475.85438 c -1.45995507,-7.87356 -1.45995507,-387.035236 0,-394.908796 1.7741438,-9.567985 7.697317,-20.207267 15.0287991,-26.994925 3.568787,-3.304068 8.838362,-7.198057 11.710164,-8.653309 11.983477,-6.072487 2.029305,-5.797793 210.716741,-5.814919 126.28455,-0.01035 194.08841,0.35733 197.86205,1.072985 19.62571,3.721939 36.80159,20.885926 40.41816,40.390168 0.68457,3.691866 1.05975,74.418016 1.04961,197.866656 -0.0172,208.68742 0.25757,198.73325 -5.81492,210.71672 -1.45525,2.87181 -5.34924,8.14138 -8.65331,11.71017 -6.78766,7.33148 -17.42693,13.25465 -26.99492,15.0288 -3.70179,0.6864 -74.27594,1.03376 -198.4,0.97651 -160.492384,-0.074 -193.674289,-0.3361 -198.763578,-1.56978 z M 404.25136,456.79997 c 7.50097,-3.74072 14.67458,-10.91433 18.41531,-18.4153 L 425.6,432.50268 V 325.70714 c 0,-114.4062 0.28286,-108.36354 -5.48487,-117.17382 -4.05375,-6.19216 -5.8287,-7.66985 -28.18717,-23.46666 -3.32143,-2.34667 -9.70398,-6.94474 -14.18346,-10.21795 -4.47947,-3.2732 -18.4645,-13.25217 -31.07783,-22.17548 -12.61333,-8.92332 -23.65333,-16.80524 -24.53333,-17.51539 -1.67213,-1.34939 -8.18917,-6.03291 -18.13334,-13.03168 -3.22666,-2.27096 -7.60482,-5.35837 -9.72922,-6.86092 -2.12441,-1.50255 -8.60441,-6.06119 -14.4,-10.13031 -5.7956,-4.06912 -10.77744,-7.683101 -11.07078,-8.03107 -1.17804,-1.397458 -11.38946,-8.15673 -14.18352,-9.388535 -1.83532,-0.809124 -8.02114,-1.31533 -16.07331,-1.31533 h -13.08978 l -6.58068,3.999999 c -3.61939,2.2 -7.42842,4.734288 -8.46453,5.631752 -1.53885,1.332917 -13.4328,9.886784 -25.16983,18.101584 -1.25732,0.88 -6.13031,4.38596 -10.82886,7.79103 -4.69856,3.40505 -10.39857,7.40627 -12.6667,8.89158 -2.26814,1.4853 -7.40471,5.17935 -11.4146,8.20897 -4.00988,3.02963 -11.03413,8.13355 -15.60945,11.34204 -9.85394,6.9102 -30.26656,21.45867 -31.78541,22.65408 -2.23003,1.75516 -12.597837,9.14446 -23.635791,16.84563 -15.461527,10.78748 -18.991975,14.09678 -23.347323,21.88487 L 52.236658,218.392 52.518329,326.55428 52.8,434.71657 l 4.303869,6.88248 c 2.372772,3.79438 6.440881,8.45553 9.066667,10.38837 2.619539,1.92823 5.264722,3.9072 5.878185,4.39768 3.804169,3.04158 10.96541,3.18166 166.869309,3.26399 l 159.45135,0.0843 5.88198,-2.93333 z M 92.472761,422.72538 c -1.059981,-0.27784 -2.379981,-1.69597 -2.933333,-3.15139 -0.589028,-1.54926 -1.006094,-28.70286 -1.006094,-65.50307 v -62.85683 l 2.4,2.00319 c 1.32,1.10176 5.76,4.84728 9.866666,8.32338 4.10667,3.47611 11.30667,9.35424 16,13.06253 4.69333,3.70828 8.77333,7.04066 9.06667,7.4053 0.29333,0.36463 4.13333,3.53506 8.53333,7.04539 4.4,3.51033 11.42431,9.26926 15.60958,12.7976 4.18527,3.52834 11.86527,9.87599 17.06667,14.10588 5.20139,4.2299 13.29708,10.87062 17.99042,14.75713 4.69333,3.88653 9.97333,7.81268 11.73333,8.72478 1.76,0.91211 3.44,1.96117 3.73333,2.33126 0.29334,0.37008 1.97334,1.31225 3.73334,2.09371 15.49831,6.88144 29.93939,9.40385 43.46667,7.59228 8.40474,-1.12556 29.6,-7.93582 29.6,-9.51079 0,-0.41285 1.59849,-1.5129 3.55222,-2.44457 1.95372,-0.93166 7.17622,-4.74056 11.60558,-8.46422 4.42935,-3.72366 12.4797,-10.3703 17.88966,-14.7703 10.70833,-8.70922 18.2106,-14.87328 22.49943,-18.48608 1.51078,-1.27266 6.31078,-5.19283 10.66666,-8.7115 4.35588,-3.51868 8.15978,-6.69594 8.45311,-7.06057 0.29334,-0.36464 4.37334,-3.69702 9.06667,-7.4053 4.69333,-3.70829 11.89333,-9.58642 16,-13.06253 4.10667,-3.4761 8.55757,-7.2311 9.8909,-8.34444 l 2.42422,-2.02427 -0.29089,64.49451 c -0.23088,51.18771 -0.57698,64.78051 -1.67745,65.88068 -1.12244,1.12212 -29.16153,1.41448 -147.2,1.53479 -80.1974,0.0817 -146.680707,-0.0787 -147.740689,-0.35655 z M 224.1992,349.87919 c -3.70377,-1.75218 -10.42377,-6.18386 -14.93333,-9.84819 -4.50956,-3.66433 -8.6792,-7.02696 -9.26587,-7.47249 -0.58667,-0.44555 -2.74667,-2.21466 -4.8,-3.93136 -2.05333,-1.71671 -9.97333,-8.22929 -17.6,-14.47241 -7.62667,-6.24312 -15.78667,-12.95514 -18.13333,-14.9156 -5.54712,-4.63418 -30.32749,-24.92764 -37.86667,-31.01024 -6.42354,-5.18252 -7.4475,-6.02846 -22.666666,-18.72613 -10.77322,-8.98833 -11.474607,-10.18665 -9.742701,-16.6454 0.560821,-2.09146 8.413107,-8.41985 24.301457,-19.58526 2.87398,-2.01966 6.95398,-4.90149 9.06666,-6.40404 2.1127,-1.50255 6.24125,-4.43048 9.17458,-6.50651 9.82409,-6.95288 70.38652,-50.38836 71.46667,-51.25602 0.58667,-0.47126 6.10667,-4.41577 12.26667,-8.76559 6.16,-4.34982 13.96,-9.90634 17.33333,-12.34782 l 6.13333,-4.43904 6.13334,4.43904 c 3.37333,2.44148 11.17333,7.998 17.33333,12.34782 6.16,4.34982 11.68,8.29506 12.26667,8.76719 0.58667,0.47214 7.06667,5.12854 14.4,10.34757 11.24188,8.00069 30.54853,21.82057 60.99703,43.66226 3.33503,2.39233 8.78381,6.26968 12.10841,8.61635 25.64613,18.10238 27.11614,19.49661 27.1455,25.74625 0.0138,2.93101 -1.27484,4.43132 -10.38427,12.09015 -5.72,4.80914 -11.84,9.90385 -13.6,11.32156 -1.76,1.41772 -5.40464,4.37715 -8.0992,6.57652 -2.69456,2.19936 -11.995,9.75885 -20.66762,16.79885 -8.67263,7.04 -16.32354,13.32983 -17.00203,13.97742 -0.67848,0.64758 -6.49806,5.4134 -12.93238,10.59074 -6.43433,5.17733 -13.40997,10.88749 -15.50145,12.68925 -2.09147,1.80175 -5.45147,4.61299 -7.46667,6.24718 -2.01519,1.6342 -7.74399,6.35914 -12.73065,10.49988 -4.98667,4.14073 -12.51522,9.16366 -16.7301,11.16206 -6.54775,3.10449 -8.79944,3.63335 -15.46666,3.63262 -6.44717,-6.9e-4 -8.97353,-0.55447 -14.53738,-3.18661 z"
       id="path845" />
  </g>
</svg>
