<svg width="17" height="15" viewBox="0 0 17 15" fill="none" xmlns="http://www.w3.org/2000/svg">
<path d="M8.02447 0.963526C8.17415 0.502871 8.82585 0.50287 8.97553 0.963525L10.4084 5.37336C10.4753 5.57937 10.6673 5.71885 10.8839 5.71885H15.5207C16.005 5.71885 16.2064 6.33865 15.8146 6.62336L12.0633 9.34878C11.8881 9.4761 11.8148 9.70179 11.8817 9.9078L13.3145 14.3176C13.4642 14.7783 12.937 15.1613 12.5451 14.8766L8.79389 12.1512C8.61865 12.0239 8.38135 12.0239 8.20611 12.1512L4.45488 14.8766C4.06303 15.1613 3.53578 14.7783 3.68546 14.3176L5.1183 9.9078C5.18524 9.70179 5.11191 9.4761 4.93667 9.34878L1.18544 6.62336C0.793584 6.33866 0.994972 5.71885 1.47933 5.71885H6.1161C6.33272 5.71885 6.52469 5.57937 6.59163 5.37336L8.02447 0.963526Z" fill="#FFFFFF"/>
</svg>
