<svg width="16" height="16" viewBox="0 0 16 16" fill="none" xmlns="http://www.w3.org/2000/svg">
<path d="M14.0004 4.48669C13.9871 4.48669 13.9671 4.48669 13.9471 4.48669C10.4204 4.13336 6.90043 4.00002 3.41377 4.35336L2.05377 4.48669C1.77377 4.51336 1.5271 4.31336 1.50043 4.03336C1.47377 3.75336 1.67377 3.51336 1.9471 3.48669L3.3071 3.35336C6.85377 2.99336 10.4471 3.13336 14.0471 3.48669C14.3204 3.51336 14.5204 3.76002 14.4938 4.03336C14.4738 4.29336 14.2538 4.48669 14.0004 4.48669Z" fill="#C91433"/>
<path d="M5.66651 3.81337C5.63984 3.81337 5.61318 3.81337 5.57984 3.80671C5.31318 3.76004 5.12651 3.50004 5.17318 3.23337L5.31984 2.36004C5.42651 1.72004 5.57318 0.833374 7.12651 0.833374H8.87318C10.4332 0.833374 10.5798 1.75337 10.6798 2.36671L10.8265 3.23337C10.8732 3.50671 10.6865 3.76671 10.4198 3.80671C10.1465 3.85337 9.88651 3.66671 9.84651 3.40004L9.69984 2.53337C9.60651 1.95337 9.58651 1.84004 8.87984 1.84004H7.13318C6.42651 1.84004 6.41318 1.93337 6.31318 2.52671L6.15984 3.39337C6.11984 3.64004 5.90651 3.81337 5.66651 3.81337Z" fill="#C91433"/>
<path d="M10.1396 15.1667H5.85961C3.53294 15.1667 3.43961 13.8801 3.36627 12.8401L2.93294 6.12672C2.91294 5.85338 3.12627 5.61338 3.39961 5.59338C3.67961 5.58005 3.91294 5.78672 3.93294 6.06005L4.36627 12.7734C4.43961 13.7867 4.46627 14.1667 5.85961 14.1667H10.1396C11.5396 14.1667 11.5663 13.7867 11.6329 12.7734L12.0663 6.06005C12.0863 5.78672 12.3263 5.58005 12.5996 5.59338C12.8729 5.61338 13.0863 5.84672 13.0663 6.12672L12.6329 12.8401C12.5596 13.8801 12.4663 15.1667 10.1396 15.1667Z" fill="#C91433"/>
<path d="M9.10672 11.5H6.88672C6.61339 11.5 6.38672 11.2733 6.38672 11C6.38672 10.7267 6.61339 10.5 6.88672 10.5H9.10672C9.38005 10.5 9.60672 10.7267 9.60672 11C9.60672 11.2733 9.38005 11.5 9.10672 11.5Z" fill="#C91433"/>
<path d="M9.66634 8.83337H6.33301C6.05967 8.83337 5.83301 8.60671 5.83301 8.33337C5.83301 8.06004 6.05967 7.83337 6.33301 7.83337H9.66634C9.93967 7.83337 10.1663 8.06004 10.1663 8.33337C10.1663 8.60671 9.93967 8.83337 9.66634 8.83337Z" fill="#C91433"/>
</svg>
