<svg width="16" height="16" viewBox="0 0 16 16" fill="none" xmlns="http://www.w3.org/2000/svg">
<path fill-rule="evenodd" clip-rule="evenodd" d="M3.53541 2.58203L3.96763 3.38884C4.98923 5.29582 6.44774 5.88086 7.35617 5.99608V5.65471C7.35617 4.00443 8.69397 2.66661 10.3442 2.66661C11.9945 2.66661 13.3324 4.00443 13.3324 5.65471V6.66661C13.3324 11.0858 10.1994 13.9999 6.59426 13.9999C5.00993 13.9999 3.89075 13.4831 3.16173 12.9431C2.8006 12.6755 2.53975 12.4059 2.36619 12.1983C2.27931 12.0943 2.21387 12.0054 2.16827 11.9391C2.14545 11.9061 2.12755 11.8785 2.11435 11.8576C2.10776 11.8471 2.10233 11.8383 2.09806 11.8312L2.0925 11.8219L2.09036 11.8183L2.08945 11.8167L2.08903 11.8159C2.08903 11.8159 2.08864 11.8153 2.66569 11.4814L2.08864 11.8153L1.50977 10.8147H2.66569C3.40167 10.8147 3.83492 10.8119 4.26078 10.7003C4.66683 10.5939 5.11026 10.3739 5.78459 9.8494L6.60318 10.9019C5.84894 11.4885 5.24255 11.8213 4.59879 11.9901C4.48095 12.0209 4.36336 12.0458 4.24547 12.0658C4.77198 12.3833 5.53501 12.6666 6.59426 12.6666C9.41771 12.6666 11.999 10.3955 11.999 6.66661V5.65471C11.999 4.74081 11.2582 3.99994 10.3442 3.99994C9.43037 3.99994 8.6895 4.74081 8.6895 5.65471V7.25247L8.1085 7.32773C7.0473 7.46533 4.95162 7.0662 3.39465 4.97174C3.33783 5.18472 3.32378 5.405 3.35321 5.62419C3.42236 6.1392 3.74341 6.72466 4.47338 7.22933L3.71514 8.32607C2.73082 7.6456 2.15901 6.7496 2.03173 5.80163C1.90465 4.85508 2.23259 3.9331 2.90007 3.24089L3.53541 2.58203Z" fill="#F7F7F7"/>
<path fill-rule="evenodd" clip-rule="evenodd" d="M3.64134 8.58666C4.02674 8.53133 4.37216 8.32399 4.53403 8.20639L5.31773 9.28506C5.07549 9.46106 4.52313 9.80706 3.8308 9.90646C3.09205 10.0125 2.22818 9.82793 1.50195 8.98733L2.51092 8.11566C2.90857 8.57593 3.30237 8.63533 3.64134 8.58666Z" fill="#F7F7F7"/>
<path fill-rule="evenodd" clip-rule="evenodd" d="M13.1905 3.65547C13.2685 3.56085 13.3249 3.41329 13.324 3.16143L14.6573 3.15649C14.659 3.60415 14.5579 4.09244 14.2198 4.50305C13.8806 4.91504 13.3773 5.15829 12.7568 5.26479L12.5312 3.95067C12.9424 3.8801 13.1138 3.74872 13.1905 3.65547Z" fill="#F7F7F7"/>
</svg>
