<?xml version="1.0" encoding="UTF-8" standalone="no"?>
<!-- Created with Inkscape (http://www.inkscape.org/) -->

<svg
   version="1.1"
   id="svg2"
   width="323.51999"
   height="204.16"
   viewBox="0 0 323.51999 204.16"
   sodipodi:docname="visa.svg"
   inkscape:version="1.1.2 (0a00cf5339, 2022-02-04)"
   xmlns:inkscape="http://www.inkscape.org/namespaces/inkscape"
   xmlns:sodipodi="http://sodipodi.sourceforge.net/DTD/sodipodi-0.dtd"
   xmlns="http://www.w3.org/2000/svg"
   xmlns:svg="http://www.w3.org/2000/svg">
  <defs
     id="defs6" />
  <sodipodi:namedview
     id="namedview4"
     pagecolor="#ffffff"
     bordercolor="#666666"
     borderopacity="1.0"
     inkscape:pageshadow="2"
     inkscape:pageopacity="0.0"
     inkscape:pagecheckerboard="0"
     showgrid="false"
     inkscape:zoom="1.8236895"
     inkscape:cx="142.56813"
     inkscape:cy="60.317285"
     inkscape:window-width="1920"
     inkscape:window-height="947"
     inkscape:window-x="0"
     inkscape:window-y="0"
     inkscape:window-maximized="1"
     inkscape:current-layer="g8" />
  <g
     inkscape:groupmode="layer"
     inkscape:label="Image"
     id="g8">
    <path
       style="fill:#002897;stroke-width:0.32;fill-opacity:1"
       d="m 173.02641,147.67273 c -5.65629,-0.68439 -14.44903,-2.83279 -16.18467,-3.95454 -0.36002,-0.23268 -0.0821,-1.9609 1.55658,-9.68072 1.09715,-5.16861 2.08905,-9.50095 2.20421,-9.62743 0.11516,-0.12647 1.88093,0.48931 3.92395,1.36842 10.25412,4.41234 22.34098,5.15318 29.0023,1.77763 3.2297,-1.63661 5.22264,-5.06578 4.58382,-7.88718 -0.78613,-3.47205 -2.77982,-5.17584 -11.24879,-9.61316 -3.0711,-1.6091 -6.74008,-3.678 -8.1533,-4.59755 -6.56616,-4.27248 -10.75974,-9.508421 -12.1886,-15.2182 -0.7286,-2.911507 -0.46822,-9.203686 0.50982,-12.32 3.43557,-10.946755 13.60857,-18.67281 28.00826,-21.271318 6.077,-1.096631 14.67379,-1.022122 21.02249,0.182204 2.51251,0.476618 10.16005,2.564983 10.44824,2.853175 0.0779,0.0779 -0.76329,4.370409 -1.86932,9.538912 l -2.01094,9.397277 -2.25351,-0.946826 c -1.23944,-0.520755 -3.91929,-1.378576 -5.95524,-1.906272 -4.8333,-1.252742 -12.58134,-1.609648 -16.41724,-0.75624 -4.48034,0.996778 -7.56227,3.572157 -7.84929,6.559136 -0.20887,2.17375 0.0603,3.023862 1.44141,4.552595 1.61865,1.791651 3.82465,3.226586 10.0034,6.506896 13.71237,7.279923 18.64722,12.299991 20.34945,20.700831 0.97175,4.79577 0.10956,11.46774 -2.08912,16.16647 -4.63558,9.90656 -14.81597,16.26387 -29.14033,18.19718 -4.1239,0.55659 -13.00585,0.5459 -17.69358,-0.0213 z M 63.888968,144.8543 C 59.283237,126.5188 45.311589,73.26015 44.787922,72.042851 44.400482,71.142224 43.503055,69.880963 42.79364,69.240048 40.160549,66.86121 31.897468,63.569037 22.48618,61.149165 l -4.726181,-1.215219 0.106063,-1.086973 c 0.05833,-0.597834 0.216455,-1.201895 0.351379,-1.342352 0.134924,-0.140458 9.519196,-0.212458 20.853937,-0.16 20.317593,0.09403 20.632595,0.105206 22.30638,0.791382 4.16888,1.709053 5.950272,4.378496 7.223149,10.823997 1.442137,7.302582 9.159091,48.47828 9.159091,48.87056 0,0.23488 0.107516,0.26262 0.284662,0.0734 0.156566,-0.1672 5.65359,-13.876 12.215609,-30.464 L 102.19122,57.28 h 11.94439 c 9.33967,0 11.94541,0.08723 11.94908,0.4 0.003,0.22 -8.37118,20.38 -18.60836,44.8 l -18.613043,44.4 H 76.630545 64.397806 Z M 117.44,146.50314 c 0,-0.5452 18.90843,-88.690266 19.08756,-88.980103 0.0826,-0.133671 5.25371,-0.243037 11.49132,-0.243037 8.85862,0 11.3415,0.08756 11.34288,0.4 9.6e-4,0.22 -4.2755,20.38 -9.50327,44.8 l -9.50505,44.4 h -11.45672 c -8.57685,0 -11.45672,-0.0947 -11.45672,-0.37686 z m 103.99999,0.24958 c 0,-0.0742 7.9279,-19.04796 17.61755,-42.16385 19.14237,-45.666518 18.2914,-43.873177 21.74923,-45.834444 l 1.75322,-0.994426 11.6,-0.0949 c 6.38,-0.05219 11.6,0.02928 11.6,0.181033 0,0.241248 17.96195,86.439277 18.40285,88.313867 l 0.16934,0.72 h -10.67113 -10.67113 l -1.38236,-6.72 -1.38237,-6.72 -14.9126,9.6e-4 -14.9126,9.6e-4 -2.40485,6.63904 -2.40485,6.63904 -12.07515,0.0839 c -6.64133,0.0461 -12.07515,0.0231 -12.07515,-0.0511 z M 276.14443,114 c -0.14714,-0.66 -1.72246,-8.17864 -3.50073,-16.70808 -1.77826,-8.529443 -3.27575,-15.550627 -3.32776,-15.602634 -0.052,-0.05201 -2.586,6.782631 -5.63109,15.18808 -3.0451,8.405454 -5.80182,15.966634 -6.12604,16.802634 l -0.58948,1.52 h 9.72131 9.72132 z"
       id="path840" />
  </g>
</svg>
