<svg width="16" height="16" viewBox="0 0 16 16" fill="none" xmlns="http://www.w3.org/2000/svg">
<path fill-rule="evenodd" clip-rule="evenodd" d="M6.66732 6.35492V9.64507L9.40912 8L6.66732 6.35492ZM5.33398 10.8225C5.33398 11.3407 5.8993 11.6608 6.34365 11.3942L11.0479 8.57167C11.4795 8.31273 11.4795 7.68727 11.0479 7.42833L6.34365 4.6058C5.8993 4.33919 5.33398 4.65927 5.33398 5.17746V10.8225Z" fill="#F7F7F7"/>
<path fill-rule="evenodd" clip-rule="evenodd" d="M13.334 11.6852V4.31474C13.334 3.78701 13.0491 3.45754 12.7365 3.36161C11.6624 3.03208 10.0155 2.66665 8.00065 2.66665C5.98579 2.66665 4.33893 3.03208 3.26485 3.36161C2.95216 3.45754 2.66732 3.78701 2.66732 4.31474V11.6852C2.66732 12.2129 2.95216 12.5424 3.26485 12.6384C4.33893 12.9678 5.98579 13.3333 8.00065 13.3333C10.0155 13.3333 11.6624 12.9678 12.7365 12.6384C13.0491 12.5424 13.334 12.2129 13.334 11.6852ZM2.87378 2.08691C1.90814 2.38317 1.33398 3.30468 1.33398 4.31474V11.6852C1.33398 12.6953 1.90814 13.6168 2.87378 13.913C4.046 14.2726 5.82634 14.6666 8.00065 14.6666C10.175 14.6666 11.9553 14.2726 13.1275 13.913C14.0932 13.6168 14.6673 12.6953 14.6673 11.6852V4.31474C14.6673 3.30468 14.0932 2.38317 13.1275 2.08691C11.9553 1.72728 10.175 1.33331 8.00065 1.33331C5.82634 1.33331 4.046 1.72728 2.87378 2.08691Z" fill="#F7F7F7"/>
</svg>
